<svg width="42" height="28" viewBox="0 0 42 28" fill="none" xmlns="http://www.w3.org/2000/svg">
<path d="M41.9774 19.0774C41.8728 16.671 41.4543 14.003 40.8266 11.492C40.1988 9.08563 39.4141 6.83618 38.4725 5.10986C34.8106 -1.32462 30.8348 -0.330679 26.0744 0.924829C24.5573 1.29102 22.9356 1.70952 21.2616 1.86646H20.7384C19.0644 1.70952 17.4427 1.29102 15.9257 0.924829C11.1652 -0.278366 7.18943 -1.32462 3.52753 5.16217C2.5859 6.88849 1.7489 9.13795 1.17346 11.5443C0.545703 14.0554 0.1272 16.7233 0.0225747 19.1297C-0.0820509 21.7977 0.179513 23.7332 0.754954 25.0934C1.33039 26.3489 2.1674 27.1336 3.26597 27.4474C4.25991 27.709 5.41079 27.6044 6.61399 27.0813C8.65419 26.2442 11.0083 24.4656 13.31 22.3208C14.9317 20.7514 17.9659 19.9667 21 19.9667C24.0342 19.9667 27.0683 20.7514 28.69 22.3208C30.9918 24.4656 33.3458 26.2442 35.386 27.0813C36.5892 27.5521 37.7401 27.709 38.7341 27.4474C39.7803 27.1336 40.6696 26.4012 41.2451 25.041C41.8205 23.7332 42.0821 21.7977 41.9774 19.0774ZM39.4664 24.3087C39.1526 25.0411 38.7341 25.4596 38.2109 25.6165C37.6355 25.7734 36.9031 25.6688 36.0661 25.3549C34.2352 24.6225 32.0903 23.0009 29.9978 21.013C28.0099 19.0251 24.505 18.0311 21 18.0311C17.4951 18.0311 13.9901 19.0251 11.9499 20.9083C9.80507 22.8962 7.66024 24.5702 5.88161 25.2503C5.0446 25.5642 4.31222 25.7211 3.73678 25.5119C3.21366 25.3549 2.79515 24.9364 2.48128 24.204C2.06277 23.2101 1.85352 21.5884 1.95815 19.182C2.06277 16.9326 2.42896 14.3692 3.05672 11.9628C3.63216 9.71339 4.36454 7.62087 5.25386 6.05149C8.13106 0.872516 11.4791 1.70952 15.4549 2.75578C17.0765 3.17428 18.7506 3.59278 20.5815 3.74972C20.6338 3.74972 20.6338 3.74972 20.6861 3.74972H21.2616C21.3139 3.74972 21.3139 3.74972 21.3662 3.74972C23.2495 3.59278 24.9235 3.17428 26.5452 2.75578C30.5209 1.76183 33.869 0.872516 36.7462 6.05149C37.6355 7.62087 38.3679 9.66107 38.9433 11.9628C39.5187 14.3692 39.9372 16.8802 40.0419 19.182C40.1465 21.5884 39.9372 23.2101 39.4664 24.3087Z" fill="#B0A600"/>
</svg>
