<svg width="917" height="701" viewBox="0 0 917 701" fill="none" xmlns="http://www.w3.org/2000/svg">
<g filter="url(#filter0_d_8_2292)">
<g clip-path="url(#clip0_8_2292)">
<rect x="56.28" y="46.9" width="804" height="587.59" rx="8.04" fill="#F6F7F9"/>
<g clip-path="url(#clip1_8_2292)">
<mask id="path-2-inside-1_8_2292" fill="white">
<path d="M215.963 46.9H860.28V91.5667H215.963V46.9Z"/>
</mask>
<path d="M215.963 46.9H860.28V91.5667H215.963V46.9Z" fill="white"/>
<rect opacity="0.8" x="234.109" y="57.2292" width="274.142" height="24.0083" rx="12.0042" fill="white" stroke="#C9D0FF" stroke-width="0.558333"/>
<rect x="250.58" y="64.7667" width="8.375" height="8.375" rx="4.1875" fill="#D8DDFF"/>
<rect x="266.772" y="64.7667" width="64.4231" height="8.375" rx="4.1875" fill="#E2E6FF"/>
<circle opacity="0.4" cx="718.406" cy="69.345" r="12.395" fill="#C9D0FF" fill-opacity="0.4"/>
<path d="M723.99 66.8772V71.9133C723.99 72.5275 723.487 73.03 722.873 73.03H715.056L712.823 75.2633V65.2133C712.823 64.5992 713.325 64.0967 713.94 64.0967H719.579C719.545 64.2753 719.523 64.4652 719.523 64.655C719.523 66.196 720.774 67.4467 722.315 67.4467C722.945 67.4467 723.521 67.2289 723.99 66.8772ZM720.64 64.655C720.64 65.5818 721.388 66.33 722.315 66.33C723.241 66.33 723.99 65.5818 723.99 64.655C723.99 63.7282 723.241 62.98 722.315 62.98C721.388 62.98 720.64 63.7282 720.64 64.655Z" fill="#C9D0FF"/>
<circle opacity="0.4" cx="752.576" cy="69.345" r="12.395" fill="#C9D0FF" fill-opacity="0.4"/>
<path d="M751.461 65.1017C751.461 64.8056 751.578 64.5216 751.788 64.3121C751.997 64.1027 752.281 63.9851 752.577 63.9851C752.874 63.9851 753.158 64.1027 753.367 64.3121C753.576 64.5216 753.694 64.8056 753.694 65.1017C754.335 65.4049 754.882 65.8769 755.275 66.467C755.669 67.0572 755.894 67.7433 755.927 68.4517V70.1267C755.969 70.4739 756.092 70.8063 756.286 71.0972C756.48 71.3881 756.74 71.6295 757.044 71.8017H748.111C748.415 71.6295 748.675 71.3881 748.868 71.0972C749.062 70.8063 749.185 70.4739 749.227 70.1267V68.4517C749.261 67.7433 749.486 67.0572 749.879 66.467C750.273 65.8769 750.82 65.4049 751.461 65.1017Z" fill="#C9D0FF"/>
<path d="M751.461 65.1017C751.461 64.8056 751.578 64.5216 751.788 64.3121C751.997 64.1027 752.281 63.9851 752.577 63.9851C752.874 63.9851 753.158 64.1027 753.367 64.3121C753.576 64.5216 753.694 64.8056 753.694 65.1017C754.335 65.4049 754.882 65.8769 755.275 66.467C755.669 67.0572 755.894 67.7433 755.927 68.4517V70.1267C755.969 70.4739 756.092 70.8063 756.286 71.0972C756.48 71.3881 756.74 71.6295 757.044 71.8017H748.111C748.415 71.6295 748.675 71.3881 748.868 71.0972C749.062 70.8063 749.185 70.4739 749.227 70.1267V68.4517C749.261 67.7433 749.486 67.0572 749.879 66.467C750.273 65.8769 750.82 65.4049 751.461 65.1017" stroke="#C9D0FF" stroke-width="0.871" stroke-linecap="round" stroke-linejoin="round"/>
<path d="M750.899 71.8017V72.3601C750.899 72.8043 751.076 73.2303 751.39 73.5445C751.704 73.8586 752.13 74.0351 752.574 74.0351C753.018 74.0351 753.444 73.8586 753.759 73.5445C754.073 73.2303 754.249 72.8043 754.249 72.3601V71.8017" stroke="#C9D0FF" stroke-width="0.871" stroke-linecap="round" stroke-linejoin="round"/>
<rect opacity="0.3" x="779.711" y="52.26" width="60.3" height="34.17" rx="17.085" fill="#C9D0FF" fill-opacity="0.4"/>
<circle cx="797.801" cy="69.68" r="11.39" fill="#C9D0FF"/>
<g clip-path="url(#clip2_8_2292)">
<path d="M824.149 64.5324C824.434 63.3558 826.108 63.3558 826.393 64.5324C826.436 64.7091 826.52 64.8733 826.638 65.0114C826.757 65.1496 826.906 65.2579 827.074 65.3275C827.242 65.3971 827.424 65.426 827.605 65.412C827.787 65.3979 827.962 65.3413 828.117 65.2466C829.151 64.6168 830.335 65.8 829.705 66.8345C829.611 66.9897 829.554 67.165 829.54 67.3462C829.526 67.5274 829.555 67.7094 829.624 67.8773C829.694 68.0452 829.802 68.1943 829.94 68.3125C830.078 68.4308 830.242 68.5148 830.419 68.5577C831.595 68.8431 831.595 70.5168 830.419 70.8022C830.242 70.8451 830.078 70.929 829.94 71.0473C829.802 71.1655 829.693 71.3147 829.624 71.4827C829.554 71.6507 829.525 71.8328 829.539 72.0141C829.553 72.1954 829.61 72.3709 829.705 72.5261C830.334 73.5599 829.151 74.7438 828.117 74.114C827.961 74.0195 827.786 73.9629 827.605 73.9489C827.424 73.9349 827.242 73.9638 827.074 74.0333C826.906 74.1028 826.757 74.211 826.639 74.349C826.52 74.487 826.436 74.651 826.393 74.8276C826.108 76.0041 824.434 76.0041 824.149 74.8276C824.106 74.6508 824.022 74.4867 823.904 74.3485C823.786 74.2104 823.636 74.1021 823.468 74.0325C823.3 73.9629 823.118 73.9339 822.937 73.948C822.756 73.962 822.58 74.0187 822.425 74.1134C821.391 74.7432 820.207 73.5599 820.837 72.5255C820.932 72.3703 820.988 72.1949 821.002 72.0137C821.016 71.8325 820.987 71.6506 820.918 71.4827C820.848 71.3148 820.74 71.1657 820.602 71.0474C820.464 70.9292 820.3 70.8452 820.124 70.8022C818.947 70.5168 818.947 68.8431 820.124 68.5577C820.3 68.5149 820.464 68.431 820.603 68.3127C820.741 68.1945 820.849 68.0453 820.919 67.8772C820.988 67.7092 821.017 67.5272 821.003 67.3458C820.989 67.1645 820.932 66.9891 820.838 66.8338C820.208 65.8 821.391 64.6161 822.426 65.2459C823.096 65.6533 823.964 65.2928 824.149 64.5324Z" stroke="#98A6FF" stroke-width="1.005" stroke-linecap="round" stroke-linejoin="round"/>
<path d="M825.271 71.69C826.381 71.69 827.281 70.7901 827.281 69.68C827.281 68.5699 826.381 67.67 825.271 67.67C824.161 67.67 823.261 68.5699 823.261 69.68C823.261 70.7901 824.161 71.69 825.271 71.69Z" stroke="#98A6FF" stroke-width="1.005" stroke-linecap="round" stroke-linejoin="round"/>
</g>
</g>
<path d="M860.28 91.5667V91.0083H215.963V91.5667V92.125H860.28V91.5667Z" fill="#F3F5F7" mask="url(#path-2-inside-1_8_2292)"/>
<mask id="path-17-inside-2_8_2292" fill="white">
<path d="M56.28 46.9H215.74V634.49H56.28V46.9Z"/>
</mask>
<path d="M56.28 46.9H215.74V634.49H56.28V46.9Z" fill="white"/>
<path d="M215.74 46.9H215.182V634.49H215.74H216.298V46.9H215.74Z" fill="#F3F5F7" mask="url(#path-17-inside-2_8_2292)"/>
<rect x="65.2134" y="134.558" width="141.817" height="27.3583" rx="5.58333" fill="#635EFF"/>
<path d="M74.7954 127.367V121.543H75.4989L77.6797 124.646H77.3202L79.4854 121.543H80.1889V127.367H79.415V122.513L79.6886 122.599L77.5234 125.647H77.4609L75.3191 122.599L75.5614 122.513V127.367H74.7954ZM82.475 127.46C82.1988 127.46 81.9539 127.411 81.7403 127.312C81.5318 127.208 81.3677 127.067 81.2478 126.89C81.1279 126.707 81.068 126.499 81.068 126.265C81.068 126.04 81.1149 125.84 81.2087 125.663C81.3077 125.48 81.4589 125.327 81.6621 125.201C81.8705 125.076 82.1311 124.988 82.4438 124.936L84.0071 124.678V125.287L82.6079 125.522C82.3369 125.569 82.1389 125.655 82.0138 125.78C81.894 125.905 81.8341 126.059 81.8341 126.241C81.8341 126.413 81.9018 126.556 82.0373 126.671C82.178 126.786 82.3526 126.843 82.561 126.843C82.8268 126.843 83.0561 126.788 83.2489 126.679C83.4469 126.564 83.6006 126.41 83.7101 126.218C83.8247 126.025 83.882 125.811 83.882 125.577V124.506C83.882 124.276 83.796 124.091 83.6241 123.951C83.4573 123.805 83.2358 123.732 82.9597 123.732C82.7199 123.732 82.5063 123.794 82.3187 123.92C82.1363 124.039 82.0008 124.201 81.9122 124.404L81.2791 124.076C81.3572 123.883 81.4823 123.711 81.6543 123.56C81.8262 123.404 82.0269 123.281 82.2562 123.193C82.4854 123.104 82.7252 123.06 82.9753 123.06C83.2984 123.06 83.5824 123.122 83.8273 123.247C84.0722 123.367 84.2624 123.537 84.3979 123.755C84.5386 123.969 84.609 124.219 84.609 124.506V127.367H83.8977V126.569L84.0305 126.616C83.9419 126.783 83.8221 126.929 83.671 127.054C83.5198 127.179 83.3427 127.278 83.1394 127.351C82.9362 127.424 82.7147 127.46 82.475 127.46ZM85.5798 127.367V123.153H86.3067V127.367H85.5798ZM85.5798 122.481V121.543H86.3067V122.481H85.5798ZM87.2784 127.367V123.153H87.9897V123.974L87.8724 123.904C87.9766 123.638 88.1434 123.432 88.3727 123.286C88.6072 123.135 88.8808 123.06 89.1934 123.06C89.4957 123.06 89.7641 123.127 89.9986 123.263C90.2383 123.398 90.4259 123.586 90.5614 123.826C90.7021 124.065 90.7724 124.336 90.7724 124.639V127.367H90.0376V124.873C90.0376 124.639 89.996 124.441 89.9126 124.279C89.8292 124.118 89.7093 123.992 89.553 123.904C89.4019 123.81 89.2273 123.763 89.0293 123.763C88.8313 123.763 88.6541 123.81 88.4978 123.904C88.3466 123.992 88.2268 124.12 88.1382 124.287C88.0496 124.448 88.0053 124.644 88.0053 124.873V127.367H87.2784ZM92.9371 127.367V121.543H93.6406L95.8214 124.646H95.4619L97.6271 121.543H98.3306V127.367H97.5567V122.513L97.8303 122.599L95.6651 125.647H95.6026L93.4608 122.599L93.7031 122.513V127.367H92.9371ZM101.32 127.46C100.914 127.46 100.552 127.364 100.234 127.171C99.9158 126.978 99.6657 126.715 99.4833 126.382C99.3009 126.043 99.2097 125.665 99.2097 125.248C99.2097 124.826 99.2983 124.451 99.4755 124.123C99.6579 123.794 99.9028 123.537 100.21 123.349C100.523 123.156 100.872 123.06 101.258 123.06C101.57 123.06 101.847 123.117 102.086 123.232C102.331 123.341 102.537 123.492 102.704 123.685C102.876 123.873 103.006 124.089 103.095 124.334C103.188 124.574 103.235 124.824 103.235 125.084C103.235 125.142 103.23 125.207 103.22 125.28C103.214 125.347 103.207 125.413 103.196 125.475H99.7412V124.85H102.774L102.43 125.131C102.477 124.86 102.451 124.618 102.352 124.404C102.253 124.19 102.107 124.021 101.914 123.896C101.721 123.771 101.503 123.708 101.258 123.708C101.013 123.708 100.789 123.771 100.585 123.896C100.382 124.021 100.223 124.201 100.109 124.435C99.9992 124.665 99.9549 124.938 99.9757 125.256C99.9549 125.564 100.002 125.835 100.116 126.069C100.236 126.298 100.403 126.478 100.617 126.608C100.836 126.734 101.073 126.796 101.328 126.796C101.609 126.796 101.847 126.731 102.039 126.601C102.232 126.47 102.388 126.304 102.508 126.1L103.118 126.413C103.035 126.606 102.904 126.783 102.727 126.945C102.555 127.101 102.349 127.226 102.11 127.32C101.875 127.414 101.612 127.46 101.32 127.46ZM104.027 127.367V123.153H104.738V123.974L104.621 123.904C104.725 123.638 104.892 123.432 105.121 123.286C105.356 123.135 105.629 123.06 105.942 123.06C106.244 123.06 106.512 123.127 106.747 123.263C106.987 123.398 107.174 123.586 107.31 123.826C107.45 124.065 107.521 124.336 107.521 124.639V127.367H106.786V124.873C106.786 124.639 106.744 124.441 106.661 124.279C106.578 124.118 106.458 123.992 106.301 123.904C106.15 123.81 105.976 123.763 105.778 123.763C105.58 123.763 105.403 123.81 105.246 123.904C105.095 123.992 104.975 124.12 104.887 124.287C104.798 124.448 104.754 124.644 104.754 124.873V127.367H104.027ZM109.898 127.46C109.595 127.46 109.322 127.39 109.077 127.249C108.837 127.109 108.65 126.913 108.514 126.663C108.384 126.408 108.319 126.116 108.319 125.788V123.153H109.046V125.71C109.046 125.918 109.087 126.1 109.171 126.257C109.259 126.413 109.379 126.535 109.53 126.624C109.687 126.713 109.864 126.757 110.062 126.757C110.26 126.757 110.434 126.713 110.586 126.624C110.742 126.535 110.862 126.408 110.945 126.241C111.034 126.074 111.078 125.876 111.078 125.647V123.153H111.813V127.367H111.101V126.546L111.219 126.616C111.12 126.882 110.95 127.09 110.711 127.242C110.476 127.388 110.205 127.46 109.898 127.46Z" fill="#90A3BF"/>
<rect x="74.1466" y="143.157" width="8.375" height="8.375" rx="4.1875" fill="white"/>
<rect x="90.3383" y="143.157" width="64.4231" height="8.375" rx="4.1875" fill="white"/>
<rect x="74.1466" y="174.758" width="8.375" height="8.375" rx="4.1875" fill="#C9D0FF"/>
<rect x="90.3383" y="174.758" width="64.4231" height="8.375" rx="4.1875" fill="#C9D0FF"/>
<rect x="74.1466" y="199.213" width="8.375" height="8.375" rx="4.1875" fill="#C9D0FF"/>
<rect x="90.3383" y="199.213" width="64.4231" height="8.375" rx="4.1875" fill="#C9D0FF"/>
<rect x="74.1466" y="223.668" width="8.375" height="8.375" rx="4.1875" fill="#C9D0FF"/>
<rect x="90.3383" y="223.668" width="64.4231" height="8.375" rx="4.1875" fill="#C9D0FF"/>
<rect x="74.1466" y="248.123" width="8.375" height="8.375" rx="4.1875" fill="#C9D0FF"/>
<rect x="90.3383" y="248.123" width="64.4231" height="8.375" rx="4.1875" fill="#C9D0FF"/>
<rect x="74.1466" y="272.578" width="8.375" height="8.375" rx="4.1875" fill="#C9D0FF"/>
<rect x="90.3383" y="272.578" width="64.4231" height="8.375" rx="4.1875" fill="#C9D0FF"/>
<rect x="74.1466" y="297.033" width="8.375" height="8.375" rx="4.1875" fill="#C9D0FF"/>
<rect x="90.3383" y="297.033" width="64.4231" height="8.375" rx="4.1875" fill="#C9D0FF"/>
<path d="M74.7954 349.248V343.425H76.8512C77.2368 343.425 77.5755 343.498 77.8673 343.644C78.1592 343.79 78.3858 343.998 78.5474 344.269C78.7141 344.54 78.7975 344.858 78.7975 345.223C78.7975 345.588 78.7141 345.905 78.5474 346.176C78.3858 346.442 78.1592 346.651 77.8673 346.802C77.5807 346.948 77.242 347.021 76.8512 347.021H75.5614V349.248H74.7954ZM75.5614 346.317H76.8746C77.1091 346.317 77.3124 346.273 77.4843 346.184C77.6563 346.096 77.7892 345.968 77.883 345.801C77.9768 345.634 78.0237 345.442 78.0237 345.223C78.0237 344.999 77.9768 344.806 77.883 344.644C77.7892 344.478 77.6563 344.35 77.4843 344.261C77.3124 344.173 77.1091 344.128 76.8746 344.128H75.5614V346.317ZM79.5912 349.248V345.035H80.3025V345.809L80.2243 345.7C80.3233 345.46 80.4744 345.283 80.6777 345.168C80.8809 345.048 81.1284 344.988 81.4203 344.988H81.6782V345.676H81.3108C81.0138 345.676 80.7741 345.77 80.5917 345.958C80.4093 346.14 80.3181 346.4 80.3181 346.739V349.248H79.5912ZM84.1061 349.342C83.6997 349.342 83.3375 349.246 83.0196 349.053C82.7017 348.86 82.4516 348.597 82.2692 348.263C82.0868 347.925 81.9956 347.547 81.9956 347.13C81.9956 346.708 82.0842 346.333 82.2614 346.004C82.4438 345.676 82.6887 345.418 82.9962 345.231C83.3088 345.038 83.658 344.941 84.0436 344.941C84.3563 344.941 84.6325 344.999 84.8722 345.113C85.1171 345.223 85.3229 345.374 85.4897 345.567C85.6617 345.754 85.7919 345.971 85.8805 346.215C85.9743 346.455 86.0212 346.705 86.0212 346.966C86.0212 347.023 86.016 347.088 86.0056 347.161C86.0004 347.229 85.9926 347.294 85.9821 347.357H82.5272V346.731H85.56L85.2161 347.013C85.263 346.742 85.2369 346.499 85.1379 346.286C85.0389 346.072 84.893 345.903 84.7002 345.778C84.5074 345.653 84.2885 345.59 84.0436 345.59C83.7987 345.59 83.5746 345.653 83.3714 345.778C83.1681 345.903 83.0092 346.083 82.8946 346.317C82.7851 346.546 82.7408 346.82 82.7617 347.138C82.7408 347.445 82.7877 347.716 82.9024 347.951C83.0222 348.18 83.189 348.36 83.4026 348.49C83.6215 348.615 83.8586 348.678 84.114 348.678C84.3954 348.678 84.6325 348.613 84.8253 348.482C85.0181 348.352 85.1744 348.185 85.2943 347.982L85.904 348.295C85.8206 348.487 85.6903 348.665 85.5131 348.826C85.3412 348.983 85.1353 349.108 84.8956 349.201C84.6611 349.295 84.398 349.342 84.1061 349.342ZM87.2583 349.248V345.731H86.4532V345.035H87.2583V344.738C87.2583 344.436 87.3234 344.181 87.4537 343.972C87.5892 343.764 87.7664 343.605 87.9852 343.495C88.2093 343.386 88.4568 343.331 88.7278 343.331C88.7851 343.331 88.8477 343.336 88.9154 343.347C88.9884 343.352 89.0483 343.36 89.0952 343.37V344.019C89.0535 344.009 89.004 344.003 88.9467 344.003C88.8893 343.998 88.8451 343.996 88.8138 343.996C88.5741 343.996 88.3761 344.053 88.2197 344.167C88.0686 344.282 87.993 344.472 87.993 344.738V345.035H88.9936V345.731H87.993V349.248H87.2583ZM91.5033 349.342C91.0968 349.342 90.7346 349.246 90.4168 349.053C90.0989 348.86 89.8487 348.597 89.6664 348.263C89.484 347.925 89.3928 347.547 89.3928 347.13C89.3928 346.708 89.4814 346.333 89.6585 346.004C89.8409 345.676 90.0858 345.418 90.3933 345.231C90.706 345.038 91.0551 344.941 91.4407 344.941C91.7534 344.941 92.0296 344.999 92.2693 345.113C92.5142 345.223 92.7201 345.374 92.8868 345.567C93.0588 345.754 93.1891 345.971 93.2777 346.215C93.3715 346.455 93.4184 346.705 93.4184 346.966C93.4184 347.023 93.4131 347.088 93.4027 347.161C93.3975 347.229 93.3897 347.294 93.3793 347.357H89.9243V346.731H92.9572L92.6132 347.013C92.6601 346.742 92.6341 346.499 92.5351 346.286C92.4361 346.072 92.2901 345.903 92.0973 345.778C91.9045 345.653 91.6857 345.59 91.4407 345.59C91.1958 345.59 90.9717 345.653 90.7685 345.778C90.5653 345.903 90.4063 346.083 90.2917 346.317C90.1823 346.546 90.138 346.82 90.1588 347.138C90.138 347.445 90.1849 347.716 90.2995 347.951C90.4194 348.18 90.5861 348.36 90.7998 348.49C91.0186 348.615 91.2557 348.678 91.5111 348.678C91.7925 348.678 92.0296 348.613 92.2224 348.482C92.4152 348.352 92.5715 348.185 92.6914 347.982L93.3011 348.295C93.2177 348.487 93.0874 348.665 92.9103 348.826C92.7383 348.983 92.5325 349.108 92.2928 349.201C92.0583 349.295 91.7951 349.342 91.5033 349.342ZM94.2099 349.248V345.035H94.9212V345.809L94.843 345.7C94.942 345.46 95.0931 345.283 95.2964 345.168C95.4996 345.048 95.7471 344.988 96.039 344.988H96.2969V345.676H95.9295C95.6325 345.676 95.3928 345.77 95.2104 345.958C95.028 346.14 94.9368 346.4 94.9368 346.739V349.248H94.2099ZM98.7248 349.342C98.3184 349.342 97.9562 349.246 97.6383 349.053C97.3204 348.86 97.0703 348.597 96.8879 348.263C96.7055 347.925 96.6143 347.547 96.6143 347.13C96.6143 346.708 96.7029 346.333 96.8801 346.004C97.0625 345.676 97.3074 345.418 97.6149 345.231C97.9275 345.038 98.2767 344.941 98.6623 344.941C98.975 344.941 99.2512 344.999 99.4909 345.113C99.7358 345.223 99.9416 345.374 100.108 345.567C100.28 345.754 100.411 345.971 100.499 346.215C100.593 346.455 100.64 346.705 100.64 346.966C100.64 347.023 100.635 347.088 100.624 347.161C100.619 347.229 100.611 347.294 100.601 347.357H97.1459V346.731H100.179L99.8348 347.013C99.8817 346.742 99.8556 346.499 99.7566 346.286C99.6576 346.072 99.5117 345.903 99.3189 345.778C99.1261 345.653 98.9072 345.59 98.6623 345.59C98.4174 345.59 98.1933 345.653 97.9901 345.778C97.7868 345.903 97.6279 346.083 97.5132 346.317C97.4038 346.546 97.3595 346.82 97.3804 347.138C97.3595 347.445 97.4064 347.716 97.5211 347.951C97.6409 348.18 97.8077 348.36 98.0213 348.49C98.2402 348.615 98.4773 348.678 98.7326 348.678C99.014 348.678 99.2512 348.613 99.444 348.482C99.6368 348.352 99.7931 348.185 99.913 347.982L100.523 348.295C100.439 348.487 100.309 348.665 100.132 348.826C99.9599 348.983 99.754 349.108 99.5143 349.201C99.2798 349.295 99.0167 349.342 98.7248 349.342ZM101.431 349.248V345.035H102.143V345.856L102.025 345.786C102.13 345.52 102.296 345.314 102.526 345.168C102.76 345.017 103.034 344.941 103.346 344.941C103.649 344.941 103.917 345.009 104.152 345.145C104.391 345.28 104.579 345.468 104.714 345.707C104.855 345.947 104.925 346.218 104.925 346.52V349.248H104.191V346.755C104.191 346.52 104.149 346.322 104.066 346.161C103.982 345.999 103.862 345.874 103.706 345.786C103.555 345.692 103.38 345.645 103.182 345.645C102.984 345.645 102.807 345.692 102.651 345.786C102.5 345.874 102.38 346.002 102.291 346.169C102.203 346.33 102.158 346.526 102.158 346.755V349.248H101.431ZM107.764 349.342C107.352 349.342 106.984 349.246 106.661 349.053C106.343 348.86 106.093 348.597 105.911 348.263C105.729 347.93 105.637 347.555 105.637 347.138C105.637 346.716 105.729 346.341 105.911 346.012C106.093 345.684 106.343 345.423 106.661 345.231C106.984 345.038 107.352 344.941 107.764 344.941C108.04 344.941 108.298 344.991 108.537 345.09C108.777 345.189 108.988 345.322 109.171 345.489C109.353 345.655 109.486 345.851 109.569 346.075L108.92 346.387C108.821 346.169 108.67 345.991 108.467 345.856C108.264 345.715 108.029 345.645 107.764 345.645C107.508 345.645 107.276 345.71 107.068 345.84C106.865 345.971 106.703 346.148 106.583 346.372C106.463 346.596 106.403 346.854 106.403 347.146C106.403 347.427 106.463 347.682 106.583 347.912C106.703 348.136 106.865 348.313 107.068 348.443C107.276 348.573 107.508 348.639 107.764 348.639C108.029 348.639 108.264 348.571 108.467 348.435C108.67 348.295 108.821 348.11 108.92 347.88L109.569 348.209C109.486 348.428 109.353 348.623 109.171 348.795C108.988 348.962 108.777 349.095 108.537 349.194C108.298 349.293 108.04 349.342 107.764 349.342ZM112.301 349.342C111.895 349.342 111.533 349.246 111.215 349.053C110.897 348.86 110.647 348.597 110.464 348.263C110.282 347.925 110.191 347.547 110.191 347.13C110.191 346.708 110.279 346.333 110.457 346.004C110.639 345.676 110.884 345.418 111.191 345.231C111.504 345.038 111.853 344.941 112.239 344.941C112.552 344.941 112.828 344.999 113.067 345.113C113.312 345.223 113.518 345.374 113.685 345.567C113.857 345.754 113.987 345.971 114.076 346.215C114.17 346.455 114.216 346.705 114.216 346.966C114.216 347.023 114.211 347.088 114.201 347.161C114.196 347.229 114.188 347.294 114.177 347.357H110.722V346.731H113.755L113.411 347.013C113.458 346.742 113.432 346.499 113.333 346.286C113.234 346.072 113.088 345.903 112.895 345.778C112.703 345.653 112.484 345.59 112.239 345.59C111.994 345.59 111.77 345.653 111.567 345.778C111.363 345.903 111.204 346.083 111.09 346.317C110.98 346.546 110.936 346.82 110.957 347.138C110.936 347.445 110.983 347.716 111.098 347.951C111.217 348.18 111.384 348.36 111.598 348.49C111.817 348.615 112.054 348.678 112.309 348.678C112.591 348.678 112.828 348.613 113.021 348.482C113.213 348.352 113.37 348.185 113.49 347.982L114.099 348.295C114.016 348.487 113.886 348.665 113.708 348.826C113.536 348.983 113.331 349.108 113.091 349.201C112.856 349.295 112.593 349.342 112.301 349.342ZM116.517 349.342C116.094 349.342 115.727 349.238 115.414 349.029C115.102 348.821 114.88 348.54 114.75 348.185L115.328 347.904C115.448 348.154 115.612 348.352 115.821 348.498C116.029 348.644 116.261 348.717 116.517 348.717C116.746 348.717 116.936 348.662 117.087 348.553C117.238 348.443 117.314 348.3 117.314 348.123C117.314 347.998 117.277 347.899 117.204 347.826C117.137 347.748 117.053 347.688 116.954 347.646C116.855 347.599 116.764 347.565 116.681 347.544L116.048 347.365C115.667 347.255 115.388 347.099 115.211 346.896C115.039 346.692 114.953 346.455 114.953 346.184C114.953 345.934 115.016 345.718 115.141 345.535C115.271 345.348 115.446 345.202 115.665 345.098C115.889 344.993 116.139 344.941 116.415 344.941C116.785 344.941 117.116 345.035 117.408 345.223C117.705 345.41 117.916 345.673 118.041 346.012L117.447 346.286C117.353 346.067 117.212 345.895 117.025 345.77C116.837 345.64 116.626 345.574 116.392 345.574C116.178 345.574 116.009 345.629 115.883 345.739C115.758 345.843 115.696 345.976 115.696 346.137C115.696 346.257 115.727 346.356 115.79 346.434C115.852 346.507 115.928 346.565 116.016 346.606C116.105 346.643 116.191 346.674 116.274 346.7L116.962 346.903C117.306 347.002 117.572 347.156 117.759 347.365C117.952 347.573 118.049 347.823 118.049 348.115C118.049 348.349 117.984 348.56 117.853 348.748C117.723 348.936 117.543 349.082 117.314 349.186C117.085 349.29 116.819 349.342 116.517 349.342Z" fill="#90A3BF"/>
<rect x="74.1466" y="365.648" width="8.375" height="8.375" rx="4.1875" fill="#C9D0FF"/>
<rect x="90.3383" y="365.648" width="64.4231" height="8.375" rx="4.1875" fill="#C9D0FF"/>
<rect x="74.1466" y="390.103" width="8.375" height="8.375" rx="4.1875" fill="#C9D0FF"/>
<rect x="90.3383" y="390.103" width="64.4231" height="8.375" rx="4.1875" fill="#C9D0FF"/>
<rect x="74.1466" y="414.558" width="8.375" height="8.375" rx="4.1875" fill="#C9D0FF"/>
<rect x="90.3383" y="414.558" width="64.4231" height="8.375" rx="4.1875" fill="#C9D0FF"/>
<rect x="74.1466" y="586.808" width="8.375" height="8.375" rx="4.1875" fill="#EFF3FD"/>
<rect x="90.3383" y="586.808" width="64.4231" height="8.375" rx="4.1875" fill="#EFF3FD"/>
<rect x="229.81" y="106.53" width="410.71" height="276.71" rx="28.14" fill="white"/>
<rect x="249.91" y="125.29" width="8.375" height="8.375" rx="4.1875" fill="#C9D0FF"/>
<rect x="267.665" y="125.458" width="139.36" height="8.04" rx="4.02" fill="#C9D0FF"/>
<rect x="562.13" y="125.458" width="53.6" height="8.04" rx="4.02" fill="#C9D0FF"/>
<g clip-path="url(#clip3_8_2292)">
<line x1="271.35" y1="315.369" x2="633.82" y2="315.369" stroke="#C9D0FF" stroke-width="0.402" stroke-dasharray="3.35 3.35"/>
<line x1="271.35" y1="277.849" x2="633.82" y2="277.849" stroke="#C9D0FF" stroke-width="0.402" stroke-dasharray="3.35 3.35"/>
<line x1="271.35" y1="240.329" x2="633.82" y2="240.329" stroke="#C9D0FF" stroke-width="0.402" stroke-dasharray="3.35 3.35"/>
<line x1="271.35" y1="202.809" x2="633.82" y2="202.809" stroke="#C9D0FF" stroke-width="0.402" stroke-dasharray="3.35 3.35"/>
<line x1="272.522" y1="367.83" x2="272.522" y2="140.7" stroke="#C9D0FF" stroke-width="0.335"/>
<path d="M288.77 174.583C288.77 165.491 296.141 158.12 305.233 158.12C314.325 158.12 321.696 165.491 321.696 174.583V353.09H288.77V174.583Z" fill="url(#paint0_linear_8_2292)"/>
<path d="M337.776 201.383C337.776 192.291 345.146 184.92 354.238 184.92C363.331 184.92 370.701 192.291 370.701 201.383V353.09H337.776V201.383Z" fill="url(#paint1_linear_8_2292)"/>
<path d="M386.781 264.363C386.781 255.271 394.152 247.9 403.244 247.9C412.336 247.9 419.707 255.271 419.707 264.363V353.09H386.781V264.363Z" fill="url(#paint2_linear_8_2292)"/>
<path d="M435.787 234.213C435.787 225.121 443.158 217.75 452.25 217.75C461.342 217.75 468.713 225.121 468.713 234.213V353.09H435.787V234.213Z" fill="url(#paint3_linear_8_2292)"/>
<path d="M484.793 309.923C484.793 300.831 492.164 293.46 501.256 293.46C510.348 293.46 517.719 300.831 517.719 309.923V353.09H484.793V309.923Z" fill="url(#paint4_linear_8_2292)"/>
<path d="M533.799 322.653C533.799 313.561 541.169 306.19 550.262 306.19C559.354 306.19 566.724 313.561 566.724 322.653V353.09H533.799V322.653Z" fill="url(#paint5_linear_8_2292)"/>
<path d="M582.804 295.853C582.804 286.761 590.175 279.39 599.267 279.39C608.359 279.39 615.73 286.761 615.73 295.853V353.09H582.804V295.853Z" fill="url(#paint6_linear_8_2292)"/>
<rect x="295.47" y="361.8" width="20.1" height="6.7" rx="3.35" fill="#C9D0FF"/>
<rect x="344.38" y="361.8" width="20.1" height="6.7" rx="3.35" fill="#C9D0FF"/>
<rect x="393.29" y="361.8" width="20.1" height="6.7" rx="3.35" fill="#C9D0FF"/>
<rect x="442.2" y="361.8" width="20.1" height="6.7" rx="3.35" fill="#C9D0FF"/>
<rect x="491.11" y="361.8" width="20.1" height="6.7" rx="3.35" fill="#C9D0FF"/>
<rect x="540.02" y="361.8" width="20.1" height="6.7" rx="3.35" fill="#C9D0FF"/>
<rect x="588.93" y="361.8" width="20.1" height="6.7" rx="3.35" fill="#C9D0FF"/>
<path d="M252.617 355.46C252.199 355.46 251.816 355.342 251.467 355.107C251.124 354.871 250.851 354.538 250.647 354.11C250.443 353.676 250.342 353.166 250.342 352.582C250.342 351.998 250.441 351.491 250.639 351.063C250.843 350.634 251.116 350.304 251.459 350.074C251.802 349.838 252.18 349.72 252.593 349.72C253.016 349.72 253.4 349.838 253.743 350.074C254.086 350.304 254.356 350.634 254.555 351.063C254.758 351.491 254.86 352.001 254.86 352.59C254.86 353.174 254.758 353.684 254.555 354.118C254.356 354.547 254.086 354.879 253.743 355.115C253.405 355.345 253.03 355.46 252.617 355.46ZM252.601 354.745C252.896 354.745 253.153 354.664 253.373 354.504C253.598 354.337 253.775 354.094 253.903 353.772C254.032 353.45 254.096 353.054 254.096 352.582C254.096 352.11 254.032 351.716 253.903 351.4C253.775 351.079 253.598 350.837 253.373 350.677C253.148 350.51 252.888 350.427 252.593 350.427C252.303 350.427 252.046 350.51 251.821 350.677C251.596 350.837 251.419 351.079 251.29 351.4C251.167 351.716 251.105 352.11 251.105 352.582C251.105 353.054 251.167 353.45 251.29 353.772C251.419 354.094 251.596 354.337 251.821 354.504C252.046 354.664 252.306 354.745 252.601 354.745Z" fill="#C6BAFF"/>
<path d="M249.7 315.938L251.734 312.28H252.587L250.512 315.938H249.7ZM249.7 316.405V315.938L250.022 315.729H253.977V316.405H249.7ZM252.426 317.86V314.17H253.173V317.86H252.426Z" fill="#C6BAFF"/>
<path d="M252.701 280.42C252.331 280.42 252.004 280.351 251.72 280.211C251.441 280.072 251.224 279.879 251.068 279.632C250.913 279.386 250.835 279.107 250.835 278.796C250.835 278.544 250.884 278.314 250.98 278.105C251.077 277.896 251.219 277.719 251.406 277.574C251.594 277.424 251.814 277.317 252.065 277.253L252.09 277.47C251.875 277.411 251.693 277.317 251.543 277.188C251.393 277.054 251.278 276.899 251.197 276.722C251.122 276.54 251.085 276.347 251.085 276.143C251.085 275.854 251.154 275.599 251.294 275.379C251.433 275.16 251.623 274.988 251.864 274.865C252.111 274.736 252.39 274.672 252.701 274.672C253.017 274.672 253.296 274.736 253.537 274.865C253.778 274.988 253.968 275.16 254.108 275.379C254.247 275.599 254.317 275.854 254.317 276.143C254.317 276.347 254.276 276.54 254.196 276.722C254.121 276.899 254.008 277.054 253.858 277.188C253.714 277.317 253.534 277.411 253.32 277.47L253.336 277.253C253.593 277.317 253.813 277.424 253.995 277.574C254.183 277.719 254.325 277.896 254.421 278.105C254.523 278.314 254.574 278.544 254.574 278.796C254.574 279.107 254.496 279.386 254.341 279.632C254.185 279.879 253.966 280.072 253.681 280.211C253.403 280.351 253.076 280.42 252.701 280.42ZM252.701 279.737C252.926 279.737 253.121 279.694 253.288 279.608C253.459 279.517 253.593 279.394 253.69 279.239C253.791 279.083 253.842 278.904 253.842 278.7C253.842 278.502 253.791 278.325 253.69 278.169C253.593 278.014 253.459 277.893 253.288 277.807C253.121 277.716 252.926 277.671 252.701 277.671C252.481 277.671 252.285 277.716 252.114 277.807C251.942 277.893 251.805 278.014 251.704 278.169C251.607 278.325 251.559 278.502 251.559 278.7C251.559 278.904 251.607 279.083 251.704 279.239C251.805 279.394 251.942 279.517 252.114 279.608C252.285 279.694 252.481 279.737 252.701 279.737ZM252.701 277.084C252.969 277.084 253.188 277.001 253.36 276.835C253.531 276.668 253.617 276.454 253.617 276.191C253.617 275.934 253.531 275.725 253.36 275.564C253.188 275.398 252.969 275.315 252.701 275.315C252.438 275.315 252.221 275.398 252.049 275.564C251.878 275.725 251.792 275.934 251.792 276.191C251.792 276.454 251.878 276.668 252.049 276.835C252.221 277.001 252.438 277.084 252.701 277.084Z" fill="#C6BAFF"/>
<path d="M249.484 242.82V237.24H250.232V242.82H249.484ZM248.342 237.916V237.24H250.151V237.916H248.342ZM251.146 242.362L253.204 240.191C253.413 239.977 253.576 239.792 253.694 239.636C253.812 239.475 253.895 239.328 253.944 239.194C253.997 239.06 254.024 238.921 254.024 238.776C254.024 238.492 253.933 238.269 253.751 238.109C253.568 237.948 253.333 237.867 253.043 237.867C252.759 237.867 252.51 237.937 252.295 238.076C252.081 238.21 251.891 238.419 251.725 238.704L251.194 238.261C251.414 237.897 251.679 237.623 251.99 237.441C252.301 237.254 252.66 237.16 253.067 237.16C253.41 237.16 253.708 237.227 253.96 237.361C254.217 237.495 254.415 237.682 254.555 237.924C254.694 238.165 254.764 238.446 254.764 238.768C254.764 238.998 254.734 239.205 254.675 239.387C254.622 239.569 254.522 239.757 254.378 239.95C254.238 240.137 254.043 240.362 253.791 240.625L252.127 242.338L251.146 242.362ZM251.146 242.82V242.362L251.789 242.145H254.892V242.82H251.146Z" fill="#C6BAFF"/>
<path d="M249.296 205.3V199.72H250.043V205.3H249.296ZM248.154 200.396V199.72H249.963V200.396H248.154ZM252.959 205.38C252.589 205.38 252.257 205.295 251.962 205.123C251.673 204.952 251.442 204.721 251.271 204.432C251.099 204.142 251.013 203.821 251.013 203.467C251.013 202.974 251.185 202.483 251.528 201.996L253.168 199.72H254.045L252.364 202.012L252.091 202.156C252.155 202.044 252.233 201.95 252.324 201.875C252.415 201.795 252.528 201.733 252.662 201.69C252.796 201.647 252.954 201.626 253.136 201.626C253.463 201.626 253.758 201.703 254.02 201.859C254.288 202.014 254.503 202.229 254.664 202.502C254.83 202.77 254.913 203.084 254.913 203.443C254.913 203.797 254.824 204.121 254.648 204.416C254.476 204.71 254.24 204.946 253.94 205.123C253.645 205.295 253.318 205.38 252.959 205.38ZM252.959 204.673C253.184 204.673 253.385 204.619 253.562 204.512C253.744 204.4 253.886 204.252 253.988 204.07C254.095 203.882 254.149 203.673 254.149 203.443C254.149 203.212 254.095 203.006 253.988 202.824C253.886 202.636 253.744 202.489 253.562 202.381C253.385 202.274 253.184 202.221 252.959 202.221C252.734 202.221 252.53 202.274 252.348 202.381C252.171 202.489 252.029 202.636 251.922 202.824C251.82 203.006 251.769 203.212 251.769 203.443C251.769 203.673 251.82 203.882 251.922 204.07C252.029 204.257 252.171 204.405 252.348 204.512C252.53 204.619 252.734 204.673 252.959 204.673Z" fill="#C6BAFF"/>
<line x1="262.64" y1="315.235" x2="272.69" y2="315.235" stroke="#C9D0FF" stroke-width="0.67"/>
<line x1="262.64" y1="277.715" x2="272.69" y2="277.715" stroke="#C9D0FF" stroke-width="0.67"/>
<line x1="262.64" y1="240.195" x2="272.69" y2="240.195" stroke="#C9D0FF" stroke-width="0.67"/>
<line x1="262.64" y1="202.675" x2="272.69" y2="202.675" stroke="#C9D0FF" stroke-width="0.67"/>
<line x1="262.64" y1="352.922" x2="633.82" y2="352.923" stroke="#C9D0FF" stroke-width="0.335"/>
</g>
<rect x="652.58" y="107.2" width="194.3" height="276.04" rx="17.0012" fill="white"/>
<mask id="path-78-inside-3_8_2292" fill="white">
<path d="M815.359 194.31C821.745 204.085 825.866 215.164 827.422 226.736L749.73 237.179L815.359 194.31Z"/>
</mask>
<path d="M815.359 194.31C821.745 204.085 825.866 215.164 827.422 226.736L749.73 237.179L815.359 194.31Z" fill="#EDF0FF" stroke="white" stroke-width="1.95975" stroke-linecap="round" stroke-linejoin="round" mask="url(#path-78-inside-3_8_2292)"/>
<mask id="path-79-inside-4_8_2292" fill="white">
<path d="M827.332 226.094C829.967 244.537 825.947 263.316 815.992 279.064C806.038 294.813 790.8 306.501 773.01 312.034C755.22 317.566 736.041 316.582 718.91 309.258C701.78 301.933 687.819 288.746 679.529 272.062C671.238 255.378 669.161 236.286 673.67 218.209C678.179 200.132 688.978 184.252 704.133 173.416C719.288 162.579 737.806 157.494 756.37 159.072C774.934 160.65 792.328 168.788 805.436 182.027L749.73 237.18L827.332 226.094Z"/>
</mask>
<path d="M827.332 226.094C829.967 244.537 825.947 263.316 815.992 279.064C806.038 294.813 790.8 306.501 773.01 312.034C755.22 317.566 736.041 316.582 718.91 309.258C701.78 301.933 687.819 288.746 679.529 272.062C671.238 255.378 669.161 236.286 673.67 218.209C678.179 200.132 688.978 184.252 704.133 173.416C719.288 162.579 737.806 157.494 756.37 159.072C774.934 160.65 792.328 168.788 805.436 182.027L749.73 237.18L827.332 226.094Z" fill="#DCE1FF" stroke="white" stroke-width="1.95975" stroke-linecap="round" stroke-linejoin="round" mask="url(#path-79-inside-4_8_2292)"/>
<mask id="path-80-inside-5_8_2292" fill="white">
<path d="M753.7 315.47C742.303 316.047 730.917 314.13 720.338 309.851C709.759 305.572 700.241 299.035 692.45 290.697C684.66 282.358 678.783 272.419 675.232 261.574C671.681 250.729 670.54 239.239 671.89 227.908L749.73 237.18L753.7 315.47Z"/>
</mask>
<path d="M753.7 315.47C742.303 316.047 730.917 314.13 720.338 309.851C709.759 305.572 700.241 299.035 692.45 290.697C684.66 282.358 678.783 272.419 675.232 261.574C671.681 250.729 670.54 239.239 671.89 227.908L749.73 237.18L753.7 315.47Z" fill="#D6DBFF" stroke="white" stroke-width="1.95975" stroke-linecap="round" stroke-linejoin="round" mask="url(#path-80-inside-5_8_2292)"/>
<mask id="path-81-inside-6_8_2292" fill="white">
<path d="M827.375 226.402C828.891 237.322 828.087 248.439 825.014 259.027C821.942 269.615 816.67 279.436 809.544 287.848C802.418 296.261 793.598 303.075 783.659 307.847C773.72 312.619 762.887 315.241 751.866 315.541L749.73 237.18L827.375 226.402Z"/>
</mask>
<path d="M827.375 226.402C828.891 237.322 828.087 248.439 825.014 259.027C821.942 269.615 816.67 279.436 809.544 287.848C802.418 296.261 793.598 303.075 783.659 307.847C773.72 312.619 762.887 315.241 751.866 315.541L749.73 237.18L827.375 226.402Z" fill="#C9D0FF" stroke="white" stroke-width="1.95975" stroke-linecap="round" stroke-linejoin="round" mask="url(#path-81-inside-6_8_2292)"/>
<mask id="path-82-inside-7_8_2292" fill="white">
<path d="M815.724 194.874C810.168 186.207 802.96 178.72 794.51 172.84C786.061 166.959 776.536 162.8 766.48 160.6L749.73 237.18L815.724 194.874Z"/>
</mask>
<path d="M815.724 194.874C810.168 186.207 802.96 178.72 794.51 172.84C786.061 166.959 776.536 162.8 766.48 160.6L749.73 237.18L815.724 194.874Z" fill="#E3E7FF" stroke="white" stroke-width="1.95975" stroke-linecap="round" stroke-linejoin="round" mask="url(#path-82-inside-7_8_2292)"/>
<circle cx="698.363" cy="342.663" r="1.61917" fill="#C9D0FF"/>
<rect x="703.221" y="339.983" width="23.45" height="5.36" rx="2.68" fill="#C9D0FF"/>
<circle cx="736.386" cy="342.663" r="1.61917" fill="#C9D0FF"/>
<rect x="741.243" y="339.983" width="23.45" height="5.36" rx="2.68" fill="#C9D0FF"/>
<circle cx="774.408" cy="342.663" r="1.61917" fill="#C9D0FF"/>
<rect x="779.266" y="339.983" width="23.45" height="5.36" rx="2.68" fill="#C9D0FF"/>
<circle cx="717.375" cy="354.723" r="1.61917" fill="#C9D0FF"/>
<rect x="722.232" y="352.043" width="23.45" height="5.36" rx="2.68" fill="#C9D0FF"/>
<circle cx="755.397" cy="354.723" r="1.61917" fill="#C9D0FF"/>
<rect x="760.255" y="352.043" width="23.45" height="5.36" rx="2.68" fill="#C9D0FF"/>
<rect x="665.31" y="118.59" width="121.27" height="8.04" rx="4.02" fill="#C9D0FF"/>
<rect x="665.31" y="131.99" width="56.28" height="8.04" rx="4.02" fill="#C9D0FF"/>
<rect x="82.5216" y="64.7667" width="64.4231" height="8.375" rx="4.1875" fill="#C9D0FF"/>
<rect x="229.81" y="395.3" width="617.07" height="222.44" rx="21.0365" fill="white"/>
<line x1="550.065" y1="466.924" x2="550.065" y2="584.127" stroke="#C6C6C6" stroke-width="0.400695" stroke-dasharray="2.5 2.5"/>
<rect x="246.56" y="409.564" width="8.375" height="8.375" rx="4.1875" fill="#C9D0FF"/>
<rect x="264.315" y="409.731" width="109.21" height="8.04" rx="4.02" fill="#C9D0FF"/>
<rect x="771.17" y="409.731" width="53.6" height="8.04" rx="4.02" fill="#C9D0FF"/>
<line x1="266.749" y1="586.111" x2="266.749" y2="438.856" stroke="#C6C6C6" stroke-width="0.250434"/>
<line x1="259.361" y1="571.962" x2="830.852" y2="571.962" stroke="#C9D0FF" stroke-width="0.250434"/>
<line x1="266.874" y1="537.878" x2="830.852" y2="537.878" stroke="#C9D0FF" stroke-width="0.300521" stroke-dasharray="2.5 2.5"/>
<line x1="266.874" y1="504.82" x2="830.852" y2="504.82" stroke="#C9D0FF" stroke-width="0.300521" stroke-dasharray="2.5 2.5"/>
<line x1="266.874" y1="471.763" x2="830.852" y2="471.763" stroke="#C9D0FF" stroke-width="0.300521" stroke-dasharray="2.5 2.5"/>
<line x1="266.874" y1="438.706" x2="830.852" y2="438.706" stroke="#C9D0FF" stroke-width="0.300521" stroke-dasharray="2.5 2.5"/>
<rect x="270.224" y="578.097" width="20.1" height="6.7" rx="3.35" fill="#C9D0FF"/>
<rect x="539.757" y="578.097" width="20.1" height="6.7" rx="3.35" fill="#C9D0FF"/>
<rect x="809.816" y="578.097" width="20.1" height="6.7" rx="3.35" fill="#C9D0FF"/>
<path d="M251.325 573.142C250.977 573.142 250.658 573.044 250.367 572.847C250.081 572.651 249.854 572.374 249.684 572.016C249.514 571.654 249.429 571.23 249.429 570.743C249.429 570.256 249.512 569.834 249.677 569.477C249.847 569.12 250.075 568.845 250.361 568.653C250.646 568.456 250.961 568.358 251.305 568.358C251.658 568.358 251.977 568.456 252.263 568.653C252.549 568.845 252.775 569.12 252.94 569.477C253.11 569.834 253.195 570.259 253.195 570.75C253.195 571.237 253.11 571.661 252.94 572.023C252.775 572.38 252.549 572.657 252.263 572.854C251.982 573.046 251.669 573.142 251.325 573.142ZM251.312 572.546C251.558 572.546 251.772 572.479 251.955 572.345C252.143 572.206 252.29 572.003 252.397 571.735C252.505 571.467 252.558 571.136 252.558 570.743C252.558 570.35 252.505 570.022 252.397 569.758C252.29 569.49 252.143 569.289 251.955 569.155C251.768 569.017 251.551 568.948 251.305 568.948C251.064 568.948 250.85 569.017 250.662 569.155C250.474 569.289 250.327 569.49 250.22 569.758C250.117 570.022 250.066 570.35 250.066 570.743C250.066 571.136 250.117 571.467 250.22 571.735C250.327 572.003 250.474 572.206 250.662 572.345C250.85 572.479 251.066 572.546 251.312 572.546Z" fill="#C9D0FF"/>
<path d="M251.672 540.084C251.364 540.084 251.091 540.026 250.854 539.91C250.622 539.794 250.441 539.633 250.312 539.428C250.182 539.222 250.117 538.99 250.117 538.731C250.117 538.521 250.158 538.329 250.238 538.155C250.318 537.981 250.437 537.833 250.593 537.713C250.75 537.588 250.933 537.498 251.143 537.445L251.163 537.626C250.984 537.576 250.832 537.498 250.707 537.391C250.582 537.279 250.486 537.15 250.419 537.002C250.356 536.851 250.325 536.69 250.325 536.52C250.325 536.279 250.383 536.067 250.499 535.884C250.616 535.7 250.774 535.558 250.975 535.455C251.181 535.348 251.413 535.294 251.672 535.294C251.935 535.294 252.168 535.348 252.369 535.455C252.57 535.558 252.728 535.7 252.844 535.884C252.961 536.067 253.019 536.279 253.019 536.52C253.019 536.69 252.985 536.851 252.918 537.002C252.856 537.15 252.762 537.279 252.637 537.391C252.516 537.498 252.366 537.576 252.188 537.626L252.201 537.445C252.416 537.498 252.599 537.588 252.751 537.713C252.907 537.833 253.025 537.981 253.106 538.155C253.191 538.329 253.233 538.521 253.233 538.731C253.233 538.99 253.168 539.222 253.039 539.428C252.909 539.633 252.726 539.794 252.489 539.91C252.257 540.026 251.985 540.084 251.672 540.084ZM251.672 539.515C251.859 539.515 252.023 539.479 252.161 539.408C252.304 539.332 252.416 539.229 252.496 539.1C252.581 538.97 252.623 538.82 252.623 538.651C252.623 538.485 252.581 538.338 252.496 538.208C252.416 538.079 252.304 537.978 252.161 537.907C252.023 537.831 251.859 537.793 251.672 537.793C251.489 537.793 251.326 537.831 251.183 537.907C251.04 537.978 250.926 538.079 250.841 538.208C250.761 538.338 250.72 538.485 250.72 538.651C250.72 538.82 250.761 538.97 250.841 539.1C250.926 539.229 251.04 539.332 251.183 539.408C251.326 539.479 251.489 539.515 251.672 539.515ZM251.672 537.304C251.895 537.304 252.078 537.235 252.221 537.096C252.364 536.958 252.436 536.779 252.436 536.56C252.436 536.346 252.364 536.172 252.221 536.038C252.078 535.899 251.895 535.83 251.672 535.83C251.453 535.83 251.272 535.899 251.129 536.038C250.986 536.172 250.915 536.346 250.915 536.56C250.915 536.779 250.986 536.958 251.129 537.096C251.272 537.235 251.453 537.304 251.672 537.304Z" fill="#C9D0FF"/>
<path d="M248.562 506.96V502.31H249.185V506.96H248.562ZM247.611 502.873V502.31H249.118V502.873H247.611ZM251.615 507.027C251.307 507.027 251.03 506.956 250.785 506.813C250.543 506.67 250.351 506.478 250.208 506.237C250.065 505.995 249.994 505.727 249.994 505.433C249.994 505.022 250.137 504.613 250.423 504.207L251.79 502.31H252.52L251.12 504.22L250.892 504.341C250.945 504.247 251.01 504.169 251.086 504.106C251.162 504.039 251.256 503.988 251.367 503.952C251.479 503.916 251.611 503.898 251.763 503.898C252.035 503.898 252.281 503.963 252.5 504.093C252.723 504.222 252.902 504.401 253.036 504.629C253.174 504.852 253.243 505.113 253.243 505.413C253.243 505.707 253.17 505.978 253.022 506.223C252.879 506.469 252.683 506.665 252.433 506.813C252.187 506.956 251.915 507.027 251.615 507.027ZM251.615 506.438C251.803 506.438 251.97 506.393 252.118 506.304C252.27 506.21 252.388 506.087 252.473 505.935C252.562 505.779 252.607 505.605 252.607 505.413C252.607 505.22 252.562 505.049 252.473 504.897C252.388 504.74 252.27 504.617 252.118 504.528C251.97 504.439 251.803 504.394 251.615 504.394C251.428 504.394 251.258 504.439 251.106 504.528C250.959 504.617 250.84 504.74 250.751 504.897C250.666 505.049 250.624 505.22 250.624 505.413C250.624 505.605 250.666 505.779 250.751 505.935C250.84 506.091 250.959 506.214 251.106 506.304C251.258 506.393 251.428 506.438 251.615 506.438Z" fill="#C9D0FF"/>
<path d="M245.766 473.521L247.482 471.712C247.656 471.533 247.792 471.379 247.89 471.25C247.988 471.116 248.058 470.993 248.098 470.881C248.143 470.769 248.165 470.653 248.165 470.533C248.165 470.296 248.089 470.111 247.937 469.977C247.785 469.843 247.589 469.776 247.348 469.776C247.111 469.776 246.903 469.834 246.724 469.95C246.546 470.062 246.387 470.236 246.249 470.472L245.807 470.104C245.99 469.8 246.211 469.572 246.47 469.421C246.729 469.264 247.028 469.186 247.368 469.186C247.653 469.186 247.901 469.242 248.111 469.354C248.326 469.465 248.491 469.622 248.607 469.823C248.723 470.024 248.781 470.258 248.781 470.526C248.781 470.718 248.757 470.89 248.708 471.042C248.663 471.194 248.58 471.35 248.46 471.511C248.344 471.667 248.181 471.855 247.971 472.074L246.584 473.501L245.766 473.521ZM245.766 473.903V473.521L246.302 473.34H248.889V473.903H245.766ZM249.391 472.302L251.086 469.253H251.796L250.068 472.302H249.391ZM249.391 472.69V472.302L249.659 472.127H252.956V472.69H249.391ZM251.662 473.903V470.828H252.286V473.903H251.662Z" fill="#C9D0FF"/>
<path d="M248.1 440.913C247.796 440.913 247.52 440.857 247.269 440.745C247.024 440.629 246.816 440.461 246.646 440.243L247.075 439.814C247.178 439.97 247.319 440.095 247.497 440.189C247.676 440.278 247.875 440.323 248.094 440.323C248.299 440.323 248.475 440.285 248.623 440.209C248.775 440.129 248.893 440.017 248.978 439.874C249.067 439.731 249.112 439.566 249.112 439.378C249.112 439.186 249.067 439.021 248.978 438.882C248.893 438.74 248.772 438.63 248.616 438.554C248.46 438.478 248.274 438.44 248.06 438.44C247.98 438.44 247.899 438.447 247.819 438.46C247.738 438.469 247.66 438.485 247.584 438.507L247.852 438.145C247.937 438.105 248.029 438.074 248.127 438.052C248.225 438.029 248.324 438.018 248.422 438.018C248.672 438.018 248.895 438.076 249.092 438.192C249.293 438.308 249.451 438.472 249.568 438.681C249.688 438.891 249.748 439.135 249.748 439.412C249.748 439.707 249.677 439.968 249.534 440.196C249.396 440.419 249.203 440.595 248.958 440.725C248.712 440.85 248.426 440.913 248.1 440.913ZM247.584 438.507V438.125L248.944 436.578L249.695 436.571L248.295 438.159L247.584 438.507ZM246.867 436.759V436.196H249.695V436.571L249.145 436.759H246.867ZM250.272 440.464L251.987 438.655C252.161 438.476 252.297 438.322 252.395 438.192C252.494 438.058 252.563 437.936 252.603 437.824C252.648 437.712 252.67 437.596 252.67 437.475C252.67 437.239 252.594 437.053 252.442 436.919C252.291 436.785 252.094 436.718 251.853 436.718C251.616 436.718 251.408 436.776 251.23 436.893C251.051 437.004 250.892 437.178 250.754 437.415L250.312 437.047C250.495 436.743 250.716 436.515 250.975 436.363C251.234 436.207 251.533 436.129 251.873 436.129C252.159 436.129 252.407 436.185 252.617 436.296C252.831 436.408 252.996 436.564 253.112 436.765C253.229 436.966 253.287 437.201 253.287 437.469C253.287 437.661 253.262 437.833 253.213 437.985C253.168 438.137 253.086 438.293 252.965 438.454C252.849 438.61 252.686 438.798 252.476 439.016L251.089 440.444L250.272 440.464ZM250.272 440.846V440.464L250.808 440.283H253.394V440.846H250.272Z" fill="#C9D0FF"/>
<line x1="259.361" y1="537.777" x2="266.874" y2="537.777" stroke="#C9D0FF" stroke-width="0.500868"/>
<line x1="259.361" y1="504.72" x2="266.874" y2="504.72" stroke="#C9D0FF" stroke-width="0.500868"/>
<line x1="259.361" y1="471.663" x2="266.874" y2="471.663" stroke="#C9D0FF" stroke-width="0.500868"/>
<line x1="259.361" y1="438.605" x2="266.874" y2="438.605" stroke="#C9D0FF" stroke-width="0.500868"/>
<path d="M263.702 504.971C263.702 506.446 264.898 507.642 266.373 507.642C267.849 507.642 269.045 506.446 269.045 504.971C269.045 503.495 267.849 502.299 266.373 502.299C264.898 502.299 263.702 503.495 263.702 504.971ZM827.93 512.233C827.93 513.709 829.126 514.905 830.602 514.905C832.077 514.905 833.273 513.709 833.273 512.233C833.273 510.758 832.077 509.562 830.602 509.562C829.126 509.562 827.93 510.758 827.93 512.233ZM266.373 504.971L266.253 505.457C365.965 530.259 618.444 566.44 830.725 512.719L830.602 512.233L830.479 511.748C618.424 565.412 366.128 529.268 266.494 504.485L266.373 504.971Z" fill="#C9D0FF"/>
<path d="M263.702 494.953C263.702 496.429 264.898 497.625 266.373 497.625C267.849 497.625 269.045 496.429 269.045 494.953C269.045 493.478 267.849 492.282 266.373 492.282C264.898 492.282 263.702 493.478 263.702 494.953ZM827.93 502.216C827.93 503.691 829.126 504.887 830.602 504.887C832.077 504.887 833.273 503.691 833.273 502.216C833.273 500.74 832.077 499.545 830.602 499.545C829.126 499.545 827.93 500.74 827.93 502.216ZM266.373 494.953L266.253 495.439C291.224 501.651 326.735 505.001 368.99 506.59C411.252 508.179 460.294 508.007 512.339 507.162C616.443 505.471 732.559 501.089 830.593 502.717L830.602 502.216L830.61 501.715C732.554 500.087 616.393 504.47 512.323 506.16C460.282 507.005 411.262 507.177 369.027 505.589C326.784 504.001 291.36 500.652 266.494 494.467L266.373 494.953Z" fill="#C9D0FF"/>
<path d="M263.702 484.936C263.702 486.411 264.898 487.607 266.373 487.607C267.849 487.607 269.045 486.411 269.045 484.936C269.045 483.461 267.849 482.265 266.373 482.265C264.898 482.265 263.702 483.461 263.702 484.936ZM827.93 492.199C827.93 493.674 829.126 494.87 830.602 494.87C832.077 494.87 833.273 493.674 833.273 492.199C833.273 490.723 832.077 489.527 830.602 489.527C829.126 489.527 827.93 490.723 827.93 492.199ZM266.373 484.936L266.186 485.4C295.401 497.212 329.376 499.384 367.841 497.065C406.302 494.748 449.323 487.934 496.619 481.739C591.235 469.344 703.1 459.401 830.475 492.683L830.602 492.199L830.728 491.714C703.161 458.381 591.139 468.347 496.489 480.745C449.152 486.946 406.195 493.75 367.781 496.066C329.371 498.38 295.572 496.201 266.561 484.472L266.373 484.936Z" fill="#C9D0FF"/>
<path d="M263.702 474.918C263.702 476.394 264.898 477.589 266.373 477.589C267.849 477.589 269.045 476.394 269.045 474.918C269.045 473.443 267.849 472.247 266.373 472.247C264.898 472.247 263.702 473.443 263.702 474.918ZM827.93 482.181C827.93 483.656 829.126 484.852 830.602 484.852C832.077 484.852 833.273 483.656 833.273 482.181C833.273 480.705 832.077 479.51 830.602 479.51C829.126 479.51 827.93 480.705 827.93 482.181ZM266.373 474.918L266.561 475.383C362.331 436.75 461.123 449.554 557.134 466.552C653.09 483.541 746.324 504.738 830.729 482.665L830.602 482.181L830.475 481.696C746.337 503.7 653.374 482.574 557.309 465.566C461.3 448.568 362.248 435.703 266.186 474.454L266.373 474.918Z" fill="#C9D0FF"/>
<path d="M263.702 464.901C263.702 466.376 264.898 467.572 266.373 467.572C267.849 467.572 269.045 466.376 269.045 464.901C269.045 463.426 267.849 462.23 266.373 462.23C264.898 462.23 263.702 463.426 263.702 464.901ZM827.93 472.164C827.93 473.639 829.126 474.835 830.602 474.835C832.077 474.835 833.273 473.639 833.273 472.164C833.273 470.688 832.077 469.492 830.602 469.492C829.126 469.492 827.93 470.688 827.93 472.164ZM266.373 464.901L266.111 465.328C281.985 475.092 310.189 482.458 347.247 487.522C384.327 492.589 430.343 495.36 481.898 495.892C585.01 496.957 710.314 489.066 830.669 472.66L830.602 472.164L830.534 471.667C710.223 488.068 584.967 495.955 481.909 494.891C430.379 494.359 384.407 491.589 347.382 486.529C310.335 481.466 282.316 474.119 266.636 464.475L266.373 464.901Z" fill="#C9D0FF"/>
<path d="M263.702 454.884C263.702 456.359 264.898 457.555 266.373 457.555C267.849 457.555 269.045 456.359 269.045 454.884C269.045 453.409 267.849 452.213 266.373 452.213C264.898 452.213 263.702 453.409 263.702 454.884ZM827.93 462.146C827.93 463.622 829.126 464.818 830.602 464.818C832.077 464.818 833.273 463.622 833.273 462.146C833.273 460.671 832.077 459.475 830.602 459.475C829.126 459.475 827.93 460.671 827.93 462.146ZM266.373 454.884L266.462 455.377C431.153 425.843 549.22 448.241 637.597 467.738C681.771 477.483 718.595 486.521 750.096 487.96C781.629 489.4 807.896 483.23 830.937 462.519L830.602 462.146L830.267 461.774C807.478 482.259 781.498 488.391 750.141 486.959C718.751 485.526 682.042 476.517 637.813 466.76C549.383 447.252 431.166 424.823 266.285 454.391L266.373 454.884Z" fill="#C9D0FF"/>
<circle cx="549.865" cy="450.376" r="2.75478" fill="white" stroke="#C9D0FF" stroke-width="2.50434"/>
<circle cx="549.865" cy="464.901" r="2.75478" fill="white" stroke="#C9D0FF" stroke-width="2.50434"/>
<circle cx="549.865" cy="474.919" r="2.75478" fill="white" stroke="#C9D0FF" stroke-width="2.50434"/>
<circle cx="549.865" cy="494.953" r="2.75478" fill="white" stroke="#C9D0FF" stroke-width="2.50434"/>
<circle cx="549.865" cy="505.972" r="2.75478" fill="white" stroke="#C9D0FF" stroke-width="2.50434"/>
<circle cx="549.865" cy="540.031" r="2.75478" fill="white" stroke="#C9D0FF" stroke-width="2.50434"/>
<circle cx="415.687" cy="604.637" r="2.00347" fill="#C9D0FF"/>
<rect x="421.697" y="601.287" width="20.1" height="6.7" rx="3.35" fill="#C9D0FF"/>
<circle cx="459.829" cy="604.637" r="2.00347" fill="#C9D0FF"/>
<rect x="465.839" y="601.287" width="20.1" height="6.7" rx="3.35" fill="#C9D0FF"/>
<circle cx="503.97" cy="604.637" r="2.00347" fill="#C9D0FF"/>
<rect x="509.981" y="601.287" width="20.1" height="6.7" rx="3.35" fill="#C9D0FF"/>
<circle cx="548.112" cy="604.637" r="2.00347" fill="#C9D0FF"/>
<rect x="554.122" y="601.287" width="20.1" height="6.7" rx="3.35" fill="#C9D0FF"/>
<circle cx="592.254" cy="604.637" r="2.00347" fill="#C9D0FF"/>
<rect x="598.264" y="601.287" width="20.1" height="6.7" rx="3.35" fill="#C9D0FF"/>
<circle cx="636.395" cy="604.637" r="2.00347" fill="#C9D0FF"/>
<rect x="642.406" y="601.287" width="20.1" height="6.7" rx="3.35" fill="#C9D0FF"/>
</g>
</g>
<defs>
<filter id="filter0_d_8_2292" x="3.43323e-05" y="-9.53674e-07" width="916.56" height="700.15" filterUnits="userSpaceOnUse" color-interpolation-filters="sRGB">
<feFlood flood-opacity="0" result="BackgroundImageFix"/>
<feColorMatrix in="SourceAlpha" type="matrix" values="0 0 0 0 0 0 0 0 0 0 0 0 0 0 0 0 0 0 127 0" result="hardAlpha"/>
<feOffset dy="9.38"/>
<feGaussianBlur stdDeviation="28.14"/>
<feComposite in2="hardAlpha" operator="out"/>
<feColorMatrix type="matrix" values="0 0 0 0 0.900625 0 0 0 0 0.8875 0 0 0 0 1 0 0 0 1 0"/>
<feBlend mode="normal" in2="BackgroundImageFix" result="effect1_dropShadow_8_2292"/>
<feBlend mode="normal" in="SourceGraphic" in2="effect1_dropShadow_8_2292" result="shape"/>
</filter>
<linearGradient id="paint0_linear_8_2292" x1="305.233" y1="158.12" x2="304.201" y2="377.162" gradientUnits="userSpaceOnUse">
<stop stop-color="#C9D0FF"/>
<stop offset="1" stop-color="white"/>
</linearGradient>
<linearGradient id="paint1_linear_8_2292" x1="354.238" y1="184.92" x2="353.471" y2="373.855" gradientUnits="userSpaceOnUse">
<stop stop-color="#C9D0FF"/>
<stop offset="1" stop-color="white"/>
</linearGradient>
<linearGradient id="paint2_linear_8_2292" x1="403.244" y1="247.9" x2="402.944" y2="366.079" gradientUnits="userSpaceOnUse">
<stop stop-color="#C9D0FF"/>
<stop offset="1" stop-color="white"/>
</linearGradient>
<linearGradient id="paint3_linear_8_2292" x1="452.25" y1="217.75" x2="451.753" y2="369.802" gradientUnits="userSpaceOnUse">
<stop stop-color="#C9D0FF"/>
<stop offset="1" stop-color="white"/>
</linearGradient>
<linearGradient id="paint4_linear_8_2292" x1="501.256" y1="293.46" x2="501.159" y2="360.454" gradientUnits="userSpaceOnUse">
<stop stop-color="#C9D0FF"/>
<stop offset="1" stop-color="white"/>
</linearGradient>
<linearGradient id="paint5_linear_8_2292" x1="550.262" y1="306.19" x2="550.202" y2="358.882" gradientUnits="userSpaceOnUse">
<stop stop-color="#C9D0FF"/>
<stop offset="1" stop-color="white"/>
</linearGradient>
<linearGradient id="paint6_linear_8_2292" x1="599.267" y1="279.39" x2="599.12" y2="362.191" gradientUnits="userSpaceOnUse">
<stop stop-color="#C9D0FF"/>
<stop offset="1" stop-color="white"/>
</linearGradient>
<clipPath id="clip0_8_2292">
<rect x="56.28" y="46.9" width="804" height="587.59" rx="8.04" fill="white"/>
</clipPath>
<clipPath id="clip1_8_2292">
<path d="M215.963 46.9H860.28V91.5667H215.963V46.9Z" fill="white"/>
</clipPath>
<clipPath id="clip2_8_2292">
<rect width="16.08" height="16.08" fill="white" transform="translate(817.231 61.64)"/>
</clipPath>
<clipPath id="clip3_8_2292">
<rect width="389.27" height="236.51" fill="white" transform="translate(244.55 152.09)"/>
</clipPath>
</defs>
</svg>
