<svg width="510" height="463" viewBox="0 0 510 463" fill="none" xmlns="http://www.w3.org/2000/svg">
<rect width="510" height="463" rx="42" fill="#F7F8FF"/>
<rect x="79.4805" y="73" width="367.403" height="328" rx="25.5584" fill="white"/>
<path d="M102.5 369.5L100.5 367.5M100.5 367.5L98.5 369.5M100.5 367.5V375.5M103.5 373.5L105.5 375.5M105.5 375.5L107.5 373.5M105.5 375.5V367.5" stroke="#5A35FF" stroke-linecap="round" stroke-linejoin="round"/>
<path d="M118.08 371.536V371.04H119.68C120.043 371.04 120.32 370.949 120.512 370.768C120.704 370.581 120.8 370.333 120.8 370.024C120.8 369.725 120.704 369.483 120.512 369.296C120.32 369.104 120.043 369.008 119.68 369.008H118.08V368.496H119.68C120.037 368.496 120.344 368.563 120.6 368.696C120.856 368.824 121.051 369.003 121.184 369.232C121.323 369.461 121.392 369.723 121.392 370.016C121.392 370.32 121.323 370.587 121.184 370.816C121.051 371.045 120.856 371.224 120.6 371.352C120.344 371.475 120.037 371.536 119.68 371.536H118.08ZM117.704 374V368.496H118.288V374H117.704ZM121.032 374L118.968 371.456L119.536 371.272L121.784 374H121.032ZM124.124 374.08C123.746 374.08 123.407 373.995 123.108 373.824C122.81 373.653 122.572 373.419 122.396 373.12C122.226 372.821 122.14 372.485 122.14 372.112C122.14 371.744 122.226 371.413 122.396 371.12C122.567 370.821 122.799 370.587 123.092 370.416C123.386 370.245 123.714 370.16 124.076 370.16C124.418 370.16 124.719 370.237 124.98 370.392C125.247 370.547 125.455 370.763 125.604 371.04C125.759 371.312 125.836 371.627 125.836 371.984C125.836 372.027 125.834 372.077 125.828 372.136C125.823 372.189 125.812 372.253 125.796 372.328H122.54V371.848H125.492L125.292 372.024C125.298 371.747 125.25 371.509 125.148 371.312C125.052 371.109 124.911 370.955 124.724 370.848C124.543 370.736 124.322 370.68 124.06 370.68C123.788 370.68 123.551 370.739 123.348 370.856C123.146 370.973 122.986 371.139 122.868 371.352C122.756 371.56 122.7 371.808 122.7 372.096C122.7 372.384 122.759 372.637 122.876 372.856C122.999 373.075 123.167 373.245 123.38 373.368C123.599 373.491 123.85 373.552 124.132 373.552C124.362 373.552 124.572 373.512 124.764 373.432C124.956 373.347 125.119 373.221 125.252 373.056L125.612 373.424C125.436 373.632 125.218 373.795 124.956 373.912C124.7 374.024 124.423 374.08 124.124 374.08ZM127.943 374L126.207 370.24H126.831L128.295 373.528H127.943L129.415 370.24H130.023L128.271 374H127.943ZM132.296 374.08C131.918 374.08 131.579 373.995 131.28 373.824C130.982 373.653 130.744 373.419 130.568 373.12C130.398 372.821 130.312 372.485 130.312 372.112C130.312 371.744 130.398 371.413 130.568 371.12C130.739 370.821 130.971 370.587 131.264 370.416C131.558 370.245 131.886 370.16 132.248 370.16C132.59 370.16 132.891 370.237 133.152 370.392C133.419 370.547 133.627 370.763 133.776 371.04C133.931 371.312 134.008 371.627 134.008 371.984C134.008 372.027 134.006 372.077 134 372.136C133.995 372.189 133.984 372.253 133.968 372.328H130.712V371.848H133.664L133.464 372.024C133.47 371.747 133.422 371.509 133.32 371.312C133.224 371.109 133.083 370.955 132.896 370.848C132.715 370.736 132.494 370.68 132.232 370.68C131.96 370.68 131.723 370.739 131.52 370.856C131.318 370.973 131.158 371.139 131.04 371.352C130.928 371.56 130.872 371.808 130.872 372.096C130.872 372.384 130.931 372.637 131.048 372.856C131.171 373.075 131.339 373.245 131.552 373.368C131.771 373.491 132.022 373.552 132.304 373.552C132.534 373.552 132.744 373.512 132.936 373.432C133.128 373.347 133.291 373.221 133.424 373.056L133.784 373.424C133.608 373.632 133.39 373.795 133.128 373.912C132.872 374.024 132.595 374.08 132.296 374.08ZM134.865 374V370.24H135.425V374H134.865ZM135.425 371.808L135.193 371.704C135.193 371.229 135.308 370.853 135.537 370.576C135.772 370.299 136.092 370.16 136.497 370.16C136.684 370.16 136.854 370.195 137.009 370.264C137.164 370.328 137.308 370.432 137.441 370.576L137.073 370.968C136.982 370.867 136.881 370.795 136.769 370.752C136.662 370.709 136.54 370.688 136.401 370.688C136.113 370.688 135.878 370.784 135.697 370.976C135.516 371.163 135.425 371.44 135.425 371.808ZM139.103 374.08C138.9 374.08 138.705 374.053 138.519 374C138.332 373.941 138.161 373.861 138.007 373.76C137.857 373.659 137.727 373.539 137.615 373.4L137.975 373.032C138.124 373.213 138.292 373.349 138.479 373.44C138.671 373.525 138.884 373.568 139.119 373.568C139.369 373.568 139.564 373.52 139.703 373.424C139.847 373.328 139.919 373.195 139.919 373.024C139.919 372.864 139.868 372.739 139.767 372.648C139.665 372.557 139.535 372.485 139.375 372.432C139.22 372.379 139.055 372.328 138.879 372.28C138.703 372.227 138.535 372.163 138.375 372.088C138.215 372.008 138.084 371.899 137.983 371.76C137.887 371.621 137.839 371.44 137.839 371.216C137.839 371.003 137.889 370.819 137.991 370.664C138.097 370.504 138.247 370.381 138.439 370.296C138.636 370.205 138.868 370.16 139.135 370.16C139.417 370.16 139.673 370.211 139.903 370.312C140.132 370.413 140.316 370.563 140.455 370.76L140.095 371.12C139.983 370.976 139.841 370.867 139.671 370.792C139.505 370.712 139.319 370.672 139.111 370.672C138.871 370.672 138.687 370.72 138.559 370.816C138.436 370.907 138.375 371.027 138.375 371.176C138.375 371.32 138.425 371.435 138.527 371.52C138.628 371.6 138.756 371.667 138.911 371.72C139.071 371.768 139.239 371.819 139.415 371.872C139.591 371.92 139.759 371.987 139.919 372.072C140.079 372.152 140.207 372.264 140.303 372.408C140.404 372.547 140.455 372.736 140.455 372.976C140.455 373.312 140.332 373.581 140.087 373.784C139.847 373.981 139.519 374.08 139.103 374.08ZM143.077 374.08C142.699 374.08 142.36 373.995 142.061 373.824C141.763 373.653 141.525 373.419 141.349 373.12C141.179 372.821 141.093 372.485 141.093 372.112C141.093 371.744 141.179 371.413 141.349 371.12C141.52 370.821 141.752 370.587 142.045 370.416C142.339 370.245 142.667 370.16 143.029 370.16C143.371 370.16 143.672 370.237 143.933 370.392C144.2 370.547 144.408 370.763 144.557 371.04C144.712 371.312 144.789 371.627 144.789 371.984C144.789 372.027 144.787 372.077 144.781 372.136C144.776 372.189 144.765 372.253 144.749 372.328H141.493V371.848H144.445L144.245 372.024C144.251 371.747 144.203 371.509 144.101 371.312C144.005 371.109 143.864 370.955 143.677 370.848C143.496 370.736 143.275 370.68 143.013 370.68C142.741 370.68 142.504 370.739 142.301 370.856C142.099 370.973 141.939 371.139 141.821 371.352C141.709 371.56 141.653 371.808 141.653 372.096C141.653 372.384 141.712 372.637 141.829 372.856C141.952 373.075 142.12 373.245 142.333 373.368C142.552 373.491 142.803 373.552 143.085 373.552C143.315 373.552 143.525 373.512 143.717 373.432C143.909 373.347 144.072 373.221 144.205 373.056L144.565 373.424C144.389 373.632 144.171 373.795 143.909 373.912C143.653 374.024 143.376 374.08 143.077 374.08ZM148.997 374.08C148.64 374.08 148.32 373.995 148.037 373.824C147.754 373.648 147.53 373.413 147.365 373.12C147.205 372.827 147.125 372.496 147.125 372.128C147.125 371.755 147.205 371.421 147.365 371.128C147.53 370.829 147.754 370.595 148.037 370.424C148.32 370.248 148.637 370.16 148.989 370.16C149.277 370.16 149.533 370.219 149.757 370.336C149.986 370.448 150.17 370.608 150.309 370.816C150.453 371.019 150.541 371.256 150.573 371.528V372.704C150.541 372.976 150.453 373.216 150.309 373.424C150.17 373.632 149.986 373.795 149.757 373.912C149.533 374.024 149.28 374.08 148.997 374.08ZM149.085 373.544C149.474 373.544 149.786 373.413 150.021 373.152C150.261 372.891 150.381 372.547 150.381 372.12C150.381 371.837 150.325 371.589 150.213 371.376C150.106 371.157 149.954 370.989 149.757 370.872C149.565 370.749 149.338 370.688 149.077 370.688C148.81 370.688 148.573 370.749 148.365 370.872C148.162 370.995 148 371.165 147.877 371.384C147.76 371.597 147.701 371.843 147.701 372.12C147.701 372.397 147.76 372.643 147.877 372.856C148 373.069 148.165 373.237 148.373 373.36C148.581 373.483 148.818 373.544 149.085 373.544ZM150.349 374V372.992L150.461 372.064L150.349 371.16V370.24H150.909V374H150.349ZM154.781 374V371.792C154.781 371.461 154.682 371.195 154.485 370.992C154.293 370.784 154.037 370.68 153.717 370.68C153.498 370.68 153.306 370.728 153.141 370.824C152.975 370.92 152.845 371.051 152.749 371.216C152.653 371.381 152.605 371.571 152.605 371.784L152.349 371.64C152.349 371.357 152.415 371.104 152.549 370.88C152.682 370.656 152.861 370.48 153.085 370.352C153.314 370.224 153.575 370.16 153.869 370.16C154.157 370.16 154.413 370.229 154.637 370.368C154.861 370.507 155.034 370.693 155.157 370.928C155.285 371.163 155.349 371.419 155.349 371.696V374H154.781ZM152.045 374V370.24H152.605V374H152.045ZM157.548 374.08C157.345 374.08 157.151 374.053 156.964 374C156.777 373.941 156.607 373.861 156.452 373.76C156.303 373.659 156.172 373.539 156.06 373.4L156.42 373.032C156.569 373.213 156.737 373.349 156.924 373.44C157.116 373.525 157.329 373.568 157.564 373.568C157.815 373.568 158.009 373.52 158.148 373.424C158.292 373.328 158.364 373.195 158.364 373.024C158.364 372.864 158.313 372.739 158.212 372.648C158.111 372.557 157.98 372.485 157.82 372.432C157.665 372.379 157.5 372.328 157.324 372.28C157.148 372.227 156.98 372.163 156.82 372.088C156.66 372.008 156.529 371.899 156.428 371.76C156.332 371.621 156.284 371.44 156.284 371.216C156.284 371.003 156.335 370.819 156.436 370.664C156.543 370.504 156.692 370.381 156.884 370.296C157.081 370.205 157.313 370.16 157.58 370.16C157.863 370.16 158.119 370.211 158.348 370.312C158.577 370.413 158.761 370.563 158.9 370.76L158.54 371.12C158.428 370.976 158.287 370.867 158.116 370.792C157.951 370.712 157.764 370.672 157.556 370.672C157.316 370.672 157.132 370.72 157.004 370.816C156.881 370.907 156.82 371.027 156.82 371.176C156.82 371.32 156.871 371.435 156.972 371.52C157.073 371.6 157.201 371.667 157.356 371.72C157.516 371.768 157.684 371.819 157.86 371.872C158.036 371.92 158.204 371.987 158.364 372.072C158.524 372.152 158.652 372.264 158.748 372.408C158.849 372.547 158.9 372.736 158.9 372.976C158.9 373.312 158.777 373.581 158.532 373.784C158.292 373.981 157.964 374.08 157.548 374.08ZM160.835 374L159.387 370.24H159.971L161.115 373.36L160.907 373.368L162.043 370.24H162.371L163.507 373.368L163.299 373.36L164.435 370.24H165.027L163.571 374H163.243L162.083 370.92H162.323L161.171 374H160.835ZM167.367 374.08C166.988 374.08 166.649 373.995 166.351 373.824C166.052 373.653 165.815 373.419 165.639 373.12C165.468 372.821 165.383 372.485 165.383 372.112C165.383 371.744 165.468 371.413 165.639 371.12C165.809 370.821 166.041 370.587 166.335 370.416C166.628 370.245 166.956 370.16 167.319 370.16C167.66 370.16 167.961 370.237 168.223 370.392C168.489 370.547 168.697 370.763 168.847 371.04C169.001 371.312 169.079 371.627 169.079 371.984C169.079 372.027 169.076 372.077 169.071 372.136C169.065 372.189 169.055 372.253 169.039 372.328H165.783V371.848H168.735L168.535 372.024C168.54 371.747 168.492 371.509 168.391 371.312C168.295 371.109 168.153 370.955 167.967 370.848C167.785 370.736 167.564 370.68 167.303 370.68C167.031 370.68 166.793 370.739 166.591 370.856C166.388 370.973 166.228 371.139 166.111 371.352C165.999 371.56 165.943 371.808 165.943 372.096C165.943 372.384 166.001 372.637 166.118 372.856C166.241 373.075 166.409 373.245 166.623 373.368C166.841 373.491 167.092 373.552 167.375 373.552C167.604 373.552 167.815 373.512 168.007 373.432C168.199 373.347 168.361 373.221 168.495 373.056L168.855 373.424C168.679 373.632 168.46 373.795 168.199 373.912C167.943 374.024 167.665 374.08 167.367 374.08ZM169.935 374V370.24H170.495V374H169.935ZM170.495 371.808L170.263 371.704C170.263 371.229 170.378 370.853 170.607 370.576C170.842 370.299 171.162 370.16 171.567 370.16C171.754 370.16 171.925 370.195 172.079 370.264C172.234 370.328 172.378 370.432 172.511 370.576L172.143 370.968C172.053 370.867 171.951 370.795 171.839 370.752C171.733 370.709 171.61 370.688 171.471 370.688C171.183 370.688 170.949 370.784 170.767 370.976C170.586 371.163 170.495 371.44 170.495 371.808ZM176.67 374.08C176.308 374.08 175.977 373.992 175.678 373.816C175.385 373.64 175.15 373.403 174.974 373.104C174.804 372.805 174.718 372.472 174.718 372.104C174.718 371.741 174.804 371.413 174.974 371.12C175.15 370.827 175.385 370.595 175.678 370.424C175.977 370.248 176.308 370.16 176.67 370.16C177.038 370.16 177.369 370.245 177.662 370.416C177.956 370.587 178.188 370.821 178.358 371.12C178.534 371.413 178.622 371.741 178.622 372.104C178.622 372.477 178.534 372.813 178.358 373.112C178.188 373.405 177.956 373.64 177.662 373.816C177.369 373.992 177.038 374.08 176.67 374.08ZM176.67 373.536C176.937 373.536 177.172 373.475 177.374 373.352C177.582 373.229 177.745 373.059 177.862 372.84C177.985 372.621 178.046 372.376 178.046 372.104C178.046 371.832 177.985 371.592 177.862 371.384C177.745 371.171 177.582 371.003 177.374 370.88C177.172 370.757 176.937 370.696 176.67 370.696C176.409 370.696 176.174 370.757 175.966 370.88C175.758 371.003 175.596 371.171 175.478 371.384C175.361 371.592 175.302 371.832 175.302 372.104C175.302 372.381 175.361 372.629 175.478 372.848C175.596 373.061 175.758 373.229 175.966 373.352C176.174 373.475 176.409 373.536 176.67 373.536ZM179.513 374V370.24H180.073V374H179.513ZM180.073 371.808L179.841 371.704C179.841 371.229 179.956 370.853 180.185 370.576C180.42 370.299 180.74 370.16 181.145 370.16C181.332 370.16 181.503 370.195 181.657 370.264C181.812 370.328 181.956 370.432 182.089 370.576L181.721 370.968C181.631 370.867 181.529 370.795 181.417 370.752C181.311 370.709 181.188 370.688 181.049 370.688C180.761 370.688 180.527 370.784 180.345 370.976C180.164 371.163 180.073 371.44 180.073 371.808ZM184.152 374.08C183.806 374.08 183.494 373.995 183.216 373.824C182.939 373.653 182.718 373.421 182.552 373.128C182.392 372.829 182.312 372.496 182.312 372.128C182.312 371.755 182.392 371.421 182.552 371.128C182.718 370.829 182.939 370.595 183.216 370.424C183.494 370.248 183.806 370.16 184.152 370.16C184.435 370.16 184.691 370.216 184.92 370.328C185.15 370.44 185.339 370.6 185.488 370.808C185.643 371.011 185.734 371.251 185.76 371.528V372.704C185.728 372.976 185.638 373.216 185.488 373.424C185.344 373.627 185.158 373.787 184.928 373.904C184.699 374.021 184.44 374.08 184.152 374.08ZM184.248 373.544C184.51 373.544 184.739 373.485 184.936 373.368C185.134 373.245 185.288 373.077 185.4 372.864C185.512 372.645 185.568 372.397 185.568 372.12C185.568 371.837 185.51 371.589 185.392 371.376C185.28 371.163 185.126 370.995 184.928 370.872C184.731 370.749 184.502 370.688 184.24 370.688C183.979 370.688 183.747 370.749 183.544 370.872C183.342 370.995 183.182 371.165 183.064 371.384C182.952 371.597 182.896 371.843 182.896 372.12C182.896 372.397 182.952 372.645 183.064 372.864C183.182 373.077 183.342 373.245 183.544 373.368C183.752 373.485 183.987 373.544 184.248 373.544ZM186.096 374H185.536V372.992L185.648 372.064L185.536 371.16V368.336H186.096V374ZM188.968 374.08C188.589 374.08 188.251 373.995 187.952 373.824C187.653 373.653 187.416 373.419 187.24 373.12C187.069 372.821 186.984 372.485 186.984 372.112C186.984 371.744 187.069 371.413 187.24 371.12C187.411 370.821 187.643 370.587 187.936 370.416C188.229 370.245 188.557 370.16 188.92 370.16C189.261 370.16 189.563 370.237 189.824 370.392C190.091 370.547 190.299 370.763 190.448 371.04C190.603 371.312 190.68 371.627 190.68 371.984C190.68 372.027 190.677 372.077 190.672 372.136C190.667 372.189 190.656 372.253 190.64 372.328H187.384V371.848H190.336L190.136 372.024C190.141 371.747 190.093 371.509 189.992 371.312C189.896 371.109 189.755 370.955 189.568 370.848C189.387 370.736 189.165 370.68 188.904 370.68C188.632 370.68 188.395 370.739 188.192 370.856C187.989 370.973 187.829 371.139 187.712 371.352C187.6 371.56 187.544 371.808 187.544 372.096C187.544 372.384 187.603 372.637 187.72 372.856C187.843 373.075 188.011 373.245 188.224 373.368C188.443 373.491 188.693 373.552 188.976 373.552C189.205 373.552 189.416 373.512 189.608 373.432C189.8 373.347 189.963 373.221 190.096 373.056L190.456 373.424C190.28 373.632 190.061 373.795 189.8 373.912C189.544 374.024 189.267 374.08 188.968 374.08ZM191.537 374V370.24H192.097V374H191.537ZM192.097 371.808L191.865 371.704C191.865 371.229 191.979 370.853 192.209 370.576C192.443 370.299 192.763 370.16 193.169 370.16C193.355 370.16 193.526 370.195 193.681 370.264C193.835 370.328 193.979 370.432 194.113 370.576L193.745 370.968C193.654 370.867 193.553 370.795 193.441 370.752C193.334 370.709 193.211 370.688 193.073 370.688C192.785 370.688 192.55 370.784 192.369 370.976C192.187 371.163 192.097 371.44 192.097 371.808Z" fill="#5A35FF"/>
<g clip-path="url(#clip0_38_323)">
<path d="M319.805 377.05C322.818 377.05 325.26 374.608 325.26 371.595C325.26 368.583 322.818 366.141 319.805 366.141C316.793 366.141 314.351 368.583 314.351 371.595C314.351 374.608 316.793 377.05 319.805 377.05Z" stroke="#969696" stroke-width="0.8" stroke-linecap="round" stroke-linejoin="round"/>
<path d="M319.805 369.413V373.776" stroke="#969696" stroke-width="0.8" stroke-linecap="round" stroke-linejoin="round"/>
<path d="M317.624 371.594H321.987" stroke="#969696" stroke-width="0.8" stroke-linecap="round" stroke-linejoin="round"/>
</g>
<path d="M334.296 374L336.552 368.496H336.992L339.224 374H338.592L336.648 369.136H336.88L334.92 374H334.296ZM335.328 372.568V372.048H338.208V372.568H335.328ZM341.434 374.08C341.087 374.08 340.775 373.995 340.498 373.824C340.22 373.653 339.999 373.421 339.834 373.128C339.674 372.829 339.594 372.496 339.594 372.128C339.594 371.755 339.674 371.421 339.834 371.128C339.999 370.829 340.22 370.595 340.498 370.424C340.775 370.248 341.087 370.16 341.434 370.16C341.716 370.16 341.972 370.216 342.202 370.328C342.431 370.44 342.62 370.6 342.77 370.808C342.924 371.011 343.015 371.251 343.042 371.528V372.704C343.01 372.976 342.919 373.216 342.77 373.424C342.626 373.627 342.439 373.787 342.21 373.904C341.98 374.021 341.722 374.08 341.434 374.08ZM341.53 373.544C341.791 373.544 342.02 373.485 342.218 373.368C342.415 373.245 342.57 373.077 342.682 372.864C342.794 372.645 342.85 372.397 342.85 372.12C342.85 371.837 342.791 371.589 342.674 371.376C342.562 371.163 342.407 370.995 342.21 370.872C342.012 370.749 341.783 370.688 341.522 370.688C341.26 370.688 341.028 370.749 340.826 370.872C340.623 370.995 340.463 371.165 340.346 371.384C340.234 371.597 340.178 371.843 340.178 372.12C340.178 372.397 340.234 372.645 340.346 372.864C340.463 373.077 340.623 373.245 340.826 373.368C341.034 373.485 341.268 373.544 341.53 373.544ZM343.378 374H342.818V372.992L342.93 372.064L342.818 371.16V368.336H343.378V374ZM346.113 374.08C345.767 374.08 345.455 373.995 345.177 373.824C344.9 373.653 344.679 373.421 344.513 373.128C344.353 372.829 344.273 372.496 344.273 372.128C344.273 371.755 344.353 371.421 344.513 371.128C344.679 370.829 344.9 370.595 345.177 370.424C345.455 370.248 345.767 370.16 346.113 370.16C346.396 370.16 346.652 370.216 346.881 370.328C347.111 370.44 347.3 370.6 347.449 370.808C347.604 371.011 347.695 371.251 347.721 371.528V372.704C347.689 372.976 347.599 373.216 347.449 373.424C347.305 373.627 347.119 373.787 346.889 373.904C346.66 374.021 346.401 374.08 346.113 374.08ZM346.209 373.544C346.471 373.544 346.7 373.485 346.897 373.368C347.095 373.245 347.249 373.077 347.361 372.864C347.473 372.645 347.529 372.397 347.529 372.12C347.529 371.837 347.471 371.589 347.353 371.376C347.241 371.163 347.087 370.995 346.889 370.872C346.692 370.749 346.463 370.688 346.201 370.688C345.94 370.688 345.708 370.749 345.505 370.872C345.303 370.995 345.143 371.165 345.025 371.384C344.913 371.597 344.857 371.843 344.857 372.12C344.857 372.397 344.913 372.645 345.025 372.864C345.143 373.077 345.303 373.245 345.505 373.368C345.713 373.485 345.948 373.544 346.209 373.544ZM348.057 374H347.497V372.992L347.609 372.064L347.497 371.16V368.336H348.057V374ZM351.424 374V373.48H353.168C353.53 373.48 353.816 373.379 354.024 373.176C354.232 372.973 354.336 372.72 354.336 372.416C354.336 372.219 354.29 372.04 354.2 371.88C354.109 371.72 353.978 371.595 353.808 371.504C353.642 371.408 353.445 371.36 353.216 371.36H351.424V370.848H353.128C353.426 370.848 353.661 370.768 353.832 370.608C354.008 370.448 354.096 370.221 354.096 369.928C354.096 369.635 354.002 369.408 353.816 369.248C353.629 369.088 353.378 369.008 353.064 369.008H351.424V368.496H353.08C353.421 368.496 353.712 368.557 353.952 368.68C354.192 368.803 354.373 368.968 354.496 369.176C354.618 369.384 354.68 369.619 354.68 369.88C354.68 370.189 354.6 370.456 354.44 370.68C354.28 370.899 354.045 371.067 353.736 371.184L353.792 370.992C354.149 371.104 354.426 371.288 354.624 371.544C354.826 371.8 354.928 372.104 354.928 372.456C354.928 372.749 354.856 373.013 354.712 373.248C354.573 373.477 354.368 373.661 354.096 373.8C353.829 373.933 353.506 374 353.128 374H351.424ZM351.048 374V368.496H351.632V374H351.048ZM357.4 374.08C357.096 374.08 356.824 374.011 356.584 373.872C356.344 373.728 356.154 373.533 356.016 373.288C355.882 373.043 355.816 372.755 355.816 372.424V370.24H356.384V372.4C356.384 372.629 356.424 372.829 356.504 373C356.589 373.171 356.709 373.304 356.864 373.4C357.018 373.496 357.197 373.544 357.4 373.544C357.714 373.544 357.962 373.44 358.144 373.232C358.33 373.024 358.424 372.747 358.424 372.4V370.24H358.984V372.424C358.984 372.749 358.917 373.037 358.784 373.288C358.65 373.539 358.464 373.733 358.224 373.872C357.984 374.011 357.709 374.08 357.4 374.08ZM360.029 374V368.336H360.589V374H360.029ZM364.148 374L362.228 372.072L364.116 370.24H364.812L362.756 372.216L362.78 371.896L364.892 374H364.148ZM361.724 374V368.336H362.284V374H361.724ZM366.819 374L369.075 368.496H369.515L371.747 374H371.115L369.171 369.136H369.403L367.443 374H366.819ZM367.851 372.568V372.048H370.731V372.568H367.851ZM375.351 374V371.792C375.351 371.461 375.252 371.195 375.055 370.992C374.863 370.784 374.607 370.68 374.287 370.68C374.068 370.68 373.876 370.728 373.711 370.824C373.546 370.92 373.415 371.051 373.319 371.216C373.223 371.381 373.175 371.571 373.175 371.784L372.919 371.64C372.919 371.357 372.986 371.104 373.119 370.88C373.252 370.656 373.431 370.48 373.655 370.352C373.884 370.224 374.146 370.16 374.439 370.16C374.727 370.16 374.983 370.229 375.207 370.368C375.431 370.507 375.604 370.693 375.727 370.928C375.855 371.163 375.919 371.419 375.919 371.696V374H375.351ZM372.615 374V370.24H373.175V374H372.615ZM378.118 374.08C377.916 374.08 377.721 374.053 377.534 374C377.348 373.941 377.177 373.861 377.022 373.76C376.873 373.659 376.742 373.539 376.63 373.4L376.99 373.032C377.14 373.213 377.308 373.349 377.494 373.44C377.686 373.525 377.9 373.568 378.134 373.568C378.385 373.568 378.58 373.52 378.718 373.424C378.862 373.328 378.934 373.195 378.934 373.024C378.934 372.864 378.884 372.739 378.782 372.648C378.681 372.557 378.55 372.485 378.39 372.432C378.236 372.379 378.07 372.328 377.894 372.28C377.718 372.227 377.55 372.163 377.39 372.088C377.23 372.008 377.1 371.899 376.998 371.76C376.902 371.621 376.854 371.44 376.854 371.216C376.854 371.003 376.905 370.819 377.006 370.664C377.113 370.504 377.262 370.381 377.454 370.296C377.652 370.205 377.884 370.16 378.15 370.16C378.433 370.16 378.689 370.211 378.918 370.312C379.148 370.413 379.332 370.563 379.47 370.76L379.11 371.12C378.998 370.976 378.857 370.867 378.686 370.792C378.521 370.712 378.334 370.672 378.126 370.672C377.886 370.672 377.702 370.72 377.574 370.816C377.452 370.907 377.39 371.027 377.39 371.176C377.39 371.32 377.441 371.435 377.542 371.52C377.644 371.6 377.772 371.667 377.926 371.72C378.086 371.768 378.254 371.819 378.43 371.872C378.606 371.92 378.774 371.987 378.934 372.072C379.094 372.152 379.222 372.264 379.318 372.408C379.42 372.547 379.47 372.736 379.47 372.976C379.47 373.312 379.348 373.581 379.102 373.784C378.862 373.981 378.534 374.08 378.118 374.08ZM381.405 374L379.957 370.24H380.541L381.685 373.36L381.477 373.368L382.613 370.24H382.941L384.077 373.368L383.869 373.36L385.005 370.24H385.597L384.141 374H383.813L382.653 370.92H382.893L381.741 374H381.405ZM387.937 374.08C387.558 374.08 387.219 373.995 386.921 373.824C386.622 373.653 386.385 373.419 386.209 373.12C386.038 372.821 385.953 372.485 385.953 372.112C385.953 371.744 386.038 371.413 386.209 371.12C386.379 370.821 386.611 370.587 386.905 370.416C387.198 370.245 387.526 370.16 387.889 370.16C388.23 370.16 388.531 370.237 388.793 370.392C389.059 370.547 389.267 370.763 389.417 371.04C389.571 371.312 389.649 371.627 389.649 371.984C389.649 372.027 389.646 372.077 389.641 372.136C389.635 372.189 389.625 372.253 389.609 372.328H386.353V371.848H389.305L389.105 372.024C389.11 371.747 389.062 371.509 388.961 371.312C388.865 371.109 388.723 370.955 388.537 370.848C388.355 370.736 388.134 370.68 387.873 370.68C387.601 370.68 387.363 370.739 387.161 370.856C386.958 370.973 386.798 371.139 386.681 371.352C386.569 371.56 386.513 371.808 386.513 372.096C386.513 372.384 386.571 372.637 386.689 372.856C386.811 373.075 386.979 373.245 387.193 373.368C387.411 373.491 387.662 373.552 387.945 373.552C388.174 373.552 388.385 373.512 388.577 373.432C388.769 373.347 388.931 373.221 389.065 373.056L389.425 373.424C389.249 373.632 389.03 373.795 388.769 373.912C388.513 374.024 388.235 374.08 387.937 374.08ZM390.506 374V370.24H391.066V374H390.506ZM391.066 371.808L390.834 371.704C390.834 371.229 390.948 370.853 391.178 370.576C391.412 370.299 391.732 370.16 392.138 370.16C392.324 370.16 392.495 370.195 392.65 370.264C392.804 370.328 392.948 370.432 393.082 370.576L392.714 370.968C392.623 370.867 392.522 370.795 392.41 370.752C392.303 370.709 392.18 370.688 392.042 370.688C391.754 370.688 391.519 370.784 391.338 370.976C391.156 371.163 391.066 371.44 391.066 371.808ZM394.743 374.08C394.541 374.08 394.346 374.053 394.159 374C393.973 373.941 393.802 373.861 393.647 373.76C393.498 373.659 393.367 373.539 393.255 373.4L393.615 373.032C393.765 373.213 393.933 373.349 394.119 373.44C394.311 373.525 394.525 373.568 394.759 373.568C395.01 373.568 395.205 373.52 395.343 373.424C395.487 373.328 395.559 373.195 395.559 373.024C395.559 372.864 395.509 372.739 395.407 372.648C395.306 372.557 395.175 372.485 395.015 372.432C394.861 372.379 394.695 372.328 394.519 372.28C394.343 372.227 394.175 372.163 394.015 372.088C393.855 372.008 393.725 371.899 393.623 371.76C393.527 371.621 393.479 371.44 393.479 371.216C393.479 371.003 393.53 370.819 393.631 370.664C393.738 370.504 393.887 370.381 394.079 370.296C394.277 370.205 394.509 370.16 394.775 370.16C395.058 370.16 395.314 370.211 395.543 370.312C395.773 370.413 395.957 370.563 396.095 370.76L395.735 371.12C395.623 370.976 395.482 370.867 395.311 370.792C395.146 370.712 394.959 370.672 394.751 370.672C394.511 370.672 394.327 370.72 394.199 370.816C394.077 370.907 394.015 371.027 394.015 371.176C394.015 371.32 394.066 371.435 394.167 371.52C394.269 371.6 394.397 371.667 394.551 371.72C394.711 371.768 394.879 371.819 395.055 371.872C395.231 371.92 395.399 371.987 395.559 372.072C395.719 372.152 395.847 372.264 395.943 372.408C396.045 372.547 396.095 372.736 396.095 372.976C396.095 373.312 395.973 373.581 395.727 373.784C395.487 373.981 395.159 374.08 394.743 374.08Z" fill="#969696"/>
<g clip-path="url(#clip1_38_323)">
<path fill-rule="evenodd" clip-rule="evenodd" d="M431 371.5C431 375.366 427.866 378.5 424 378.5C420.134 378.5 417 375.366 417 371.5C417 367.634 420.134 364.5 424 364.5C427.866 364.5 431 367.634 431 371.5ZM424 368.525C423.565 368.525 423.213 368.878 423.213 369.312C423.213 369.452 423.157 369.585 423.059 369.684C422.96 369.782 422.827 369.838 422.688 369.838C422.548 369.838 422.415 369.782 422.316 369.684C422.218 369.585 422.162 369.452 422.162 369.312C422.163 369.011 422.236 368.715 422.378 368.449C422.519 368.184 422.724 367.957 422.974 367.788C423.223 367.62 423.511 367.516 423.81 367.485C424.109 367.454 424.412 367.497 424.691 367.61C424.97 367.723 425.217 367.903 425.41 368.134C425.603 368.365 425.736 368.64 425.798 368.934C425.86 369.229 425.849 369.534 425.765 369.824C425.681 370.113 425.528 370.377 425.318 370.593C425.254 370.659 425.192 370.721 425.133 370.78C424.992 370.916 424.858 371.06 424.734 371.212C424.58 371.409 424.525 371.554 424.525 371.675V372.2C424.525 372.339 424.47 372.473 424.371 372.571C424.273 372.67 424.139 372.725 424 372.725C423.861 372.725 423.727 372.67 423.629 372.571C423.53 372.473 423.475 372.339 423.475 372.2V371.675C423.475 371.216 423.688 370.845 423.905 370.567C424.065 370.361 424.266 370.161 424.43 369.997C424.479 369.948 424.524 369.903 424.565 369.861C424.673 369.75 424.746 369.61 424.774 369.458C424.803 369.306 424.786 369.148 424.725 369.006C424.665 368.863 424.564 368.742 424.435 368.656C424.306 368.571 424.155 368.525 424 368.525ZM424 375C424.186 375 424.364 374.926 424.495 374.795C424.626 374.664 424.7 374.486 424.7 374.3C424.7 374.114 424.626 373.936 424.495 373.805C424.364 373.674 424.186 373.6 424 373.6C423.814 373.6 423.636 373.674 423.505 373.805C423.374 373.936 423.3 374.114 423.3 374.3C423.3 374.486 423.374 374.664 423.505 374.795C423.636 374.926 423.814 375 424 375Z" fill="#C6C6C6"/>
</g>
<path d="M100.961 205.563C100.471 205.563 100.014 205.473 99.5908 205.295C99.1673 205.109 98.7967 204.854 98.479 204.53C98.1614 204.199 97.9132 203.819 97.7346 203.389C97.5559 202.958 97.4665 202.499 97.4665 202.009C97.4665 201.513 97.5559 201.053 97.7346 200.629C97.9132 200.199 98.1581 199.822 98.4691 199.497C98.7868 199.173 99.154 198.922 99.5709 198.743C99.9945 198.564 100.451 198.475 100.941 198.475C101.43 198.475 101.884 198.564 102.301 198.743C102.724 198.922 103.095 199.173 103.412 199.497C103.73 199.822 103.975 200.199 104.147 200.629C104.326 201.059 104.415 201.522 104.415 202.019C104.415 202.508 104.326 202.968 104.147 203.399C103.975 203.829 103.73 204.206 103.412 204.53C103.101 204.854 102.734 205.109 102.311 205.295C101.894 205.473 101.444 205.563 100.961 205.563ZM104.256 205.95L101.03 202.724L101.636 202.118L104.852 205.344L104.256 205.95ZM100.941 204.669C101.43 204.669 101.864 204.557 102.241 204.332C102.618 204.1 102.913 203.786 103.125 203.389C103.343 202.985 103.452 202.525 103.452 202.009C103.452 201.625 103.389 201.274 103.264 200.957C103.144 200.632 102.972 200.351 102.747 200.113C102.522 199.875 102.258 199.693 101.953 199.567C101.649 199.435 101.311 199.368 100.941 199.368C100.451 199.368 100.018 199.481 99.6404 199.706C99.2632 199.931 98.9654 200.242 98.7471 200.639C98.5353 201.036 98.4294 201.493 98.4294 202.009C98.4294 202.393 98.4923 202.75 98.618 203.081C98.7437 203.405 98.9158 203.686 99.1342 203.925C99.3592 204.156 99.6239 204.338 99.9283 204.471C100.239 204.603 100.577 204.669 100.941 204.669ZM105.769 203.359V202.515H109.035V203.359H105.769ZM112.965 205.563C112.449 205.563 111.976 205.417 111.545 205.126C111.122 204.835 110.784 204.424 110.533 203.895C110.281 203.359 110.156 202.73 110.156 202.009C110.156 201.288 110.278 200.662 110.523 200.133C110.774 199.603 111.112 199.196 111.535 198.912C111.959 198.621 112.426 198.475 112.935 198.475C113.458 198.475 113.931 198.621 114.355 198.912C114.778 199.196 115.112 199.603 115.357 200.133C115.609 200.662 115.734 201.291 115.734 202.019C115.734 202.74 115.609 203.369 115.357 203.905C115.112 204.434 114.778 204.845 114.355 205.136C113.938 205.42 113.474 205.563 112.965 205.563ZM112.945 204.679C113.309 204.679 113.627 204.58 113.898 204.381C114.176 204.176 114.394 203.875 114.553 203.478C114.712 203.081 114.791 202.591 114.791 202.009C114.791 201.427 114.712 200.94 114.553 200.55C114.394 200.153 114.176 199.855 113.898 199.656C113.62 199.451 113.299 199.349 112.935 199.349C112.578 199.349 112.26 199.451 111.982 199.656C111.704 199.855 111.486 200.153 111.327 200.55C111.175 200.94 111.099 201.427 111.099 202.009C111.099 202.591 111.175 203.081 111.327 203.478C111.486 203.875 111.704 204.176 111.982 204.381C112.26 204.58 112.581 204.679 112.945 204.679ZM117.921 205.463V198.574H118.844V205.463H117.921ZM116.511 199.408V198.574H118.745V199.408H116.511Z" fill="black"/>
<rect x="132.186" y="183.186" width="272.628" height="37.5542" rx="10.9811" fill="white"/>
<rect x="132.186" y="183.186" width="272.628" height="37.5542" rx="10.9811" stroke="#5A35FF" stroke-width="0.372241"/>
<path d="M155.318 205.55C154.89 205.55 154.49 205.472 154.12 205.315C153.749 205.153 153.425 204.93 153.147 204.647C152.869 204.357 152.652 204.024 152.496 203.648C152.339 203.271 152.261 202.869 152.261 202.441C152.261 202.006 152.339 201.604 152.496 201.233C152.652 200.857 152.866 200.527 153.138 200.243C153.416 199.959 153.738 199.739 154.102 199.583C154.473 199.427 154.873 199.348 155.301 199.348C155.73 199.348 156.126 199.427 156.491 199.583C156.862 199.739 157.186 199.959 157.464 200.243C157.742 200.527 157.956 200.857 158.107 201.233C158.263 201.61 158.341 202.015 158.341 202.449C158.341 202.878 158.263 203.28 158.107 203.657C157.956 204.033 157.742 204.363 157.464 204.647C157.192 204.93 156.87 205.153 156.5 205.315C156.135 205.472 155.741 205.55 155.318 205.55ZM158.202 205.889L155.379 203.066L155.909 202.536L158.723 205.359L158.202 205.889ZM155.301 204.768C155.73 204.768 156.109 204.67 156.439 204.473C156.769 204.27 157.027 203.995 157.212 203.648C157.403 203.295 157.499 202.892 157.499 202.441C157.499 202.105 157.444 201.798 157.334 201.52C157.229 201.236 157.079 200.99 156.882 200.782C156.685 200.573 156.453 200.414 156.187 200.304C155.921 200.188 155.625 200.13 155.301 200.13C154.873 200.13 154.493 200.229 154.163 200.425C153.833 200.622 153.573 200.894 153.382 201.242C153.196 201.589 153.104 201.989 153.104 202.441C153.104 202.776 153.159 203.089 153.269 203.379C153.379 203.662 153.529 203.908 153.72 204.117C153.917 204.32 154.149 204.479 154.415 204.595C154.687 204.71 154.983 204.768 155.301 204.768ZM161.185 205.55C160.849 205.55 160.545 205.475 160.273 205.324C160.006 205.168 159.798 204.954 159.647 204.681C159.497 204.409 159.421 204.094 159.421 203.735V201.337H160.203V203.7C160.203 203.926 160.241 204.123 160.316 204.291C160.397 204.453 160.513 204.577 160.663 204.664C160.814 204.751 160.991 204.794 161.193 204.794C161.5 204.794 161.74 204.699 161.914 204.508C162.088 204.311 162.175 204.042 162.175 203.7V201.337H162.956V203.735C162.956 204.094 162.881 204.409 162.731 204.681C162.58 204.954 162.372 205.168 162.105 205.324C161.845 205.475 161.538 205.55 161.185 205.55ZM165.915 205.55C165.504 205.55 165.133 205.457 164.803 205.272C164.473 205.081 164.213 204.823 164.022 204.499C163.83 204.175 163.735 203.807 163.735 203.396C163.735 202.991 163.828 202.626 164.013 202.302C164.204 201.977 164.459 201.723 164.777 201.537C165.101 201.346 165.463 201.251 165.863 201.251C166.245 201.251 166.581 201.337 166.87 201.511C167.166 201.685 167.394 201.925 167.557 202.232C167.724 202.539 167.808 202.886 167.808 203.274C167.808 203.332 167.806 203.396 167.8 203.465C167.794 203.529 167.782 203.604 167.765 203.691H164.282V203.04H167.348L167.061 203.292C167.061 203.014 167.012 202.779 166.914 202.588C166.815 202.391 166.676 202.241 166.497 202.137C166.317 202.027 166.1 201.972 165.846 201.972C165.579 201.972 165.345 202.029 165.142 202.145C164.939 202.261 164.783 202.423 164.673 202.632C164.563 202.84 164.508 203.086 164.508 203.37C164.508 203.659 164.566 203.914 164.682 204.134C164.797 204.348 164.962 204.516 165.177 204.638C165.391 204.754 165.637 204.812 165.915 204.812C166.147 204.812 166.358 204.771 166.549 204.69C166.746 204.609 166.914 204.487 167.053 204.325L167.557 204.838C167.36 205.069 167.117 205.246 166.827 205.368C166.543 205.489 166.239 205.55 165.915 205.55ZM169.972 205.55C169.741 205.55 169.521 205.521 169.312 205.463C169.11 205.399 168.921 205.313 168.748 205.203C168.574 205.087 168.423 204.951 168.296 204.794L168.8 204.291C168.95 204.476 169.124 204.615 169.321 204.707C169.518 204.794 169.738 204.838 169.981 204.838C170.224 204.838 170.412 204.797 170.546 204.716C170.679 204.629 170.745 204.511 170.745 204.36C170.745 204.21 170.69 204.094 170.58 204.013C170.476 203.926 170.34 203.856 170.172 203.804C170.004 203.746 169.825 203.691 169.634 203.639C169.448 203.581 169.272 203.509 169.104 203.422C168.936 203.335 168.797 203.216 168.687 203.066C168.583 202.915 168.531 202.716 168.531 202.467C168.531 202.218 168.591 202.003 168.713 201.824C168.835 201.639 169.002 201.497 169.217 201.398C169.437 201.3 169.7 201.251 170.007 201.251C170.331 201.251 170.618 201.309 170.867 201.424C171.122 201.534 171.33 201.702 171.492 201.928L170.989 202.432C170.873 202.281 170.728 202.165 170.554 202.084C170.386 202.003 170.195 201.963 169.981 201.963C169.755 201.963 169.581 202.003 169.46 202.084C169.344 202.16 169.286 202.267 169.286 202.406C169.286 202.545 169.338 202.652 169.443 202.727C169.547 202.802 169.683 202.866 169.851 202.918C170.024 202.97 170.204 203.025 170.389 203.083C170.575 203.135 170.751 203.208 170.919 203.3C171.087 203.393 171.223 203.518 171.327 203.674C171.437 203.83 171.492 204.036 171.492 204.291C171.492 204.679 171.353 204.985 171.075 205.211C170.803 205.437 170.436 205.55 169.972 205.55ZM173.002 205.463V199.609H173.783V205.463H173.002ZM171.985 202.05V201.337H174.799V202.05H171.985ZM175.574 205.463V201.337H176.356V205.463H175.574ZM175.965 200.512C175.82 200.512 175.701 200.466 175.609 200.373C175.516 200.275 175.47 200.153 175.47 200.009C175.47 199.87 175.516 199.754 175.609 199.661C175.701 199.563 175.82 199.513 175.965 199.513C176.109 199.513 176.228 199.563 176.321 199.661C176.413 199.754 176.46 199.87 176.46 200.009C176.46 200.153 176.413 200.275 176.321 200.373C176.228 200.466 176.109 200.512 175.965 200.512ZM179.392 205.55C178.987 205.55 178.622 205.454 178.298 205.263C177.974 205.072 177.716 204.815 177.525 204.49C177.334 204.16 177.238 203.793 177.238 203.387C177.238 202.988 177.334 202.629 177.525 202.31C177.716 201.986 177.974 201.728 178.298 201.537C178.622 201.346 178.987 201.251 179.392 201.251C179.792 201.251 180.154 201.346 180.478 201.537C180.808 201.723 181.069 201.977 181.26 202.302C181.451 202.626 181.546 202.988 181.546 203.387C181.546 203.793 181.451 204.16 181.26 204.49C181.069 204.815 180.808 205.072 180.478 205.263C180.154 205.454 179.792 205.55 179.392 205.55ZM179.392 204.794C179.653 204.794 179.885 204.734 180.087 204.612C180.29 204.49 180.449 204.325 180.565 204.117C180.681 203.903 180.739 203.659 180.739 203.387C180.739 203.121 180.678 202.884 180.556 202.675C180.44 202.467 180.281 202.304 180.079 202.189C179.882 202.067 179.653 202.006 179.392 202.006C179.132 202.006 178.9 202.067 178.698 202.189C178.495 202.304 178.336 202.467 178.22 202.675C178.104 202.884 178.046 203.121 178.046 203.387C178.046 203.659 178.104 203.903 178.22 204.117C178.336 204.325 178.495 204.49 178.698 204.612C178.9 204.734 179.132 204.794 179.392 204.794ZM185.346 205.463V203.057C185.346 202.745 185.247 202.487 185.05 202.284C184.853 202.082 184.599 201.98 184.286 201.98C184.077 201.98 183.892 202.027 183.73 202.119C183.568 202.212 183.44 202.339 183.348 202.501C183.255 202.663 183.209 202.849 183.209 203.057L182.888 202.875C182.888 202.562 182.957 202.284 183.096 202.041C183.235 201.798 183.429 201.607 183.678 201.468C183.927 201.323 184.208 201.251 184.52 201.251C184.833 201.251 185.108 201.329 185.346 201.485C185.589 201.641 185.78 201.847 185.919 202.102C186.058 202.351 186.127 202.617 186.127 202.901V205.463H185.346ZM182.427 205.463V201.337H183.209V205.463H182.427ZM187.186 203.622V202.884H190.043V203.622H187.186ZM193.482 205.55C193.03 205.55 192.616 205.423 192.24 205.168C191.869 204.913 191.574 204.554 191.354 204.091C191.134 203.622 191.024 203.072 191.024 202.441C191.024 201.809 191.131 201.262 191.345 200.799C191.565 200.336 191.861 199.98 192.231 199.731C192.602 199.476 193.01 199.348 193.456 199.348C193.914 199.348 194.328 199.476 194.698 199.731C195.069 199.98 195.361 200.336 195.575 200.799C195.795 201.262 195.905 201.812 195.905 202.449C195.905 203.08 195.795 203.63 195.575 204.099C195.361 204.563 195.069 204.922 194.698 205.177C194.333 205.425 193.928 205.55 193.482 205.55ZM193.465 204.777C193.783 204.777 194.061 204.69 194.299 204.516C194.542 204.337 194.733 204.073 194.872 203.726C195.011 203.379 195.08 202.95 195.08 202.441C195.08 201.931 195.011 201.505 194.872 201.164C194.733 200.816 194.542 200.556 194.299 200.382C194.055 200.203 193.775 200.113 193.456 200.113C193.143 200.113 192.865 200.203 192.622 200.382C192.379 200.556 192.188 200.816 192.049 201.164C191.916 201.505 191.849 201.931 191.849 202.441C191.849 202.95 191.916 203.379 192.049 203.726C192.188 204.073 192.379 204.337 192.622 204.516C192.865 204.69 193.146 204.777 193.465 204.777ZM197.818 205.463V199.435H198.626V205.463H197.818ZM196.585 200.165V199.435H198.539V200.165H196.585Z" fill="#343434"/>
<path d="M254.738 205.463V199.488H255.19L257.769 203.717H257.448L260.028 199.488H260.479V205.463H259.837V200.599L259.984 200.634L257.83 204.169H257.379L255.225 200.634L255.372 200.599V205.463H254.738ZM263.467 205.55C263.137 205.55 262.841 205.475 262.581 205.324C262.32 205.168 262.115 204.957 261.964 204.69C261.819 204.424 261.747 204.111 261.747 203.752V201.381H262.364V203.726C262.364 203.975 262.407 204.192 262.494 204.378C262.587 204.563 262.717 204.708 262.885 204.812C263.053 204.916 263.247 204.968 263.467 204.968C263.808 204.968 264.078 204.855 264.274 204.629C264.477 204.404 264.578 204.103 264.578 203.726V201.381H265.186V203.752C265.186 204.105 265.114 204.418 264.969 204.69C264.825 204.962 264.622 205.174 264.361 205.324C264.101 205.475 263.803 205.55 263.467 205.55ZM266.321 205.463V199.314H266.929V205.463H266.321ZM268.796 205.463V199.661H269.404V205.463H268.796ZM267.762 201.928V201.381H270.429V201.928H267.762ZM271.266 205.463V201.381H271.883V205.463H271.266ZM271.57 200.495C271.454 200.495 271.356 200.455 271.275 200.373C271.194 200.287 271.153 200.185 271.153 200.069C271.153 199.948 271.194 199.847 271.275 199.765C271.356 199.684 271.454 199.644 271.57 199.644C271.698 199.644 271.799 199.684 271.874 199.765C271.955 199.847 271.996 199.948 271.996 200.069C271.996 200.185 271.955 200.287 271.874 200.373C271.799 200.455 271.698 200.495 271.57 200.495ZM275.226 205.55C274.913 205.55 274.632 205.486 274.383 205.359C274.134 205.232 273.929 205.058 273.767 204.838C273.61 204.612 273.515 204.351 273.48 204.056V202.779C273.515 202.478 273.613 202.218 273.775 201.998C273.938 201.772 274.143 201.598 274.392 201.477C274.647 201.355 274.925 201.294 275.226 201.294C275.602 201.294 275.941 201.39 276.242 201.581C276.543 201.766 276.781 202.021 276.954 202.345C277.134 202.664 277.224 203.025 277.224 203.431C277.224 203.83 277.137 204.189 276.963 204.508C276.789 204.826 276.549 205.081 276.242 205.272C275.941 205.457 275.602 205.55 275.226 205.55ZM273.115 207.183V201.381H273.723V202.423L273.602 203.413L273.723 204.412V207.183H273.115ZM275.122 204.968C275.411 204.968 275.666 204.904 275.886 204.777C276.106 204.644 276.277 204.462 276.399 204.23C276.526 203.992 276.59 203.723 276.59 203.422C276.59 203.115 276.526 202.846 276.399 202.614C276.277 202.383 276.106 202.2 275.886 202.067C275.666 201.934 275.414 201.867 275.13 201.867C274.847 201.867 274.595 201.934 274.375 202.067C274.161 202.2 273.993 202.383 273.871 202.614C273.749 202.846 273.689 203.115 273.689 203.422C273.689 203.723 273.749 203.992 273.871 204.23C273.993 204.462 274.161 204.644 274.375 204.777C274.589 204.904 274.838 204.968 275.122 204.968ZM278.196 205.463V199.314H278.804V205.463H278.196ZM281.921 205.55C281.51 205.55 281.143 205.457 280.818 205.272C280.494 205.087 280.236 204.832 280.045 204.508C279.86 204.184 279.767 203.819 279.767 203.413C279.767 203.014 279.86 202.655 280.045 202.336C280.231 202.012 280.483 201.757 280.801 201.572C281.12 201.387 281.476 201.294 281.869 201.294C282.24 201.294 282.567 201.378 282.851 201.546C283.14 201.714 283.366 201.948 283.528 202.25C283.696 202.545 283.78 202.887 283.78 203.274C283.78 203.321 283.777 203.376 283.772 203.44C283.766 203.497 283.754 203.567 283.737 203.648H280.202V203.127H283.407L283.19 203.318C283.195 203.017 283.143 202.759 283.033 202.545C282.929 202.325 282.776 202.157 282.573 202.041C282.376 201.92 282.136 201.859 281.852 201.859C281.557 201.859 281.299 201.922 281.079 202.05C280.859 202.177 280.685 202.357 280.558 202.588C280.436 202.814 280.375 203.083 280.375 203.396C280.375 203.709 280.439 203.984 280.567 204.221C280.7 204.459 280.882 204.644 281.114 204.777C281.351 204.91 281.623 204.977 281.93 204.977C282.179 204.977 282.408 204.933 282.616 204.847C282.825 204.754 283.001 204.618 283.146 204.438L283.537 204.838C283.346 205.064 283.109 205.24 282.825 205.368C282.547 205.489 282.246 205.55 281.921 205.55ZM289.434 205.55C289.005 205.55 288.606 205.472 288.235 205.316C287.871 205.159 287.552 204.939 287.28 204.655C287.008 204.372 286.796 204.045 286.646 203.674C286.501 203.298 286.429 202.895 286.429 202.467C286.429 202.038 286.501 201.639 286.646 201.268C286.796 200.892 287.005 200.565 287.271 200.287C287.543 200.009 287.862 199.792 288.227 199.635C288.591 199.479 288.985 199.401 289.408 199.401C289.865 199.401 290.274 199.482 290.633 199.644C290.997 199.806 291.316 200.029 291.588 200.313L291.154 200.747C290.945 200.515 290.693 200.336 290.398 200.208C290.103 200.075 289.773 200.009 289.408 200.009C289.072 200.009 288.762 200.069 288.479 200.191C288.201 200.313 287.954 200.486 287.74 200.712C287.532 200.932 287.37 201.193 287.254 201.494C287.144 201.789 287.089 202.114 287.089 202.467C287.089 202.82 287.147 203.147 287.263 203.448C287.378 203.749 287.54 204.013 287.749 204.239C287.957 204.459 288.203 204.629 288.487 204.751C288.771 204.873 289.081 204.933 289.417 204.933C289.799 204.933 290.137 204.867 290.433 204.734C290.734 204.6 290.989 204.418 291.197 204.186L291.631 204.629C291.365 204.913 291.047 205.139 290.676 205.307C290.305 205.469 289.891 205.55 289.434 205.55ZM295.569 205.463V203.066C295.569 202.707 295.462 202.417 295.248 202.197C295.039 201.972 294.761 201.859 294.414 201.859C294.177 201.859 293.968 201.911 293.789 202.015C293.609 202.119 293.467 202.261 293.363 202.441C293.259 202.62 293.207 202.826 293.207 203.057L292.929 202.901C292.929 202.594 293.001 202.319 293.146 202.076C293.291 201.833 293.485 201.642 293.728 201.503C293.977 201.364 294.26 201.294 294.579 201.294C294.892 201.294 295.17 201.367 295.413 201.511C295.656 201.65 295.844 201.844 295.977 202.093C296.116 202.342 296.186 202.632 296.186 202.962V205.463H295.569ZM292.599 205.463V199.314H293.207V205.463H292.599ZM299.173 205.55C298.779 205.55 298.42 205.455 298.096 205.263C297.778 205.072 297.523 204.815 297.332 204.49C297.147 204.166 297.054 203.804 297.054 203.405C297.054 203.011 297.147 202.655 297.332 202.336C297.523 202.018 297.778 201.766 298.096 201.581C298.42 201.39 298.779 201.294 299.173 201.294C299.573 201.294 299.932 201.387 300.25 201.572C300.569 201.757 300.821 202.012 301.006 202.336C301.197 202.655 301.292 203.011 301.292 203.405C301.292 203.81 301.197 204.175 301.006 204.499C300.821 204.818 300.569 205.072 300.25 205.263C299.932 205.455 299.573 205.55 299.173 205.55ZM299.173 204.959C299.463 204.959 299.717 204.893 299.937 204.76C300.163 204.627 300.34 204.441 300.467 204.204C300.6 203.966 300.667 203.7 300.667 203.405C300.667 203.109 300.6 202.849 300.467 202.623C300.34 202.391 300.163 202.209 299.937 202.076C299.717 201.943 299.463 201.876 299.173 201.876C298.889 201.876 298.635 201.943 298.409 202.076C298.183 202.209 298.006 202.391 297.879 202.623C297.752 202.849 297.688 203.109 297.688 203.405C297.688 203.706 297.752 203.975 297.879 204.213C298.006 204.444 298.183 204.627 298.409 204.76C298.635 204.893 298.889 204.959 299.173 204.959ZM302.26 205.463V201.381H302.876V205.463H302.26ZM302.564 200.495C302.448 200.495 302.349 200.455 302.268 200.373C302.187 200.287 302.147 200.185 302.147 200.069C302.147 199.948 302.187 199.847 302.268 199.765C302.349 199.684 302.448 199.644 302.564 199.644C302.691 199.644 302.792 199.684 302.868 199.765C302.949 199.847 302.989 199.948 302.989 200.069C302.989 200.185 302.949 200.287 302.868 200.373C302.792 200.455 302.691 200.495 302.564 200.495ZM305.967 205.55C305.568 205.55 305.206 205.457 304.882 205.272C304.563 205.081 304.309 204.823 304.117 204.499C303.932 204.175 303.84 203.813 303.84 203.413C303.84 203.014 303.932 202.655 304.117 202.336C304.309 202.012 304.563 201.757 304.882 201.572C305.206 201.387 305.568 201.294 305.967 201.294C306.274 201.294 306.561 201.352 306.827 201.468C307.094 201.584 307.32 201.746 307.505 201.954L307.105 202.362C306.966 202.206 306.798 202.087 306.602 202.006C306.405 201.92 306.193 201.876 305.967 201.876C305.678 201.876 305.42 201.943 305.194 202.076C304.969 202.209 304.792 202.391 304.665 202.623C304.537 202.849 304.474 203.112 304.474 203.413C304.474 203.709 304.537 203.975 304.665 204.213C304.792 204.444 304.969 204.627 305.194 204.76C305.42 204.893 305.678 204.959 305.967 204.959C306.199 204.959 306.413 204.919 306.61 204.838C306.807 204.751 306.975 204.629 307.114 204.473L307.522 204.881C307.331 205.096 307.1 205.261 306.827 205.376C306.561 205.492 306.274 205.55 305.967 205.55ZM310.184 205.55C309.773 205.55 309.405 205.457 309.081 205.272C308.756 205.087 308.499 204.832 308.308 204.508C308.122 204.184 308.03 203.819 308.03 203.413C308.03 203.014 308.122 202.655 308.308 202.336C308.493 202.012 308.745 201.757 309.063 201.572C309.382 201.387 309.738 201.294 310.132 201.294C310.502 201.294 310.829 201.378 311.113 201.546C311.403 201.714 311.628 201.948 311.791 202.25C311.958 202.545 312.042 202.887 312.042 203.274C312.042 203.321 312.039 203.376 312.034 203.44C312.028 203.497 312.016 203.567 311.999 203.648H308.464V203.127H311.669L311.452 203.318C311.458 203.017 311.405 202.759 311.295 202.545C311.191 202.325 311.038 202.157 310.835 202.041C310.638 201.92 310.398 201.859 310.114 201.859C309.819 201.859 309.561 201.922 309.341 202.05C309.121 202.177 308.947 202.357 308.82 202.588C308.698 202.814 308.638 203.083 308.638 203.396C308.638 203.709 308.701 203.984 308.829 204.221C308.962 204.459 309.144 204.644 309.376 204.777C309.613 204.91 309.885 204.977 310.192 204.977C310.441 204.977 310.67 204.933 310.879 204.847C311.087 204.754 311.264 204.618 311.408 204.438L311.799 204.838C311.608 205.064 311.371 205.24 311.087 205.368C310.809 205.489 310.508 205.55 310.184 205.55Z" fill="#343434"/>
<path d="M367.569 200.671L370.154 203.256L372.739 200.671H367.569Z" fill="#343434"/>
<line x1="232.167" y1="208.437" x2="232.167" y2="194.788" stroke="#C6C6C6" stroke-width="0.310201"/>
<g clip-path="url(#clip2_38_323)">
<path fill-rule="evenodd" clip-rule="evenodd" d="M427.334 201.963C427.334 205.39 424.557 208.167 421.13 208.167C417.704 208.167 414.926 205.39 414.926 201.963C414.926 198.537 417.704 195.759 421.13 195.759C424.557 195.759 427.334 198.537 427.334 201.963ZM421.13 199.326C420.745 199.326 420.432 199.639 420.432 200.024C420.432 200.148 420.383 200.266 420.296 200.353C420.209 200.441 420.091 200.49 419.967 200.49C419.844 200.49 419.725 200.441 419.638 200.353C419.551 200.266 419.502 200.148 419.502 200.024C419.502 199.758 419.567 199.495 419.693 199.259C419.818 199.024 419.999 198.823 420.221 198.674C420.442 198.525 420.697 198.432 420.962 198.405C421.227 198.377 421.495 198.415 421.743 198.515C421.99 198.616 422.209 198.775 422.38 198.98C422.551 199.185 422.669 199.428 422.724 199.689C422.779 199.95 422.769 200.221 422.695 200.477C422.621 200.734 422.485 200.968 422.299 201.159C422.242 201.218 422.187 201.273 422.135 201.325C422.009 201.445 421.891 201.573 421.781 201.708C421.644 201.883 421.596 202.011 421.596 202.118V202.584C421.596 202.707 421.547 202.825 421.459 202.913C421.372 203 421.254 203.049 421.13 203.049C421.007 203.049 420.889 203 420.801 202.913C420.714 202.825 420.665 202.707 420.665 202.584V202.118C420.665 201.712 420.854 201.382 421.046 201.136C421.188 200.954 421.366 200.776 421.511 200.631C421.555 200.588 421.595 200.548 421.631 200.511C421.727 200.412 421.791 200.288 421.816 200.153C421.842 200.018 421.827 199.879 421.773 199.753C421.72 199.626 421.63 199.518 421.516 199.443C421.402 199.367 421.268 199.326 421.13 199.326ZM421.13 205.065C421.295 205.065 421.453 205 421.569 204.883C421.685 204.767 421.751 204.609 421.751 204.445C421.751 204.28 421.685 204.122 421.569 204.006C421.453 203.89 421.295 203.824 421.13 203.824C420.966 203.824 420.808 203.89 420.692 204.006C420.575 204.122 420.51 204.28 420.51 204.445C420.51 204.609 420.575 204.767 420.692 204.883C420.808 205 420.966 205.065 421.13 205.065Z" fill="#C6C6C6"/>
</g>
<rect width="130.536" height="17.3712" transform="translate(211.107 165.629)" fill="#969696"/>
<path d="M222.989 174.581C223.359 174.647 223.674 174.842 223.932 175.167C224.19 175.491 224.319 175.858 224.319 176.268C224.319 176.619 224.226 176.937 224.041 177.221C223.862 177.499 223.601 177.721 223.257 177.886C222.913 178.045 222.512 178.125 222.056 178.125H219.296V171.226H221.927C222.396 171.226 222.8 171.305 223.138 171.464C223.475 171.623 223.73 171.838 223.902 172.109C224.074 172.374 224.16 172.672 224.16 173.003C224.16 173.4 224.054 173.731 223.842 173.995C223.631 174.26 223.346 174.455 222.989 174.581ZM220.428 174.124H221.827C222.198 174.124 222.486 174.042 222.691 173.876C222.903 173.704 223.009 173.459 223.009 173.142C223.009 172.831 222.903 172.589 222.691 172.417C222.486 172.238 222.198 172.149 221.827 172.149H220.428V174.124ZM221.956 177.201C222.34 177.201 222.641 177.109 222.86 176.924C223.078 176.738 223.187 176.48 223.187 176.149C223.187 175.812 223.071 175.544 222.84 175.345C222.608 175.147 222.301 175.047 221.917 175.047H220.428V177.201H221.956Z" fill="white"/>
<mask id="path-19-inside-1_38_323" fill="white">
<path d="M237.164 169.041H244.164V179.588H237.164V169.041Z"/>
</mask>
<path d="M244.164 179.588V178.967H237.164V179.588V180.208H244.164V179.588Z" fill="white" mask="url(#path-19-inside-1_38_323)"/>
<path d="M238.913 170.847V174.969C238.913 175.459 239.04 175.829 239.295 176.077C239.555 176.325 239.915 176.449 240.374 176.449C240.84 176.449 241.199 176.325 241.454 176.077C241.714 175.829 241.845 175.459 241.845 174.969V170.847H242.906V174.951C242.906 175.478 242.791 175.925 242.561 176.291C242.332 176.657 242.025 176.93 241.64 177.11C241.255 177.29 240.83 177.38 240.365 177.38C239.9 177.38 239.475 177.29 239.09 177.11C238.712 176.93 238.411 176.657 238.187 176.291C237.964 175.925 237.852 175.478 237.852 174.951V170.847H238.913Z" fill="white"/>
<path d="M256.373 178.745L256.472 178.259L257.316 178.06L258.527 172.342L257.773 172.154L257.872 171.658H260.354L260.254 172.154L259.401 172.342L258.19 178.06L258.954 178.259L258.855 178.745H256.373Z" fill="white"/>
<mask id="path-23-inside-2_38_323" fill="white">
<path d="M272.082 169.041H279.082V179.588H272.082V169.041Z"/>
</mask>
<path d="M279.082 179.588V178.347H272.082V179.588V180.829H279.082V179.588Z" fill="white" mask="url(#path-23-inside-2_38_323)"/>
<path d="M276.679 175.993H273.971L273.506 177.314H272.398L274.715 170.837H275.944L278.261 177.314H277.144L276.679 175.993ZM276.381 175.128L275.33 172.122L274.269 175.128H276.381Z" fill="white"/>
<path d="M281.563 174.263L284.148 176.848L286.733 174.263H281.563Z" fill="white"/>
<g clip-path="url(#clip3_38_323)">
<path d="M306.712 171.272H300.712C300.238 171.272 299.854 171.655 299.854 172.129V178.129C299.854 178.602 300.238 178.986 300.712 178.986H306.712C307.185 178.986 307.569 178.602 307.569 178.129V172.129C307.569 171.655 307.185 171.272 306.712 171.272Z" stroke="white" stroke-width="0.7" stroke-linecap="round" stroke-linejoin="round"/>
<path d="M302.212 174.272C302.567 174.272 302.854 173.984 302.854 173.629C302.854 173.274 302.567 172.986 302.212 172.986C301.857 172.986 301.569 173.274 301.569 173.629C301.569 173.984 301.857 174.272 302.212 174.272Z" stroke="white" stroke-width="0.7" stroke-linecap="round" stroke-linejoin="round"/>
<path d="M307.569 176.415L305.426 174.272L300.712 178.986" stroke="white" stroke-width="0.7" stroke-linecap="round" stroke-linejoin="round"/>
</g>
<g clip-path="url(#clip4_38_323)">
<path d="M331.552 172.563L328.251 174.935L331.552 177.307V172.563Z" stroke="white" stroke-width="0.682441" stroke-linecap="round" stroke-linejoin="round"/>
<path d="M327.308 171.614H322.121C321.601 171.614 321.178 172.039 321.178 172.563V177.307C321.178 177.831 321.601 178.256 322.121 178.256H327.308C327.829 178.256 328.251 177.831 328.251 177.307V172.563C328.251 172.039 327.829 171.614 327.308 171.614Z" stroke="white" stroke-width="0.682441" stroke-linecap="round" stroke-linejoin="round"/>
</g>
<path d="M79.4805 98.5584C79.4805 84.4429 90.9234 73 105.039 73H421.325C435.44 73 446.883 84.4429 446.883 98.5584V118.792H79.4805V98.5584Z" fill="#010B1C"/>
<circle cx="105.04" cy="96.4284" r="5.32468" fill="#C4C4C4"/>
<circle cx="124.207" cy="96.4284" r="5.32468" fill="#C4C4C4"/>
<circle cx="143.377" cy="96.4284" r="5.32468" fill="#C4C4C4"/>
<rect x="97" y="135" width="82.4805" height="25.5573" rx="12.7787" fill="#FFF8EC"/>
<g clip-path="url(#clip5_38_323)">
<path d="M118.21 153.687C121.418 153.687 124.018 151.087 124.018 147.879C124.018 144.671 121.418 142.07 118.21 142.07C115.002 142.07 112.401 144.671 112.401 147.879C112.401 151.087 115.002 153.687 118.21 153.687Z" stroke="#FF9D00" stroke-width="0.580848" stroke-linecap="round" stroke-linejoin="round"/>
<path d="M118.21 145.556V150.202" stroke="#FF9D00" stroke-width="0.580848" stroke-linecap="round" stroke-linejoin="round"/>
<path d="M115.886 147.879H120.533" stroke="#FF9D00" stroke-width="0.580848" stroke-linecap="round" stroke-linejoin="round"/>
</g>
<path d="M129.798 150.779L132.107 145.135H132.66L134.962 150.779H134.132L132.237 146.005H132.522L130.611 150.779H129.798ZM130.896 149.502V148.835H133.864V149.502H130.896ZM137.133 150.86C136.775 150.86 136.455 150.773 136.173 150.6C135.891 150.421 135.666 150.18 135.498 149.876C135.336 149.572 135.254 149.231 135.254 148.851C135.254 148.472 135.336 148.13 135.498 147.827C135.666 147.523 135.891 147.282 136.173 147.103C136.455 146.924 136.775 146.835 137.133 146.835C137.42 146.835 137.68 146.897 137.914 147.022C138.147 147.141 138.334 147.309 138.475 147.526C138.621 147.737 138.702 147.984 138.719 148.266V149.429C138.702 149.705 138.624 149.952 138.483 150.169C138.342 150.386 138.155 150.556 137.922 150.681C137.689 150.8 137.426 150.86 137.133 150.86ZM137.255 150.169C137.499 150.169 137.71 150.112 137.889 149.998C138.073 149.884 138.217 149.73 138.32 149.535C138.423 149.334 138.475 149.106 138.475 148.851C138.475 148.586 138.42 148.355 138.312 148.16C138.209 147.965 138.065 147.811 137.881 147.697C137.702 147.583 137.491 147.526 137.247 147.526C137.003 147.526 136.789 147.583 136.604 147.697C136.42 147.811 136.274 147.968 136.165 148.168C136.062 148.364 136.011 148.589 136.011 148.843C136.011 149.104 136.062 149.334 136.165 149.535C136.274 149.73 136.42 149.884 136.604 149.998C136.794 150.112 137.011 150.169 137.255 150.169ZM139.166 150.779H138.426V149.738L138.564 148.795L138.426 147.859V144.973H139.166V150.779ZM141.866 150.86C141.508 150.86 141.188 150.773 140.906 150.6C140.624 150.421 140.399 150.18 140.231 149.876C140.069 149.572 139.987 149.231 139.987 148.851C139.987 148.472 140.069 148.13 140.231 147.827C140.399 147.523 140.624 147.282 140.906 147.103C141.188 146.924 141.508 146.835 141.866 146.835C142.153 146.835 142.413 146.897 142.647 147.022C142.88 147.141 143.067 147.309 143.208 147.526C143.354 147.737 143.435 147.984 143.452 148.266V149.429C143.435 149.705 143.357 149.952 143.216 150.169C143.075 150.386 142.888 150.556 142.655 150.681C142.422 150.8 142.159 150.86 141.866 150.86ZM141.988 150.169C142.232 150.169 142.443 150.112 142.622 149.998C142.806 149.884 142.95 149.73 143.053 149.535C143.156 149.334 143.208 149.106 143.208 148.851C143.208 148.586 143.153 148.355 143.045 148.16C142.942 147.965 142.798 147.811 142.614 147.697C142.435 147.583 142.224 147.526 141.98 147.526C141.736 147.526 141.522 147.583 141.337 147.697C141.153 147.811 141.007 147.968 140.898 148.168C140.795 148.364 140.744 148.589 140.744 148.843C140.744 149.104 140.795 149.334 140.898 149.535C141.007 149.73 141.153 149.884 141.337 149.998C141.527 150.112 141.744 150.169 141.988 150.169ZM143.899 150.779H143.159V149.738L143.297 148.795L143.159 147.859V144.973H143.899V150.779ZM146.786 150.779V145.135H147.55V150.779H146.786ZM147.306 150.779V150.079H150.331V150.779H147.306ZM152.741 150.86C152.361 150.86 152.02 150.771 151.716 150.592C151.412 150.413 151.171 150.172 150.992 149.868C150.813 149.559 150.724 149.215 150.724 148.835C150.724 148.461 150.813 148.125 150.992 147.827C151.171 147.523 151.412 147.282 151.716 147.103C152.02 146.924 152.361 146.835 152.741 146.835C153.115 146.835 153.453 146.924 153.757 147.103C154.066 147.277 154.31 147.515 154.489 147.819C154.668 148.122 154.757 148.461 154.757 148.835C154.757 149.215 154.668 149.559 154.489 149.868C154.31 150.172 154.066 150.413 153.757 150.592C153.453 150.771 153.115 150.86 152.741 150.86ZM152.741 150.153C152.985 150.153 153.201 150.096 153.391 149.982C153.581 149.868 153.73 149.713 153.838 149.518C153.947 149.318 154.001 149.09 154.001 148.835C154.001 148.586 153.944 148.364 153.83 148.168C153.722 147.973 153.573 147.821 153.383 147.713C153.199 147.599 152.985 147.542 152.741 147.542C152.497 147.542 152.28 147.599 152.09 147.713C151.9 147.821 151.751 147.973 151.643 148.168C151.534 148.364 151.48 148.586 151.48 148.835C151.48 149.09 151.534 149.318 151.643 149.518C151.751 149.713 151.9 149.868 152.09 149.982C152.28 150.096 152.497 150.153 152.741 150.153ZM157.184 152.478C156.788 152.478 156.436 152.405 156.127 152.259C155.823 152.112 155.579 151.906 155.395 151.641L155.866 151.161C156.024 151.361 156.211 151.513 156.428 151.616C156.644 151.725 156.902 151.779 157.2 151.779C157.596 151.779 157.908 151.673 158.135 151.462C158.368 151.256 158.485 150.977 158.485 150.624V149.665L158.615 148.795L158.485 147.933V146.916H159.217V150.624C159.217 150.993 159.13 151.315 158.957 151.592C158.789 151.868 158.55 152.085 158.241 152.242C157.937 152.4 157.585 152.478 157.184 152.478ZM157.184 150.714C156.831 150.714 156.514 150.63 156.232 150.462C155.956 150.293 155.736 150.063 155.574 149.77C155.411 149.472 155.33 149.139 155.33 148.77C155.33 148.401 155.411 148.073 155.574 147.786C155.736 147.493 155.956 147.263 156.232 147.095C156.514 146.921 156.831 146.835 157.184 146.835C157.487 146.835 157.756 146.894 157.989 147.014C158.222 147.133 158.406 147.301 158.542 147.518C158.683 147.729 158.759 147.979 158.77 148.266V149.291C158.753 149.572 158.675 149.822 158.534 150.039C158.398 150.25 158.214 150.415 157.981 150.535C157.748 150.654 157.482 150.714 157.184 150.714ZM157.33 150.022C157.569 150.022 157.777 149.971 157.956 149.868C158.141 149.765 158.282 149.621 158.379 149.437C158.477 149.247 158.526 149.028 158.526 148.778C158.526 148.529 158.474 148.312 158.371 148.128C158.274 147.938 158.135 147.792 157.956 147.689C157.777 147.58 157.566 147.526 157.322 147.526C157.078 147.526 156.864 147.58 156.68 147.689C156.495 147.792 156.349 147.938 156.241 148.128C156.138 148.312 156.086 148.526 156.086 148.77C156.086 149.014 156.138 149.231 156.241 149.421C156.349 149.61 156.495 149.759 156.68 149.868C156.869 149.971 157.086 150.022 157.33 150.022ZM162.056 150.86C161.676 150.86 161.335 150.771 161.031 150.592C160.727 150.413 160.486 150.172 160.307 149.868C160.128 149.559 160.039 149.215 160.039 148.835C160.039 148.461 160.128 148.125 160.307 147.827C160.486 147.523 160.727 147.282 161.031 147.103C161.335 146.924 161.676 146.835 162.056 146.835C162.43 146.835 162.769 146.924 163.072 147.103C163.381 147.277 163.625 147.515 163.804 147.819C163.983 148.122 164.072 148.461 164.072 148.835C164.072 149.215 163.983 149.559 163.804 149.868C163.625 150.172 163.381 150.413 163.072 150.592C162.769 150.771 162.43 150.86 162.056 150.86ZM162.056 150.153C162.3 150.153 162.516 150.096 162.706 149.982C162.896 149.868 163.045 149.713 163.153 149.518C163.262 149.318 163.316 149.09 163.316 148.835C163.316 148.586 163.259 148.364 163.145 148.168C163.037 147.973 162.888 147.821 162.698 147.713C162.514 147.599 162.3 147.542 162.056 147.542C161.812 147.542 161.595 147.599 161.405 147.713C161.215 147.821 161.066 147.973 160.958 148.168C160.849 148.364 160.795 148.586 160.795 148.835C160.795 149.09 160.849 149.318 160.958 149.518C161.066 149.713 161.215 149.868 161.405 149.982C161.595 150.096 161.812 150.153 162.056 150.153Z" fill="#FF9D00"/>
<circle cx="138.589" cy="247.5" r="6.333" stroke="#B0B0B0" stroke-width="0.512497"/>
<rect x="157.178" y="229" width="215" height="37" rx="13.1785" fill="#F8F8F8"/>
<path d="M177.996 251.5L180.907 244.387H181.604L184.505 251.5H183.459L181.071 245.483H181.43L179.021 251.5H177.996ZM179.38 249.891V249.05H183.121V249.891H179.38ZM188.936 251.5V248.661C188.936 248.292 188.82 247.988 188.587 247.749C188.355 247.509 188.054 247.39 187.685 247.39C187.439 247.39 187.221 247.444 187.029 247.554C186.838 247.663 186.688 247.813 186.578 248.005C186.469 248.196 186.414 248.415 186.414 248.661L186.035 248.446C186.035 248.077 186.117 247.749 186.281 247.462C186.445 247.175 186.674 246.949 186.968 246.785C187.262 246.614 187.593 246.529 187.962 246.529C188.331 246.529 188.656 246.621 188.936 246.806C189.223 246.99 189.448 247.233 189.612 247.533C189.776 247.827 189.858 248.141 189.858 248.476V251.5H188.936ZM185.492 251.5V246.631H186.414V251.5H185.492ZM192.655 251.602C192.382 251.602 192.122 251.568 191.876 251.5C191.637 251.425 191.415 251.322 191.21 251.193C191.005 251.056 190.827 250.895 190.677 250.711L191.271 250.116C191.449 250.335 191.654 250.499 191.886 250.608C192.119 250.711 192.378 250.762 192.665 250.762C192.952 250.762 193.174 250.714 193.331 250.619C193.489 250.516 193.567 250.376 193.567 250.198C193.567 250.021 193.502 249.884 193.372 249.788C193.249 249.686 193.089 249.604 192.891 249.542C192.693 249.474 192.481 249.409 192.255 249.348C192.037 249.279 191.828 249.194 191.63 249.091C191.432 248.989 191.268 248.849 191.138 248.671C191.015 248.493 190.953 248.258 190.953 247.964C190.953 247.67 191.025 247.417 191.169 247.205C191.312 246.987 191.51 246.819 191.763 246.703C192.023 246.587 192.334 246.529 192.696 246.529C193.079 246.529 193.417 246.597 193.711 246.734C194.011 246.864 194.257 247.062 194.449 247.328L193.854 247.923C193.718 247.745 193.547 247.608 193.342 247.513C193.144 247.417 192.918 247.369 192.665 247.369C192.399 247.369 192.194 247.417 192.05 247.513C191.914 247.602 191.845 247.728 191.845 247.892C191.845 248.056 191.907 248.182 192.03 248.271C192.153 248.36 192.313 248.435 192.511 248.497C192.716 248.558 192.928 248.623 193.147 248.692C193.366 248.753 193.574 248.838 193.772 248.948C193.97 249.057 194.131 249.204 194.254 249.389C194.384 249.573 194.449 249.816 194.449 250.116C194.449 250.574 194.285 250.936 193.957 251.203C193.636 251.469 193.202 251.602 192.655 251.602ZM196.875 251.5L194.948 246.631H195.912L197.306 250.424H196.998L198.382 246.631H198.915L200.299 250.424H199.991L201.385 246.631H202.349L200.432 251.5H199.889L198.485 247.82H198.823L197.408 251.5H196.875ZM205.284 251.602C204.799 251.602 204.361 251.493 203.972 251.275C203.582 251.049 203.275 250.745 203.049 250.362C202.824 249.98 202.711 249.546 202.711 249.061C202.711 248.582 202.82 248.152 203.039 247.769C203.265 247.386 203.565 247.086 203.941 246.867C204.324 246.642 204.751 246.529 205.222 246.529C205.673 246.529 206.07 246.631 206.411 246.836C206.76 247.041 207.03 247.325 207.221 247.687C207.419 248.049 207.518 248.459 207.518 248.917C207.518 248.985 207.515 249.061 207.508 249.143C207.501 249.218 207.488 249.307 207.467 249.409H203.357V248.64H206.975L206.637 248.938C206.637 248.61 206.579 248.333 206.463 248.107C206.346 247.875 206.182 247.697 205.971 247.574C205.759 247.444 205.502 247.38 205.202 247.38C204.887 247.38 204.611 247.448 204.372 247.585C204.132 247.721 203.948 247.913 203.818 248.159C203.688 248.405 203.623 248.695 203.623 249.03C203.623 249.371 203.692 249.672 203.828 249.932C203.965 250.185 204.16 250.383 204.413 250.526C204.665 250.663 204.956 250.731 205.284 250.731C205.557 250.731 205.807 250.683 206.032 250.588C206.264 250.492 206.463 250.349 206.627 250.157L207.221 250.762C206.989 251.035 206.702 251.244 206.36 251.387C206.025 251.531 205.666 251.602 205.284 251.602ZM208.524 251.5V246.631H209.447V251.5H208.524ZM209.447 248.722L209.098 248.569C209.098 247.947 209.242 247.451 209.529 247.082C209.816 246.713 210.229 246.529 210.769 246.529C211.015 246.529 211.237 246.573 211.435 246.662C211.633 246.744 211.818 246.884 211.989 247.082L211.384 247.708C211.281 247.598 211.169 247.52 211.046 247.472C210.923 247.424 210.779 247.4 210.615 247.4C210.273 247.4 209.993 247.509 209.775 247.728C209.556 247.947 209.447 248.278 209.447 248.722ZM212.308 249.327V248.456H215.68V249.327H212.308ZM219.738 251.602C219.205 251.602 218.717 251.452 218.273 251.152C217.835 250.851 217.487 250.427 217.227 249.881C216.967 249.327 216.838 248.678 216.838 247.933C216.838 247.188 216.964 246.542 217.217 245.996C217.477 245.449 217.825 245.029 218.262 244.735C218.7 244.434 219.181 244.284 219.708 244.284C220.247 244.284 220.736 244.434 221.173 244.735C221.611 245.029 221.956 245.449 222.209 245.996C222.468 246.542 222.598 247.192 222.598 247.943C222.598 248.688 222.468 249.337 222.209 249.891C221.956 250.437 221.611 250.861 221.173 251.162C220.743 251.456 220.265 251.602 219.738 251.602ZM219.718 250.69C220.094 250.69 220.422 250.588 220.702 250.383C220.989 250.171 221.214 249.86 221.378 249.45C221.542 249.04 221.624 248.534 221.624 247.933C221.624 247.332 221.542 246.829 221.378 246.426C221.214 246.016 220.989 245.709 220.702 245.504C220.415 245.292 220.083 245.186 219.708 245.186C219.339 245.186 219.011 245.292 218.724 245.504C218.437 245.709 218.211 246.016 218.047 246.426C217.89 246.829 217.811 247.332 217.811 247.933C217.811 248.534 217.89 249.04 218.047 249.45C218.211 249.86 218.437 250.171 218.724 250.383C219.011 250.588 219.342 250.69 219.718 250.69ZM224.856 251.5V244.387H225.809V251.5H224.856ZM223.4 245.248V244.387H225.706V245.248H223.4Z" fill="#343434"/>
<g clip-path="url(#clip6_38_323)">
<path d="M396.257 254.947C400.301 254.947 403.578 251.669 403.578 247.626C403.578 243.582 400.301 240.304 396.257 240.304C392.214 240.304 388.936 243.582 388.936 247.626C388.936 251.669 392.214 254.947 396.257 254.947Z" fill="#969696" stroke="#969696" stroke-width="0.732139" stroke-linecap="round" stroke-linejoin="round"/>
<path d="M396.257 244.697V250.554" stroke="white" stroke-width="1.09821" stroke-linecap="round" stroke-linejoin="round"/>
<path d="M393.328 247.626H399.186" stroke="white" stroke-width="1.09821" stroke-linecap="round" stroke-linejoin="round"/>
</g>
<path d="M420.679 240.179C424.727 240.179 428 243.451 428 247.5C428 251.549 424.727 254.821 420.679 254.821C416.63 254.821 413.357 251.549 413.357 247.5C413.357 243.451 416.63 240.179 420.679 240.179ZM424.339 243.839H422.509L421.777 243.107H419.58L418.848 243.839H417.018V245.304H424.339V243.839ZM418.482 251.893H422.875C423.069 251.893 423.255 251.816 423.393 251.678C423.53 251.541 423.607 251.355 423.607 251.161V246.036H417.75V251.161C417.75 251.355 417.827 251.541 417.964 251.678C418.102 251.816 418.288 251.893 418.482 251.893Z" fill="#969696"/>
<circle cx="138.589" cy="288.5" r="6.333" stroke="#B0B0B0" stroke-width="0.512497"/>
<rect x="157.178" y="270" width="215" height="37" rx="13.1785" fill="#F8F8F8"/>
<path d="M177.996 292.5L180.907 285.387H181.604L184.505 292.5H183.459L181.071 286.483H181.43L179.021 292.5H177.996ZM179.38 290.891V290.05H183.121V290.891H179.38ZM188.936 292.5V289.661C188.936 289.292 188.82 288.988 188.587 288.749C188.355 288.509 188.054 288.39 187.685 288.39C187.439 288.39 187.221 288.444 187.029 288.554C186.838 288.663 186.688 288.813 186.578 289.005C186.469 289.196 186.414 289.415 186.414 289.661L186.035 289.446C186.035 289.077 186.117 288.749 186.281 288.462C186.445 288.175 186.674 287.949 186.968 287.785C187.262 287.614 187.593 287.529 187.962 287.529C188.331 287.529 188.656 287.621 188.936 287.806C189.223 287.99 189.448 288.233 189.612 288.533C189.776 288.827 189.858 289.141 189.858 289.476V292.5H188.936ZM185.492 292.5V287.631H186.414V292.5H185.492ZM192.655 292.602C192.382 292.602 192.122 292.568 191.876 292.5C191.637 292.425 191.415 292.322 191.21 292.193C191.005 292.056 190.827 291.895 190.677 291.711L191.271 291.116C191.449 291.335 191.654 291.499 191.886 291.608C192.119 291.711 192.378 291.762 192.665 291.762C192.952 291.762 193.174 291.714 193.331 291.619C193.489 291.516 193.567 291.376 193.567 291.198C193.567 291.021 193.502 290.884 193.372 290.788C193.249 290.686 193.089 290.604 192.891 290.542C192.693 290.474 192.481 290.409 192.255 290.348C192.037 290.279 191.828 290.194 191.63 290.091C191.432 289.989 191.268 289.849 191.138 289.671C191.015 289.493 190.953 289.258 190.953 288.964C190.953 288.67 191.025 288.417 191.169 288.205C191.312 287.987 191.51 287.819 191.763 287.703C192.023 287.587 192.334 287.529 192.696 287.529C193.079 287.529 193.417 287.597 193.711 287.734C194.011 287.864 194.257 288.062 194.449 288.328L193.854 288.923C193.718 288.745 193.547 288.608 193.342 288.513C193.144 288.417 192.918 288.369 192.665 288.369C192.399 288.369 192.194 288.417 192.05 288.513C191.914 288.602 191.845 288.728 191.845 288.892C191.845 289.056 191.907 289.182 192.03 289.271C192.153 289.36 192.313 289.435 192.511 289.497C192.716 289.558 192.928 289.623 193.147 289.692C193.366 289.753 193.574 289.838 193.772 289.948C193.97 290.057 194.131 290.204 194.254 290.389C194.384 290.573 194.449 290.816 194.449 291.116C194.449 291.574 194.285 291.936 193.957 292.203C193.636 292.469 193.202 292.602 192.655 292.602ZM196.875 292.5L194.948 287.631H195.912L197.306 291.424H196.998L198.382 287.631H198.915L200.299 291.424H199.991L201.385 287.631H202.349L200.432 292.5H199.889L198.485 288.82H198.823L197.408 292.5H196.875ZM205.284 292.602C204.799 292.602 204.361 292.493 203.972 292.275C203.582 292.049 203.275 291.745 203.049 291.362C202.824 290.98 202.711 290.546 202.711 290.061C202.711 289.582 202.82 289.152 203.039 288.769C203.265 288.386 203.565 288.086 203.941 287.867C204.324 287.642 204.751 287.529 205.222 287.529C205.673 287.529 206.07 287.631 206.411 287.836C206.76 288.041 207.03 288.325 207.221 288.687C207.419 289.049 207.518 289.459 207.518 289.917C207.518 289.985 207.515 290.061 207.508 290.143C207.501 290.218 207.488 290.307 207.467 290.409H203.357V289.64H206.975L206.637 289.938C206.637 289.61 206.579 289.333 206.463 289.107C206.346 288.875 206.182 288.697 205.971 288.574C205.759 288.444 205.502 288.38 205.202 288.38C204.887 288.38 204.611 288.448 204.372 288.585C204.132 288.721 203.948 288.913 203.818 289.159C203.688 289.405 203.623 289.695 203.623 290.03C203.623 290.371 203.692 290.672 203.828 290.932C203.965 291.185 204.16 291.383 204.413 291.526C204.665 291.663 204.956 291.731 205.284 291.731C205.557 291.731 205.807 291.683 206.032 291.588C206.264 291.492 206.463 291.349 206.627 291.157L207.221 291.762C206.989 292.035 206.702 292.244 206.36 292.387C206.025 292.531 205.666 292.602 205.284 292.602ZM208.524 292.5V287.631H209.447V292.5H208.524ZM209.447 289.722L209.098 289.569C209.098 288.947 209.242 288.451 209.529 288.082C209.816 287.713 210.229 287.529 210.769 287.529C211.015 287.529 211.237 287.573 211.435 287.662C211.633 287.744 211.818 287.884 211.989 288.082L211.384 288.708C211.281 288.598 211.169 288.52 211.046 288.472C210.923 288.424 210.779 288.4 210.615 288.4C210.273 288.4 209.993 288.509 209.775 288.728C209.556 288.947 209.447 289.278 209.447 289.722ZM212.308 290.327V289.456H215.68V290.327H212.308ZM219.738 292.602C219.205 292.602 218.717 292.452 218.273 292.152C217.835 291.851 217.487 291.427 217.227 290.881C216.967 290.327 216.838 289.678 216.838 288.933C216.838 288.188 216.964 287.542 217.217 286.996C217.477 286.449 217.825 286.029 218.262 285.735C218.7 285.434 219.181 285.284 219.708 285.284C220.247 285.284 220.736 285.434 221.173 285.735C221.611 286.029 221.956 286.449 222.209 286.996C222.468 287.542 222.598 288.192 222.598 288.943C222.598 289.688 222.468 290.337 222.209 290.891C221.956 291.437 221.611 291.861 221.173 292.162C220.743 292.456 220.265 292.602 219.738 292.602ZM219.718 291.69C220.094 291.69 220.422 291.588 220.702 291.383C220.989 291.171 221.214 290.86 221.378 290.45C221.542 290.04 221.624 289.534 221.624 288.933C221.624 288.332 221.542 287.829 221.378 287.426C221.214 287.016 220.989 286.709 220.702 286.504C220.415 286.292 220.083 286.186 219.708 286.186C219.339 286.186 219.011 286.292 218.724 286.504C218.437 286.709 218.211 287.016 218.047 287.426C217.89 287.829 217.811 288.332 217.811 288.933C217.811 289.534 217.89 290.04 218.047 290.45C218.211 290.86 218.437 291.171 218.724 291.383C219.011 291.588 219.342 291.69 219.718 291.69ZM224.856 292.5V285.387H225.809V292.5H224.856ZM223.4 286.248V285.387H225.706V286.248H223.4Z" fill="#343434"/>
<g clip-path="url(#clip7_38_323)">
<path d="M396.257 295.947C400.301 295.947 403.578 292.669 403.578 288.626C403.578 284.582 400.301 281.304 396.257 281.304C392.214 281.304 388.936 284.582 388.936 288.626C388.936 292.669 392.214 295.947 396.257 295.947Z" fill="#969696" stroke="#969696" stroke-width="0.732139" stroke-linecap="round" stroke-linejoin="round"/>
<path d="M396.257 285.697V291.554" stroke="white" stroke-width="1.09821" stroke-linecap="round" stroke-linejoin="round"/>
<path d="M393.328 288.626H399.186" stroke="white" stroke-width="1.09821" stroke-linecap="round" stroke-linejoin="round"/>
</g>
<path d="M420.679 281.179C424.727 281.179 428 284.451 428 288.5C428 292.549 424.727 295.821 420.679 295.821C416.63 295.821 413.357 292.549 413.357 288.5C413.357 284.451 416.63 281.179 420.679 281.179ZM424.339 284.839H422.509L421.777 284.107H419.58L418.848 284.839H417.018V286.304H424.339V284.839ZM418.482 292.893H422.875C423.069 292.893 423.255 292.816 423.393 292.678C423.53 292.541 423.607 292.355 423.607 292.161V287.036H417.75V292.161C417.75 292.355 417.827 292.541 417.964 292.678C418.102 292.816 418.288 292.893 418.482 292.893Z" fill="#969696"/>
<path d="M97.3422 335.558L100.477 327.897H101.228L104.352 335.558H103.226L100.654 329.078H101.04L98.4461 335.558H97.3422ZM98.8324 333.825V332.92H102.862V333.825H98.8324ZM109.124 335.558V332.5C109.124 332.103 108.999 331.775 108.748 331.518C108.498 331.26 108.174 331.132 107.777 331.132C107.512 331.132 107.277 331.19 107.071 331.308C106.864 331.426 106.703 331.588 106.585 331.794C106.467 332 106.408 332.235 106.408 332.5L106 332.269C106 331.871 106.088 331.518 106.265 331.209C106.441 330.9 106.688 330.657 107.004 330.48C107.321 330.296 107.678 330.204 108.075 330.204C108.472 330.204 108.822 330.304 109.124 330.502C109.433 330.701 109.676 330.962 109.852 331.286C110.029 331.603 110.117 331.941 110.117 332.302V335.558H109.124ZM105.415 335.558V330.315H106.408V335.558H105.415ZM113.129 335.668C112.835 335.668 112.555 335.632 112.29 335.558C112.033 335.477 111.793 335.367 111.573 335.227C111.352 335.08 111.161 334.907 110.999 334.708L111.639 334.068C111.83 334.303 112.051 334.48 112.301 334.598C112.551 334.708 112.831 334.763 113.14 334.763C113.449 334.763 113.688 334.712 113.858 334.609C114.027 334.498 114.112 334.348 114.112 334.156C114.112 333.965 114.042 333.818 113.902 333.715C113.769 333.604 113.596 333.516 113.383 333.45C113.17 333.376 112.942 333.306 112.699 333.24C112.463 333.166 112.239 333.074 112.025 332.964C111.812 332.854 111.635 332.703 111.495 332.511C111.363 332.32 111.297 332.066 111.297 331.75C111.297 331.433 111.374 331.161 111.529 330.933C111.683 330.697 111.897 330.517 112.169 330.392C112.448 330.267 112.783 330.204 113.173 330.204C113.585 330.204 113.95 330.278 114.266 330.425C114.59 330.565 114.855 330.778 115.061 331.065L114.421 331.706C114.274 331.514 114.09 331.367 113.869 331.264C113.655 331.161 113.413 331.109 113.14 331.109C112.853 331.109 112.632 331.161 112.478 331.264C112.331 331.36 112.257 331.496 112.257 331.672C112.257 331.849 112.323 331.985 112.456 332.081C112.588 332.177 112.761 332.258 112.975 332.324C113.195 332.39 113.424 332.46 113.659 332.533C113.895 332.6 114.119 332.692 114.332 332.809C114.546 332.927 114.719 333.085 114.851 333.284C114.991 333.483 115.061 333.744 115.061 334.068C115.061 334.561 114.884 334.951 114.531 335.238C114.185 335.525 113.718 335.668 113.129 335.668ZM117.674 335.558L115.599 330.315H116.637L118.138 334.399H117.807L119.297 330.315H119.871L121.361 334.399H121.03L122.532 330.315H123.569L121.505 335.558H120.92L119.408 331.595H119.772L118.248 335.558H117.674ZM126.73 335.668C126.207 335.668 125.736 335.551 125.317 335.315C124.897 335.072 124.566 334.745 124.323 334.333C124.081 333.921 123.959 333.453 123.959 332.931C123.959 332.416 124.077 331.952 124.312 331.54C124.555 331.128 124.879 330.804 125.284 330.569C125.696 330.326 126.156 330.204 126.664 330.204C127.149 330.204 127.576 330.315 127.944 330.535C128.319 330.756 128.61 331.062 128.816 331.452C129.03 331.842 129.136 332.283 129.136 332.776C129.136 332.85 129.133 332.931 129.125 333.019C129.118 333.1 129.103 333.196 129.081 333.306H124.655V332.478H128.551L128.187 332.798C128.187 332.445 128.124 332.147 127.999 331.904C127.874 331.654 127.698 331.463 127.469 331.33C127.241 331.19 126.965 331.121 126.642 331.121C126.303 331.121 126.005 331.194 125.747 331.341C125.49 331.488 125.291 331.695 125.151 331.959C125.012 332.224 124.942 332.537 124.942 332.898C124.942 333.266 125.015 333.59 125.162 333.869C125.31 334.141 125.519 334.355 125.792 334.509C126.064 334.657 126.377 334.73 126.73 334.73C127.024 334.73 127.293 334.679 127.536 334.576C127.786 334.473 127.999 334.318 128.176 334.112L128.816 334.763C128.566 335.058 128.257 335.282 127.889 335.437C127.528 335.591 127.142 335.668 126.73 335.668ZM130.22 335.558V330.315H131.213V335.558H130.22ZM131.213 332.567L130.838 332.401C130.838 331.731 130.992 331.198 131.301 330.8C131.61 330.403 132.056 330.204 132.637 330.204C132.902 330.204 133.141 330.252 133.355 330.348C133.568 330.436 133.767 330.587 133.951 330.8L133.299 331.474C133.189 331.356 133.068 331.271 132.935 331.22C132.803 331.168 132.648 331.143 132.472 331.143C132.104 331.143 131.802 331.26 131.566 331.496C131.331 331.731 131.213 332.088 131.213 332.567ZM136.198 335.668C135.904 335.668 135.624 335.632 135.36 335.558C135.102 335.477 134.863 335.367 134.642 335.227C134.421 335.08 134.23 334.907 134.068 334.708L134.708 334.068C134.9 334.303 135.12 334.48 135.371 334.598C135.621 334.708 135.9 334.763 136.21 334.763C136.519 334.763 136.758 334.712 136.927 334.609C137.096 334.498 137.181 334.348 137.181 334.156C137.181 333.965 137.111 333.818 136.971 333.715C136.839 333.604 136.666 333.516 136.452 333.45C136.239 333.376 136.011 333.306 135.768 333.24C135.532 333.166 135.308 333.074 135.095 332.964C134.881 332.854 134.705 332.703 134.565 332.511C134.432 332.32 134.366 332.066 134.366 331.75C134.366 331.433 134.443 331.161 134.598 330.933C134.752 330.697 134.966 330.517 135.238 330.392C135.518 330.267 135.853 330.204 136.243 330.204C136.655 330.204 137.019 330.278 137.335 330.425C137.659 330.565 137.924 330.778 138.13 331.065L137.49 331.706C137.343 331.514 137.159 331.367 136.938 331.264C136.725 331.161 136.482 331.109 136.21 331.109C135.922 331.109 135.702 331.161 135.547 331.264C135.4 331.36 135.326 331.496 135.326 331.672C135.326 331.849 135.393 331.985 135.525 332.081C135.658 332.177 135.831 332.258 136.044 332.324C136.265 332.39 136.493 332.46 136.728 332.533C136.964 332.6 137.188 332.692 137.402 332.809C137.615 332.927 137.788 333.085 137.921 333.284C138.06 333.483 138.13 333.744 138.13 334.068C138.13 334.561 137.954 334.951 137.6 335.238C137.255 335.525 136.787 335.668 136.198 335.668Z" fill="black"/>
<rect x="146" y="315" width="285" height="33.1163" rx="11.0388" fill="#F8F8F8"/>
<path d="M170.763 335.155C170.248 335.155 169.803 335.058 169.43 334.865C169.056 334.665 168.728 334.388 168.445 334.034L168.937 333.551C169.163 333.867 169.423 334.102 169.72 334.256C170.022 334.411 170.38 334.488 170.792 334.488C171.217 334.488 171.561 334.392 171.825 334.198C172.089 334.005 172.221 333.738 172.221 333.397C172.221 333.133 172.16 332.917 172.038 332.75C171.915 332.576 171.754 332.437 171.555 332.334C171.362 332.225 171.146 332.128 170.908 332.045C170.669 331.961 170.431 331.874 170.193 331.784C169.961 331.687 169.745 331.568 169.546 331.426C169.346 331.285 169.185 331.104 169.063 330.885C168.947 330.667 168.889 330.386 168.889 330.045C168.889 329.685 168.976 329.375 169.15 329.118C169.324 328.86 169.562 328.664 169.864 328.529C170.167 328.387 170.512 328.316 170.898 328.316C171.329 328.316 171.712 328.4 172.047 328.567C172.389 328.735 172.672 328.96 172.897 329.243L172.414 329.726C172.208 329.482 171.983 329.295 171.738 329.166C171.494 329.037 171.207 328.973 170.879 328.973C170.492 328.973 170.183 329.063 169.951 329.243C169.72 329.424 169.604 329.675 169.604 329.997C169.604 330.248 169.662 330.451 169.777 330.605C169.9 330.76 170.061 330.889 170.26 330.992C170.46 331.095 170.676 331.188 170.908 331.272C171.146 331.349 171.384 331.436 171.622 331.533C171.861 331.629 172.076 331.752 172.269 331.9C172.469 332.048 172.63 332.238 172.752 332.47C172.875 332.695 172.936 332.985 172.936 333.339C172.936 333.912 172.74 334.359 172.347 334.681C171.96 334.997 171.432 335.155 170.763 335.155ZM176.123 335.155C175.665 335.155 175.257 335.052 174.896 334.846C174.535 334.64 174.249 334.356 174.036 333.996C173.83 333.635 173.727 333.229 173.727 332.779C173.727 332.334 173.83 331.935 174.036 331.581C174.242 331.22 174.522 330.937 174.877 330.731C175.231 330.525 175.627 330.422 176.065 330.422C176.477 330.422 176.841 330.515 177.156 330.702C177.478 330.889 177.729 331.149 177.91 331.484C178.096 331.813 178.19 332.193 178.19 332.624C178.19 332.676 178.186 332.737 178.18 332.808C178.174 332.872 178.161 332.949 178.141 333.039H174.21V332.46H177.774L177.533 332.672C177.539 332.338 177.481 332.051 177.359 331.813C177.243 331.568 177.072 331.381 176.847 331.252C176.628 331.117 176.361 331.05 176.045 331.05C175.717 331.05 175.43 331.12 175.186 331.262C174.941 331.404 174.748 331.603 174.606 331.861C174.471 332.112 174.403 332.412 174.403 332.759C174.403 333.107 174.474 333.413 174.616 333.677C174.764 333.941 174.967 334.147 175.224 334.295C175.488 334.443 175.791 334.517 176.132 334.517C176.409 334.517 176.664 334.469 176.895 334.372C177.127 334.269 177.324 334.118 177.485 333.918L177.919 334.363C177.707 334.614 177.443 334.81 177.127 334.952C176.818 335.087 176.483 335.155 176.123 335.155ZM179.224 335.058V328.22H179.9V335.058H179.224ZM183.367 335.155C182.91 335.155 182.501 335.052 182.14 334.846C181.78 334.64 181.493 334.356 181.28 333.996C181.074 333.635 180.971 333.229 180.971 332.779C180.971 332.334 181.074 331.935 181.28 331.581C181.487 331.22 181.767 330.937 182.121 330.731C182.475 330.525 182.871 330.422 183.309 330.422C183.721 330.422 184.085 330.515 184.4 330.702C184.722 330.889 184.973 331.149 185.154 331.484C185.34 331.813 185.434 332.193 185.434 332.624C185.434 332.676 185.431 332.737 185.424 332.808C185.418 332.872 185.405 332.949 185.386 333.039H181.454V332.46H185.018L184.777 332.672C184.783 332.338 184.726 332.051 184.603 331.813C184.487 331.568 184.317 331.381 184.091 331.252C183.872 331.117 183.605 331.05 183.29 331.05C182.961 331.05 182.675 331.12 182.43 331.262C182.185 331.404 181.992 331.603 181.85 331.861C181.715 332.112 181.648 332.412 181.648 332.759C181.648 333.107 181.718 333.413 181.86 333.677C182.008 333.941 182.211 334.147 182.469 334.295C182.733 334.443 183.035 334.517 183.376 334.517C183.653 334.517 183.908 334.469 184.14 334.372C184.371 334.269 184.568 334.118 184.729 333.918L185.163 334.363C184.951 334.614 184.687 334.81 184.371 334.952C184.062 335.087 183.727 335.155 183.367 335.155ZM188.535 335.155C188.091 335.155 187.688 335.052 187.328 334.846C186.974 334.633 186.69 334.347 186.478 333.986C186.272 333.625 186.169 333.223 186.169 332.779C186.169 332.334 186.272 331.935 186.478 331.581C186.69 331.22 186.974 330.937 187.328 330.731C187.688 330.525 188.091 330.422 188.535 330.422C188.876 330.422 189.195 330.486 189.491 330.615C189.788 330.744 190.039 330.924 190.245 331.156L189.8 331.61C189.646 331.436 189.459 331.304 189.24 331.214C189.021 331.117 188.786 331.069 188.535 331.069C188.213 331.069 187.927 331.143 187.676 331.291C187.424 331.439 187.228 331.642 187.086 331.9C186.945 332.151 186.874 332.444 186.874 332.779C186.874 333.107 186.945 333.403 187.086 333.667C187.228 333.925 187.424 334.128 187.676 334.276C187.927 334.424 188.213 334.498 188.535 334.498C188.793 334.498 189.031 334.453 189.25 334.363C189.469 334.266 189.656 334.131 189.81 333.957L190.264 334.411C190.052 334.649 189.794 334.833 189.491 334.962C189.195 335.09 188.876 335.155 188.535 335.155ZM191.88 335.058V328.606H192.556V335.058H191.88ZM190.731 331.127V330.518H193.696V331.127H190.731ZM198.561 335.058V328.596H199.275V335.058H198.561ZM196.223 329.06V328.413H201.613V329.06H196.223ZM202.963 335.077L200.974 330.518H201.717L203.321 334.324H203.041L204.731 330.518H205.484L203.35 335.077H202.963ZM201.727 336.971L202.973 334.392L203.35 335.077L202.471 336.971H201.727ZM208.605 335.155C208.257 335.155 207.945 335.084 207.668 334.942C207.391 334.801 207.162 334.607 206.982 334.363C206.808 334.112 206.702 333.822 206.663 333.493V332.074C206.702 331.739 206.811 331.449 206.992 331.204C207.172 330.953 207.401 330.76 207.677 330.625C207.961 330.489 208.27 330.422 208.605 330.422C209.023 330.422 209.4 330.528 209.735 330.741C210.07 330.947 210.334 331.23 210.527 331.591C210.726 331.945 210.826 332.347 210.826 332.798C210.826 333.242 210.73 333.641 210.537 333.996C210.343 334.35 210.076 334.633 209.735 334.846C209.4 335.052 209.023 335.155 208.605 335.155ZM206.258 336.971V330.518H206.934V331.677L206.799 332.779L206.934 333.889V336.971H206.258ZM208.489 334.508C208.811 334.508 209.094 334.437 209.339 334.295C209.584 334.147 209.773 333.944 209.909 333.687C210.05 333.423 210.121 333.123 210.121 332.788C210.121 332.447 210.05 332.148 209.909 331.89C209.773 331.632 209.584 331.43 209.339 331.281C209.094 331.133 208.814 331.059 208.498 331.059C208.183 331.059 207.903 331.133 207.658 331.281C207.42 331.43 207.233 331.632 207.098 331.89C206.963 332.148 206.895 332.447 206.895 332.788C206.895 333.123 206.963 333.423 207.098 333.687C207.233 333.944 207.42 334.147 207.658 334.295C207.896 334.437 208.173 334.508 208.489 334.508ZM214.004 335.155C213.547 335.155 213.138 335.052 212.777 334.846C212.416 334.64 212.13 334.356 211.917 333.996C211.711 333.635 211.608 333.229 211.608 332.779C211.608 332.334 211.711 331.935 211.917 331.581C212.123 331.22 212.404 330.937 212.758 330.731C213.112 330.525 213.508 330.422 213.946 330.422C214.358 330.422 214.722 330.515 215.037 330.702C215.359 330.889 215.61 331.149 215.791 331.484C215.977 331.813 216.071 332.193 216.071 332.624C216.071 332.676 216.067 332.737 216.061 332.808C216.055 332.872 216.042 332.949 216.022 333.039H212.091V332.46H215.655L215.414 332.672C215.42 332.338 215.362 332.051 215.24 331.813C215.124 331.568 214.953 331.381 214.728 331.252C214.509 331.117 214.242 331.05 213.926 331.05C213.598 331.05 213.311 331.12 213.067 331.262C212.822 331.404 212.629 331.603 212.487 331.861C212.352 332.112 212.284 332.412 212.284 332.759C212.284 333.107 212.355 333.413 212.497 333.677C212.645 333.941 212.848 334.147 213.105 334.295C213.369 334.443 213.672 334.517 214.013 334.517C214.29 334.517 214.545 334.469 214.776 334.372C215.008 334.269 215.205 334.118 215.366 333.918L215.8 334.363C215.588 334.614 215.324 334.81 215.008 334.952C214.699 335.087 214.364 335.155 214.004 335.155Z" fill="#969696"/>
<path d="M403.173 330.121L406.048 332.996L408.922 330.121H403.173Z" fill="#969696"/>
<path d="M396 349.594C418.149 365.63 460.738 391.041 453.903 364.396C445.36 331.091 396 302.411 429.223 305.186C455.802 307.406 456.751 314.129 453.903 317.213" stroke="#3F87FE" stroke-width="1.06494" stroke-linecap="round"/>
<path d="M473.334 293.777C474.407 292.703 476.149 292.703 477.223 293.777C478.297 294.851 478.297 296.592 477.223 297.666L463.038 311.851C462.294 312.595 461.301 313.037 460.25 313.093L457.777 313.223L457.907 310.75C457.963 309.699 458.405 308.706 459.149 307.962L473.334 293.777Z" stroke="#3F87FE" stroke-width="1.5974" stroke-linejoin="round"/>
<path d="M471.389 295.722L475.278 299.611" stroke="#3F87FE" stroke-width="1.5974" stroke-linecap="round"/>
<defs>
<clipPath id="clip0_38_323">
<rect width="12" height="12" fill="white" transform="translate(314 365.5)"/>
</clipPath>
<clipPath id="clip1_38_323">
<rect width="14" height="14" fill="white" transform="translate(417 364.5)"/>
</clipPath>
<clipPath id="clip2_38_323">
<rect width="12.408" height="12.408" fill="white" transform="translate(414.926 195.759)"/>
</clipPath>
<clipPath id="clip3_38_323">
<rect width="9" height="9" fill="white" transform="translate(299.283 170.629)"/>
</clipPath>
<clipPath id="clip4_38_323">
<rect width="11.8241" height="8.0404" fill="white" transform="translate(320.55 170.902)"/>
</clipPath>
<clipPath id="clip5_38_323">
<rect width="12.7787" height="12.7787" fill="white" transform="translate(112.027 141.389)"/>
</clipPath>
<clipPath id="clip6_38_323">
<rect width="16.1071" height="16.1071" fill="white" transform="translate(388.464 239.446)"/>
</clipPath>
<clipPath id="clip7_38_323">
<rect width="16.1071" height="16.1071" fill="white" transform="translate(388.464 280.446)"/>
</clipPath>
</defs>
</svg>
