<svg width="189" height="22" viewBox="0 0 189 22" fill="none" xmlns="http://www.w3.org/2000/svg">
<path d="M14.1302 16.98H5.79022L4.41022 20.97H0.00021486L7.53022 -3.11136e-05H12.4202L19.9502 20.97H15.5102L14.1302 16.98ZM12.9902 13.62L9.96022 4.85997L6.93021 13.62H12.9902ZM45.8048 4.34997L40.9448 20.97H36.4148L33.3848 9.35997L30.3548 20.97H25.7948L20.9048 4.34997H25.1648L28.1048 17.01L31.2848 4.34997H35.7248L38.8448 16.98L41.7848 4.34997H45.8048ZM71.1173 4.34997L66.2573 20.97H61.7273L58.6973 9.35997L55.6673 20.97H51.1073L46.2173 4.34997H50.4773L53.4173 17.01L56.5973 4.34997H61.0373L64.1573 16.98L67.0973 4.34997H71.1173ZM96.4298 4.34997L91.5698 20.97H87.0398L84.0098 9.35997L80.9798 20.97H76.4198L71.5298 4.34997H75.7898L78.7298 17.01L81.9098 4.34997H86.3498L89.4698 16.98L92.4098 4.34997H96.4298ZM185.992 21.18C185.232 21.18 184.602 20.95 184.102 20.49C183.622 20.01 183.382 19.42 183.382 18.72C183.382 18.02 183.622 17.44 184.102 16.98C184.602 16.5 185.232 16.26 185.992 16.26C186.732 16.26 187.342 16.5 187.822 16.98C188.302 17.44 188.542 18.02 188.542 18.72C188.542 19.42 188.302 20.01 187.822 20.49C187.342 20.95 186.732 21.18 185.992 21.18Z" fill="#4E42D9"/>
<path d="M105.062 21.24C103.702 21.24 102.482 21 101.402 20.52C100.322 20.02 99.4623 19.35 98.8223 18.51C98.2023 17.67 97.8623 16.74 97.8023 15.72H102.032C102.112 16.36 102.422 16.89 102.962 17.31C103.522 17.73 104.212 17.94 105.032 17.94C105.832 17.94 106.452 17.78 106.892 17.46C107.352 17.14 107.582 16.73 107.582 16.23C107.582 15.69 107.302 15.29 106.742 15.03C106.202 14.75 105.332 14.45 104.132 14.13C102.892 13.83 101.872 13.52 101.072 13.2C100.292 12.88 99.6123 12.39 99.0323 11.73C98.4723 11.07 98.1923 10.18 98.1923 9.05997C98.1923 8.13997 98.4523 7.29997 98.9723 6.53997C99.5123 5.77997 100.272 5.17997 101.252 4.73997C102.252 4.29997 103.422 4.07997 104.762 4.07997C106.742 4.07997 108.322 4.57997 109.502 5.57997C110.682 6.55997 111.332 7.88997 111.452 9.56997H107.432C107.372 8.90997 107.092 8.38997 106.592 8.00997C106.112 7.60997 105.462 7.40997 104.642 7.40997C103.882 7.40997 103.292 7.54997 102.872 7.82997C102.472 8.10997 102.272 8.49997 102.272 8.99997C102.272 9.55997 102.552 9.98997 103.112 10.29C103.672 10.57 104.542 10.86 105.722 11.16C106.922 11.46 107.912 11.77 108.692 12.09C109.472 12.41 110.142 12.91 110.702 13.59C111.282 14.25 111.582 15.13 111.602 16.23C111.602 17.19 111.332 18.05 110.792 18.81C110.272 19.57 109.512 20.17 108.512 20.61C107.532 21.03 106.382 21.24 105.062 21.24ZM122.43 21.24C120.83 21.24 119.39 20.89 118.11 20.19C116.83 19.47 115.82 18.46 115.08 17.16C114.36 15.86 114 14.36 114 12.66C114 10.96 114.37 9.45997 115.11 8.15997C115.87 6.85997 116.9 5.85997 118.2 5.15997C119.5 4.43997 120.95 4.07997 122.55 4.07997C124.15 4.07997 125.6 4.43997 126.9 5.15997C128.2 5.85997 129.22 6.85997 129.96 8.15997C130.72 9.45997 131.1 10.96 131.1 12.66C131.1 14.36 130.71 15.86 129.93 17.16C129.17 18.46 128.13 19.47 126.81 20.19C125.51 20.89 124.05 21.24 122.43 21.24ZM122.43 17.58C123.19 17.58 123.9 17.4 124.56 17.04C125.24 16.66 125.78 16.1 126.18 15.36C126.58 14.62 126.78 13.72 126.78 12.66C126.78 11.08 126.36 9.86997 125.52 9.02997C124.7 8.16997 123.69 7.73997 122.49 7.73997C121.29 7.73997 120.28 8.16997 119.46 9.02997C118.66 9.86997 118.26 11.08 118.26 12.66C118.26 14.24 118.65 15.46 119.43 16.32C120.23 17.16 121.23 17.58 122.43 17.58ZM154.821 4.10997C156.861 4.10997 158.501 4.73997 159.741 5.99997C161.001 7.23997 161.631 8.97997 161.631 11.22V20.97H157.431V11.79C157.431 10.49 157.101 9.49997 156.441 8.81997C155.781 8.11997 154.881 7.76997 153.741 7.76997C152.601 7.76997 151.691 8.11997 151.011 8.81997C150.351 9.49997 150.021 10.49 150.021 11.79V20.97H145.821V11.79C145.821 10.49 145.491 9.49997 144.831 8.81997C144.171 8.11997 143.271 7.76997 142.131 7.76997C140.971 7.76997 140.051 8.11997 139.371 8.81997C138.711 9.49997 138.381 10.49 138.381 11.79V20.97H134.181V4.34997H138.381V6.35997C138.921 5.65997 139.611 5.10997 140.451 4.70997C141.311 4.30997 142.251 4.10997 143.271 4.10997C144.571 4.10997 145.731 4.38997 146.751 4.94997C147.771 5.48997 148.561 6.26997 149.121 7.28997C149.661 6.32997 150.441 5.55997 151.461 4.97997C152.501 4.39997 153.621 4.10997 154.821 4.10997ZM181.066 12.3C181.066 12.9 181.026 13.44 180.946 13.92H168.796C168.896 15.12 169.316 16.06 170.056 16.74C170.796 17.42 171.706 17.76 172.786 17.76C174.346 17.76 175.456 17.09 176.116 15.75H180.646C180.166 17.35 179.246 18.67 177.886 19.71C176.526 20.73 174.856 21.24 172.876 21.24C171.276 21.24 169.836 20.89 168.556 20.19C167.296 19.47 166.306 18.46 165.586 17.16C164.886 15.86 164.536 14.36 164.536 12.66C164.536 10.94 164.886 9.42997 165.586 8.12997C166.286 6.82997 167.266 5.82997 168.526 5.12997C169.786 4.42997 171.236 4.07997 172.876 4.07997C174.456 4.07997 175.866 4.41997 177.106 5.09997C178.366 5.77997 179.336 6.74997 180.016 8.00997C180.716 9.24997 181.066 10.68 181.066 12.3ZM176.716 11.1C176.696 10.02 176.306 9.15997 175.546 8.51997C174.786 7.85997 173.856 7.52997 172.756 7.52997C171.716 7.52997 170.836 7.84997 170.116 8.48997C169.416 9.10997 168.986 9.97997 168.826 11.1H176.716Z" fill="#363636"/>
</svg>
