<svg width="142" height="32" viewBox="0 0 142 32" fill="none" xmlns="http://www.w3.org/2000/svg">
<g clip-path="url(#clip0_5_52)">
<path fill-rule="evenodd" clip-rule="evenodd" d="M6.65781 2.80809C5.54413 3.58886 4.53705 4.51198 3.66282 5.55114C7.23533 5.2186 11.7741 5.7616 17.0435 8.40326C22.6706 11.2241 27.2017 11.3195 30.3552 10.7096C30.069 9.841 29.7088 9.00619 29.2821 8.21259C25.6722 8.59432 21.0444 8.08904 15.651 5.38535C12.2262 3.66843 9.20724 2.96117 6.65781 2.80809ZM27.1734 5.20324C24.3227 2.00975 20.1799 0 15.5688 0C14.2147 0 12.9009 0.173352 11.6484 0.499106C13.3447 0.963188 15.1468 1.64213 17.0435 2.59299C20.9922 4.57251 24.4014 5.20988 27.1734 5.20324ZM31.0294 13.7585C27.2197 14.5128 21.9589 14.3578 15.651 11.1956C9.75386 8.23928 5.06021 8.27651 1.89465 8.98184C1.73126 9.01821 1.57171 9.05645 1.41601 9.09625C1.00156 9.99998 0.670733 10.9503 0.433361 11.9372C0.686887 11.8692 0.948868 11.8047 1.21917 11.7444C5.05955 10.8888 10.4857 10.926 17.0435 14.2135C22.9408 17.1699 27.6344 17.1326 30.8 16.4273C30.9084 16.4032 31.0153 16.3782 31.1204 16.3524C31.1319 16.1064 31.1377 15.8587 31.1377 15.6097C31.1377 14.9834 31.101 14.3656 31.0294 13.7585ZM30.6121 19.6467C26.8394 20.308 21.7318 20.0541 15.651 17.0059C9.75386 14.0495 5.06021 14.0868 1.89465 14.7921C1.19199 14.9486 0.559887 15.1393 0.00228084 15.3405C0.000760539 15.4301 0 15.5198 0 15.6097C0 24.2308 6.97041 31.2195 15.5688 31.2195C22.775 31.2195 28.8376 26.3109 30.6121 19.6467Z" fill="#5A35FF"/>
<path d="M44.1057 22.2897C43.0857 22.2897 42.2097 22.1157 41.4777 21.7677C40.7577 21.4197 40.1037 20.8977 39.5157 20.2017L41.1357 18.5817C41.5077 19.0737 41.9397 19.4577 42.4317 19.7337C42.9237 19.9977 43.5237 20.1297 44.2317 20.1297C44.8677 20.1297 45.3717 20.0037 45.7437 19.7517C46.1277 19.4997 46.3197 19.1517 46.3197 18.7077C46.3197 18.3237 46.2117 18.0117 45.9957 17.7717C45.7797 17.5317 45.4917 17.3277 45.1317 17.1597C44.7837 16.9917 44.3937 16.8417 43.9617 16.7097C43.5417 16.5657 43.1157 16.4037 42.6837 16.2237C42.2637 16.0437 41.8737 15.8217 41.5137 15.5577C41.1657 15.2817 40.8837 14.9337 40.6677 14.5137C40.4517 14.0817 40.3437 13.5417 40.3437 12.8937C40.3437 12.1257 40.5297 11.4717 40.9017 10.9317C41.2737 10.3917 41.7837 9.97774 42.4317 9.68974C43.0797 9.40174 43.8117 9.25774 44.6277 9.25774C45.4917 9.25774 46.2717 9.41974 46.9677 9.74374C47.6637 10.0677 48.2337 10.4877 48.6777 11.0037L47.0577 12.6237C46.6857 12.2157 46.3017 11.9157 45.9057 11.7237C45.5217 11.5317 45.0837 11.4357 44.5917 11.4357C44.0277 11.4357 43.5837 11.5437 43.2597 11.7597C42.9357 11.9757 42.7737 12.2877 42.7737 12.6957C42.7737 13.0437 42.8817 13.3257 43.0977 13.5417C43.3137 13.7577 43.5957 13.9437 43.9437 14.0997C44.3037 14.2557 44.6937 14.4057 45.1137 14.5497C45.5457 14.6937 45.9717 14.8557 46.3917 15.0357C46.8237 15.2157 47.2137 15.4497 47.5617 15.7377C47.9217 16.0257 48.2097 16.3977 48.4257 16.8537C48.6417 17.2977 48.7497 17.8497 48.7497 18.5097C48.7497 19.6857 48.3357 20.6097 47.5077 21.2817C46.6797 21.9537 45.5457 22.2897 44.1057 22.2897ZM54.1377 22.2897C53.3697 22.2897 52.6857 22.1277 52.0857 21.8037C51.4977 21.4797 51.0357 21.0297 50.6997 20.4537C50.3637 19.8777 50.1957 19.2117 50.1957 18.4557V13.4157H52.5717V18.4017C52.5717 18.7617 52.6317 19.0737 52.7517 19.3377C52.8717 19.5897 53.0517 19.7817 53.2917 19.9137C53.5317 20.0457 53.8137 20.1117 54.1377 20.1117C54.6297 20.1117 55.0137 19.9617 55.2897 19.6617C55.5657 19.3617 55.7037 18.9417 55.7037 18.4017V13.4157H58.0617V18.4557C58.0617 19.2237 57.8937 19.8957 57.5577 20.4717C57.2337 21.0477 56.7717 21.4977 56.1717 21.8217C55.5837 22.1337 54.9057 22.2897 54.1377 22.2897ZM59.9395 22.1097V13.4157H62.2975V22.1097H59.9395ZM62.2975 17.3037L61.3795 16.6917C61.4875 15.6237 61.7995 14.7837 62.3155 14.1717C62.8315 13.5477 63.5755 13.2357 64.5475 13.2357C64.9675 13.2357 65.3455 13.3077 65.6815 13.4517C66.0175 13.5837 66.3235 13.8057 66.5995 14.1177L65.1235 15.8097C64.9915 15.6657 64.8295 15.5577 64.6375 15.4857C64.4575 15.4137 64.2475 15.3777 64.0075 15.3777C63.5035 15.3777 63.0895 15.5397 62.7655 15.8637C62.4535 16.1757 62.2975 16.6557 62.2975 17.3037ZM70.1659 22.1097L66.3319 13.4157H68.9239L71.6779 20.5797H70.3999L73.1719 13.4157H75.6739L71.8579 22.1097H70.1659ZM80.6561 22.2897C79.7441 22.2897 78.9341 22.0977 78.2261 21.7137C77.5181 21.3177 76.9541 20.7777 76.5341 20.0937C76.1261 19.4097 75.9221 18.6297 75.9221 17.7537C75.9221 16.8897 76.1201 16.1217 76.5161 15.4497C76.9241 14.7657 77.4761 14.2257 78.1721 13.8297C78.8681 13.4217 79.6421 13.2177 80.4941 13.2177C81.3341 13.2177 82.0721 13.4097 82.7081 13.7937C83.3561 14.1657 83.8601 14.6817 84.2201 15.3417C84.5921 15.9897 84.7781 16.7277 84.7781 17.5557C84.7781 17.7117 84.7661 17.8737 84.7421 18.0417C84.7301 18.1977 84.7001 18.3777 84.6521 18.5817L77.3441 18.5997V16.8357L83.5541 16.8177L82.6001 17.5557C82.5761 17.0397 82.4801 16.6077 82.3121 16.2597C82.1561 15.9117 81.9221 15.6477 81.6101 15.4677C81.3101 15.2757 80.9381 15.1797 80.4941 15.1797C80.0261 15.1797 79.6181 15.2877 79.2701 15.5037C78.9221 15.7077 78.6521 16.0017 78.4601 16.3857C78.2801 16.7577 78.1901 17.2017 78.1901 17.7177C78.1901 18.2457 78.2861 18.7077 78.4781 19.1037C78.6821 19.4877 78.9701 19.7877 79.3421 20.0037C79.7141 20.2077 80.1461 20.3097 80.6381 20.3097C81.0821 20.3097 81.4841 20.2377 81.8441 20.0937C82.2041 19.9377 82.5161 19.7097 82.7801 19.4097L84.1661 20.7957C83.7461 21.2877 83.2301 21.6597 82.6181 21.9117C82.0181 22.1637 81.3641 22.2897 80.6561 22.2897ZM88.8318 22.1817L85.1958 13.4157H87.7518L90.1638 20.1117H89.2998L91.8018 13.4157H94.3758L90.5058 22.1817H88.8318ZM86.4198 25.7457L89.0658 20.1477L90.5058 22.1817L88.9218 25.7457H86.4198ZM99.4944 22.2897C98.4744 22.2897 97.5984 22.1157 96.8664 21.7677C96.1464 21.4197 95.4924 20.8977 94.9044 20.2017L96.5244 18.5817C96.8964 19.0737 97.3284 19.4577 97.8204 19.7337C98.3124 19.9977 98.9124 20.1297 99.6204 20.1297C100.256 20.1297 100.76 20.0037 101.132 19.7517C101.516 19.4997 101.708 19.1517 101.708 18.7077C101.708 18.3237 101.6 18.0117 101.384 17.7717C101.168 17.5317 100.88 17.3277 100.52 17.1597C100.172 16.9917 99.7824 16.8417 99.3504 16.7097C98.9304 16.5657 98.5044 16.4037 98.0724 16.2237C97.6524 16.0437 97.2624 15.8217 96.9024 15.5577C96.5544 15.2817 96.2724 14.9337 96.0564 14.5137C95.8404 14.0817 95.7324 13.5417 95.7324 12.8937C95.7324 12.1257 95.9184 11.4717 96.2904 10.9317C96.6624 10.3917 97.1724 9.97774 97.8204 9.68974C98.4684 9.40174 99.2004 9.25774 100.016 9.25774C100.88 9.25774 101.66 9.41974 102.356 9.74374C103.052 10.0677 103.622 10.4877 104.066 11.0037L102.446 12.6237C102.074 12.2157 101.69 11.9157 101.294 11.7237C100.91 11.5317 100.472 11.4357 99.9804 11.4357C99.4164 11.4357 98.9724 11.5437 98.6484 11.7597C98.3244 11.9757 98.1624 12.2877 98.1624 12.6957C98.1624 13.0437 98.2704 13.3257 98.4864 13.5417C98.7024 13.7577 98.9844 13.9437 99.3324 14.0997C99.6924 14.2557 100.082 14.4057 100.502 14.5497C100.934 14.6937 101.36 14.8557 101.78 15.0357C102.212 15.2157 102.602 15.4497 102.95 15.7377C103.31 16.0257 103.598 16.3977 103.814 16.8537C104.03 17.2977 104.138 17.8497 104.138 18.5097C104.138 19.6857 103.724 20.6097 102.896 21.2817C102.068 21.9537 100.934 22.2897 99.4944 22.2897ZM111.668 22.1097V17.1237C111.668 16.6077 111.506 16.1877 111.182 15.8637C110.858 15.5397 110.438 15.3777 109.922 15.3777C109.586 15.3777 109.286 15.4497 109.022 15.5937C108.758 15.7377 108.548 15.9417 108.392 16.2057C108.248 16.4697 108.176 16.7757 108.176 17.1237L107.258 16.6557C107.258 15.9717 107.402 15.3777 107.69 14.8737C107.978 14.3577 108.374 13.9557 108.878 13.6677C109.394 13.3797 109.982 13.2357 110.642 13.2357C111.302 13.2357 111.884 13.3797 112.388 13.6677C112.904 13.9557 113.306 14.3517 113.594 14.8557C113.882 15.3597 114.026 15.9417 114.026 16.6017V22.1097H111.668ZM105.818 22.1097V9.09574H108.176V22.1097H105.818ZM119.562 22.2897C118.77 22.2897 118.056 22.0917 117.42 21.6957C116.784 21.2997 116.286 20.7597 115.926 20.0757C115.566 19.3917 115.386 18.6237 115.386 17.7717C115.386 16.9077 115.566 16.1337 115.926 15.4497C116.286 14.7657 116.784 14.2257 117.42 13.8297C118.056 13.4337 118.77 13.2357 119.562 13.2357C120.186 13.2357 120.744 13.3617 121.236 13.6137C121.728 13.8657 122.118 14.2197 122.406 14.6757C122.706 15.1197 122.868 15.6237 122.892 16.1877V19.3197C122.868 19.8957 122.706 20.4057 122.406 20.8497C122.118 21.2937 121.728 21.6477 121.236 21.9117C120.744 22.1637 120.186 22.2897 119.562 22.2897ZM119.994 20.1117C120.654 20.1117 121.188 19.8957 121.596 19.4637C122.004 19.0197 122.208 18.4497 122.208 17.7537C122.208 17.2977 122.112 16.8957 121.92 16.5477C121.74 16.1877 121.482 15.9117 121.146 15.7197C120.822 15.5157 120.438 15.4137 119.994 15.4137C119.562 15.4137 119.178 15.5157 118.842 15.7197C118.518 15.9117 118.26 16.1877 118.068 16.5477C117.888 16.8957 117.798 17.2977 117.798 17.7537C117.798 18.2217 117.888 18.6357 118.068 18.9957C118.26 19.3437 118.518 19.6197 118.842 19.8237C119.178 20.0157 119.562 20.1117 119.994 20.1117ZM122.082 22.1097V19.7697L122.46 17.6457L122.082 15.5577V13.4157H124.422V22.1097H122.082ZM126.508 22.1097V9.09574H128.866V22.1097H126.508ZM134.591 22.2897C133.799 22.2897 133.085 22.0917 132.449 21.6957C131.813 21.2997 131.315 20.7597 130.955 20.0757C130.595 19.3917 130.415 18.6237 130.415 17.7717C130.415 16.9077 130.595 16.1337 130.955 15.4497C131.315 14.7657 131.813 14.2257 132.449 13.8297C133.085 13.4337 133.799 13.2357 134.591 13.2357C135.215 13.2357 135.773 13.3617 136.265 13.6137C136.757 13.8657 137.147 14.2197 137.435 14.6757C137.735 15.1197 137.897 15.6237 137.921 16.1877V19.3197C137.897 19.8957 137.735 20.4057 137.435 20.8497C137.147 21.2937 136.757 21.6477 136.265 21.9117C135.773 22.1637 135.215 22.2897 134.591 22.2897ZM135.023 20.1117C135.683 20.1117 136.217 19.8957 136.625 19.4637C137.033 19.0197 137.237 18.4497 137.237 17.7537C137.237 17.2977 137.141 16.8957 136.949 16.5477C136.769 16.1877 136.511 15.9117 136.175 15.7197C135.851 15.5157 135.467 15.4137 135.023 15.4137C134.591 15.4137 134.207 15.5157 133.871 15.7197C133.547 15.9117 133.289 16.1877 133.097 16.5477C132.917 16.8957 132.827 17.2977 132.827 17.7537C132.827 18.2217 132.917 18.6357 133.097 18.9957C133.289 19.3437 133.547 19.6197 133.871 19.8237C134.207 20.0157 134.591 20.1117 135.023 20.1117ZM137.111 22.1097V19.7697L137.489 17.6457L137.111 15.5577V13.4157H139.451V22.1097H137.111Z" fill="#321D8C"/>
</g>
<defs>
<clipPath id="clip0_5_52">
<rect width="141.138" height="31.2195" fill="white"/>
</clipPath>
</defs>
</svg>
