<svg width="644" height="405" viewBox="0 0 644 405" fill="none" xmlns="http://www.w3.org/2000/svg">
<g clip-path="url(#clip0_129_304)">
<path d="M0 50C0 22.3858 22.3858 0 50 0H708V482H0V50Z" fill="#F3F5F7"/>
<rect width="654" height="454.566" transform="translate(157 65)" fill="white"/>
<path d="M187.451 108.238L191.95 104.489C193.857 102.9 195.11 103.063 196.756 104.71L196.763 104.717C198.557 106.511 199.843 106.436 201.63 104.872L208.451 98.9043" stroke="black" stroke-width="1.5" stroke-linecap="round" stroke-linejoin="round"/>
<path d="M208.451 114.655H194.917C192.304 114.655 190.997 114.655 189.999 114.146C189.121 113.699 188.407 112.985 187.959 112.107C187.451 111.108 187.451 109.801 187.451 107.188V93.6548" stroke="black" stroke-width="1.5" stroke-linecap="round" stroke-linejoin="round"/>
<path d="M231.031 112.894C229.703 112.894 228.575 112.654 227.647 112.174C226.719 111.694 225.887 110.99 225.151 110.062L227.023 108.19C227.487 108.862 228.039 109.39 228.679 109.774C229.319 110.142 230.135 110.326 231.127 110.326C232.055 110.326 232.791 110.134 233.335 109.75C233.895 109.366 234.175 108.838 234.175 108.166C234.175 107.606 234.031 107.15 233.743 106.798C233.455 106.446 233.071 106.158 232.591 105.934C232.127 105.694 231.607 105.486 231.031 105.31C230.471 105.118 229.903 104.91 229.327 104.686C228.767 104.446 228.247 104.15 227.767 103.798C227.303 103.446 226.927 102.99 226.639 102.43C226.351 101.87 226.207 101.158 226.207 100.294C226.207 99.3023 226.447 98.4623 226.927 97.7743C227.423 97.0703 228.087 96.5343 228.919 96.1663C229.751 95.7983 230.679 95.6143 231.703 95.6143C232.807 95.6143 233.791 95.8303 234.655 96.2623C235.535 96.6943 236.247 97.2463 236.791 97.9183L234.919 99.7903C234.439 99.2463 233.935 98.8463 233.407 98.5903C232.895 98.3183 232.303 98.1823 231.631 98.1823C230.799 98.1823 230.143 98.3503 229.663 98.6863C229.199 99.0223 228.967 99.4943 228.967 100.102C228.967 100.614 229.111 101.03 229.399 101.35C229.687 101.654 230.063 101.918 230.527 102.142C231.007 102.35 231.527 102.55 232.087 102.742C232.663 102.934 233.231 103.15 233.791 103.39C234.367 103.63 234.887 103.942 235.351 104.326C235.831 104.694 236.215 105.174 236.503 105.766C236.791 106.358 236.935 107.102 236.935 107.998C236.935 109.502 236.399 110.694 235.327 111.574C234.271 112.454 232.839 112.894 231.031 112.894ZM241.079 112.654V96.3343H243.719V112.654H241.079ZM238.319 103.534V101.134H246.479V103.534H238.319ZM252.894 112.894C251.854 112.894 250.91 112.63 250.062 112.102C249.23 111.574 248.566 110.862 248.07 109.966C247.59 109.054 247.35 108.038 247.35 106.918C247.35 105.782 247.59 104.766 248.07 103.87C248.566 102.958 249.23 102.238 250.062 101.71C250.91 101.166 251.854 100.894 252.894 100.894C253.774 100.894 254.55 101.086 255.222 101.47C255.91 101.838 256.454 102.35 256.854 103.006C257.254 103.662 257.454 104.406 257.454 105.238V108.55C257.454 109.382 257.254 110.126 256.854 110.782C256.47 111.438 255.934 111.958 255.246 112.342C254.558 112.71 253.774 112.894 252.894 112.894ZM253.326 110.398C254.302 110.398 255.086 110.07 255.678 109.414C256.286 108.758 256.59 107.918 256.59 106.894C256.59 106.206 256.454 105.598 256.182 105.07C255.91 104.542 255.526 104.134 255.03 103.846C254.55 103.542 253.982 103.39 253.326 103.39C252.686 103.39 252.118 103.542 251.622 103.846C251.142 104.134 250.758 104.542 250.47 105.07C250.198 105.598 250.062 106.206 250.062 106.894C250.062 107.582 250.198 108.19 250.47 108.718C250.758 109.246 251.142 109.662 251.622 109.966C252.118 110.254 252.686 110.398 253.326 110.398ZM256.422 112.654V109.558L256.878 106.75L256.422 103.966V101.134H259.062V112.654H256.422ZM263.743 112.654V96.3343H266.383V112.654H263.743ZM260.983 103.534V101.134H269.143V103.534H260.983ZM271.086 112.654V101.134H273.726V112.654H271.086ZM272.406 99.0223C271.958 99.0223 271.582 98.8703 271.278 98.5663C270.99 98.2623 270.846 97.8863 270.846 97.4383C270.846 96.9903 270.99 96.6143 271.278 96.3103C271.582 96.0063 271.958 95.8543 272.406 95.8543C272.87 95.8543 273.246 96.0063 273.534 96.3103C273.822 96.6143 273.966 96.9903 273.966 97.4383C273.966 97.8863 273.822 98.2623 273.534 98.5663C273.246 98.8703 272.87 99.0223 272.406 99.0223ZM280.455 112.894C279.815 112.894 279.199 112.814 278.607 112.654C278.015 112.478 277.471 112.238 276.975 111.934C276.479 111.614 276.047 111.23 275.679 110.782L277.359 109.102C277.759 109.566 278.215 109.918 278.727 110.158C279.255 110.382 279.847 110.494 280.503 110.494C281.095 110.494 281.543 110.406 281.847 110.23C282.151 110.054 282.303 109.798 282.303 109.462C282.303 109.11 282.159 108.838 281.871 108.646C281.583 108.454 281.207 108.294 280.743 108.166C280.295 108.022 279.815 107.878 279.303 107.734C278.807 107.59 278.327 107.398 277.863 107.158C277.415 106.902 277.047 106.558 276.759 106.126C276.471 105.694 276.327 105.134 276.327 104.446C276.327 103.71 276.495 103.078 276.831 102.55C277.183 102.022 277.671 101.614 278.295 101.326C278.935 101.038 279.695 100.894 280.575 100.894C281.503 100.894 282.319 101.062 283.023 101.398C283.743 101.718 284.343 102.206 284.823 102.862L283.143 104.542C282.807 104.126 282.423 103.814 281.991 103.606C281.559 103.398 281.063 103.294 280.503 103.294C279.975 103.294 279.567 103.374 279.279 103.534C278.991 103.694 278.847 103.926 278.847 104.23C278.847 104.55 278.991 104.798 279.279 104.974C279.567 105.15 279.935 105.302 280.383 105.43C280.847 105.558 281.327 105.702 281.823 105.862C282.335 106.006 282.815 106.214 283.263 106.486C283.727 106.742 284.103 107.094 284.391 107.542C284.679 107.974 284.823 108.542 284.823 109.246C284.823 110.366 284.431 111.254 283.647 111.91C282.863 112.566 281.799 112.894 280.455 112.894ZM288.751 112.654V96.3343H291.391V112.654H288.751ZM285.991 103.534V101.134H294.151V103.534H285.991ZM296.094 112.654V101.134H298.734V112.654H296.094ZM297.414 99.0223C296.966 99.0223 296.59 98.8703 296.286 98.5663C295.998 98.2623 295.854 97.8863 295.854 97.4383C295.854 96.9903 295.998 96.6143 296.286 96.3103C296.59 96.0063 296.966 95.8543 297.414 95.8543C297.878 95.8543 298.254 96.0063 298.542 96.3103C298.83 96.6143 298.974 96.9903 298.974 97.4383C298.974 97.8863 298.83 98.2623 298.542 98.5663C298.254 98.8703 297.878 99.0223 297.414 99.0223ZM306.999 112.894C305.863 112.894 304.831 112.63 303.903 112.102C302.991 111.574 302.271 110.854 301.743 109.942C301.215 109.03 300.951 108.014 300.951 106.894C300.951 105.758 301.215 104.742 301.743 103.846C302.271 102.934 302.991 102.214 303.903 101.686C304.831 101.158 305.863 100.894 306.999 100.894C307.895 100.894 308.727 101.07 309.495 101.422C310.279 101.758 310.943 102.246 311.487 102.886L309.759 104.638C309.423 104.238 309.015 103.942 308.535 103.75C308.071 103.542 307.559 103.438 306.999 103.438C306.343 103.438 305.759 103.59 305.247 103.894C304.751 104.182 304.359 104.582 304.071 105.094C303.799 105.606 303.663 106.206 303.663 106.894C303.663 107.566 303.799 108.166 304.071 108.694C304.359 109.206 304.751 109.614 305.247 109.918C305.759 110.206 306.343 110.35 306.999 110.35C307.559 110.35 308.071 110.254 308.535 110.062C309.015 109.854 309.423 109.55 309.759 109.15L311.487 110.902C310.943 111.542 310.279 112.038 309.495 112.39C308.727 112.726 307.895 112.894 306.999 112.894ZM317.158 112.894C316.518 112.894 315.902 112.814 315.31 112.654C314.718 112.478 314.174 112.238 313.678 111.934C313.182 111.614 312.75 111.23 312.382 110.782L314.062 109.102C314.462 109.566 314.918 109.918 315.43 110.158C315.958 110.382 316.55 110.494 317.206 110.494C317.798 110.494 318.246 110.406 318.55 110.23C318.854 110.054 319.006 109.798 319.006 109.462C319.006 109.11 318.862 108.838 318.574 108.646C318.286 108.454 317.91 108.294 317.446 108.166C316.998 108.022 316.518 107.878 316.006 107.734C315.51 107.59 315.03 107.398 314.566 107.158C314.118 106.902 313.75 106.558 313.462 106.126C313.174 105.694 313.03 105.134 313.03 104.446C313.03 103.71 313.198 103.078 313.534 102.55C313.886 102.022 314.374 101.614 314.998 101.326C315.638 101.038 316.398 100.894 317.278 100.894C318.206 100.894 319.022 101.062 319.726 101.398C320.446 101.718 321.046 102.206 321.526 102.862L319.846 104.542C319.51 104.126 319.126 103.814 318.694 103.606C318.262 103.398 317.766 103.294 317.206 103.294C316.678 103.294 316.27 103.374 315.982 103.534C315.694 103.694 315.55 103.926 315.55 104.23C315.55 104.55 315.694 104.798 315.982 104.974C316.27 105.15 316.638 105.302 317.086 105.43C317.55 105.558 318.03 105.702 318.526 105.862C319.038 106.006 319.518 106.214 319.966 106.486C320.43 106.742 320.806 107.094 321.094 107.542C321.382 107.974 321.526 108.542 321.526 109.246C321.526 110.366 321.134 111.254 320.35 111.91C319.566 112.566 318.502 112.894 317.158 112.894Z" fill="#1E1E1E"/>
<line x1="223.478" y1="368.019" x2="775.066" y2="368.019" stroke="#C6C6C6" stroke-width="0.539011" stroke-dasharray="4.49 4.49"/>
<line x1="223.478" y1="308.728" x2="775.066" y2="308.728" stroke="#C6C6C6" stroke-width="0.539011" stroke-dasharray="4.49 4.49"/>
<line x1="223.478" y1="249.437" x2="775.066" y2="249.437" stroke="#C6C6C6" stroke-width="0.539011" stroke-dasharray="4.49 4.49"/>
<line x1="223.478" y1="190.146" x2="775.066" y2="190.146" stroke="#C6C6C6" stroke-width="0.539011" stroke-dasharray="4.49 4.49"/>
<line x1="222.775" y1="469" x2="222.775" y2="137" stroke="#C6C6C6" stroke-width="0.449176"/>
<path d="M245.039 168.996C245.039 153.19 257.852 140.377 273.657 140.377C289.463 140.377 302.276 153.19 302.276 168.996V429.377H245.039V168.996Z" fill="url(#paint0_linear_129_304)"/>
<path d="M323.837 232.51C323.837 216.704 336.65 203.891 352.456 203.891C368.261 203.891 381.075 216.704 381.075 232.51V429.377H323.837V232.51Z" fill="url(#paint1_linear_129_304)"/>
<path d="M402.635 316.954C402.635 301.149 415.448 288.335 431.254 288.335C447.06 288.335 459.873 301.149 459.873 316.954V429.377H402.635V316.954Z" fill="url(#paint2_linear_129_304)"/>
<path d="M481.433 276.529C481.433 260.723 494.246 247.91 510.052 247.91C525.858 247.91 538.671 260.723 538.671 276.529V429.377H481.433V276.529Z" fill="url(#paint3_linear_129_304)"/>
<path d="M560.232 378.042C560.232 362.236 573.045 349.423 588.85 349.423C604.656 349.423 617.469 362.236 617.469 378.042V429.377H560.232V378.042Z" fill="url(#paint4_linear_129_304)"/>
<path d="M639.03 395.111C639.03 379.305 651.843 366.492 667.649 366.492C683.455 366.492 696.268 379.305 696.268 395.111V429.377H639.03V395.111Z" fill="url(#paint5_linear_129_304)"/>
<g filter="url(#filter0_d_129_304)">
<path d="M579.001 219.675C579.001 222.616 576.617 225 573.675 225H524.985C523.091 225 521.339 226.006 520.385 227.643L515.01 236.859C512.956 240.383 507.864 240.383 505.81 236.859L500.435 227.643C499.48 226.006 497.729 225 495.834 225H452.326C449.385 225 447.001 222.616 447.001 219.675V166.325C447.001 163.384 449.385 161 452.326 161H573.675C576.617 161 579.001 163.384 579.001 166.325V219.675Z" fill="#1C1E23"/>
</g>
<path d="M460.342 185L463.466 177.366H464.214L467.327 185H466.205L463.642 178.543H464.027L461.442 185H460.342ZM461.827 183.273V182.371H465.842V183.273H461.827ZM470.22 187.299C469.684 187.299 469.208 187.2 468.79 187.002C468.379 186.804 468.049 186.525 467.8 186.166L468.438 185.517C468.65 185.788 468.903 185.994 469.197 186.133C469.49 186.28 469.838 186.353 470.242 186.353C470.777 186.353 471.199 186.21 471.507 185.924C471.822 185.645 471.98 185.268 471.98 184.791V183.493L472.156 182.316L471.98 181.15V179.775H472.97V184.791C472.97 185.29 472.852 185.726 472.618 186.1C472.39 186.474 472.068 186.767 471.65 186.98C471.239 187.193 470.762 187.299 470.22 187.299ZM470.22 184.912C469.743 184.912 469.314 184.798 468.933 184.571C468.559 184.344 468.262 184.032 468.042 183.636C467.822 183.233 467.712 182.782 467.712 182.283C467.712 181.784 467.822 181.341 468.042 180.952C468.262 180.556 468.559 180.244 468.933 180.017C469.314 179.782 469.743 179.665 470.22 179.665C470.63 179.665 470.993 179.746 471.309 179.907C471.624 180.068 471.873 180.296 472.057 180.589C472.247 180.875 472.35 181.212 472.365 181.601V182.987C472.343 183.368 472.236 183.706 472.046 183.999C471.862 184.285 471.613 184.509 471.298 184.67C470.982 184.831 470.623 184.912 470.22 184.912ZM470.418 183.977C470.74 183.977 471.023 183.907 471.265 183.768C471.514 183.629 471.705 183.434 471.837 183.185C471.969 182.928 472.035 182.631 472.035 182.294C472.035 181.957 471.965 181.663 471.826 181.414C471.694 181.157 471.507 180.959 471.265 180.82C471.023 180.673 470.737 180.6 470.407 180.6C470.077 180.6 469.787 180.673 469.538 180.82C469.288 180.959 469.09 181.157 468.944 181.414C468.804 181.663 468.735 181.953 468.735 182.283C468.735 182.613 468.804 182.906 468.944 183.163C469.09 183.42 469.288 183.621 469.538 183.768C469.794 183.907 470.088 183.977 470.418 183.977ZM476.843 185.11C476.322 185.11 475.853 184.993 475.435 184.758C475.017 184.516 474.687 184.19 474.445 183.779C474.203 183.368 474.082 182.903 474.082 182.382C474.082 181.869 474.199 181.407 474.434 180.996C474.676 180.585 474.999 180.263 475.402 180.028C475.813 179.786 476.271 179.665 476.777 179.665C477.261 179.665 477.686 179.775 478.053 179.995C478.427 180.215 478.717 180.519 478.922 180.908C479.135 181.297 479.241 181.737 479.241 182.228C479.241 182.301 479.237 182.382 479.23 182.47C479.223 182.551 479.208 182.646 479.186 182.756H474.775V181.931H478.658L478.295 182.25C478.295 181.898 478.233 181.601 478.108 181.359C477.983 181.11 477.807 180.919 477.58 180.787C477.353 180.648 477.078 180.578 476.755 180.578C476.418 180.578 476.121 180.651 475.864 180.798C475.607 180.945 475.409 181.15 475.27 181.414C475.131 181.678 475.061 181.99 475.061 182.349C475.061 182.716 475.134 183.038 475.281 183.317C475.428 183.588 475.637 183.801 475.908 183.955C476.179 184.102 476.491 184.175 476.843 184.175C477.136 184.175 477.404 184.124 477.646 184.021C477.895 183.918 478.108 183.764 478.284 183.559L478.922 184.208C478.673 184.501 478.365 184.725 477.998 184.879C477.639 185.033 477.254 185.11 476.843 185.11ZM483.785 185V177.366H484.808V185H483.785ZM482.223 178.29V177.366H484.698V178.29H482.223ZM488.721 185.11C488.215 185.11 487.768 185.015 487.379 184.824C486.998 184.633 486.701 184.369 486.488 184.032C486.275 183.695 486.169 183.313 486.169 182.888C486.169 182.543 486.235 182.228 486.367 181.942C486.499 181.656 486.693 181.414 486.95 181.216C487.207 181.011 487.507 180.864 487.852 180.776L487.885 181.073C487.592 180.992 487.342 180.864 487.137 180.688C486.932 180.505 486.774 180.292 486.664 180.05C486.561 179.801 486.51 179.537 486.51 179.258C486.51 178.862 486.605 178.514 486.796 178.213C486.987 177.912 487.247 177.678 487.577 177.509C487.914 177.333 488.296 177.245 488.721 177.245C489.154 177.245 489.535 177.333 489.865 177.509C490.195 177.678 490.455 177.912 490.646 178.213C490.837 178.514 490.932 178.862 490.932 179.258C490.932 179.537 490.877 179.801 490.767 180.05C490.664 180.292 490.51 180.505 490.305 180.688C490.107 180.864 489.861 180.992 489.568 181.073L489.59 180.776C489.942 180.864 490.243 181.011 490.492 181.216C490.749 181.414 490.943 181.656 491.075 181.942C491.214 182.228 491.284 182.543 491.284 182.888C491.284 183.313 491.178 183.695 490.965 184.032C490.752 184.369 490.452 184.633 490.063 184.824C489.682 185.015 489.234 185.11 488.721 185.11ZM488.721 184.175C489.029 184.175 489.297 184.116 489.524 183.999C489.759 183.874 489.942 183.706 490.074 183.493C490.213 183.28 490.283 183.035 490.283 182.756C490.283 182.485 490.213 182.243 490.074 182.03C489.942 181.817 489.759 181.652 489.524 181.535C489.297 181.41 489.029 181.348 488.721 181.348C488.42 181.348 488.153 181.41 487.918 181.535C487.683 181.652 487.496 181.817 487.357 182.03C487.225 182.243 487.159 182.485 487.159 182.756C487.159 183.035 487.225 183.28 487.357 183.493C487.496 183.706 487.683 183.874 487.918 183.999C488.153 184.116 488.42 184.175 488.721 184.175ZM488.721 180.545C489.088 180.545 489.388 180.431 489.623 180.204C489.858 179.977 489.975 179.683 489.975 179.324C489.975 178.972 489.858 178.686 489.623 178.466C489.388 178.239 489.088 178.125 488.721 178.125C488.362 178.125 488.065 178.239 487.83 178.466C487.595 178.686 487.478 178.972 487.478 179.324C487.478 179.683 487.595 179.977 487.83 180.204C488.065 180.431 488.362 180.545 488.721 180.545ZM492.47 182.668V181.733H496.089V182.668H492.47ZM496.866 184.373L499.682 181.403C499.968 181.11 500.191 180.857 500.353 180.644C500.514 180.424 500.628 180.222 500.694 180.039C500.767 179.856 500.804 179.665 500.804 179.467C500.804 179.078 500.679 178.774 500.43 178.554C500.18 178.334 499.858 178.224 499.462 178.224C499.073 178.224 498.732 178.319 498.439 178.51C498.145 178.693 497.885 178.979 497.658 179.368L496.932 178.763C497.232 178.264 497.595 177.89 498.021 177.641C498.446 177.384 498.937 177.256 499.495 177.256C499.964 177.256 500.371 177.348 500.716 177.531C501.068 177.714 501.339 177.971 501.53 178.301C501.72 178.631 501.816 179.016 501.816 179.456C501.816 179.771 501.775 180.054 501.695 180.303C501.621 180.552 501.486 180.809 501.288 181.073C501.097 181.33 500.829 181.638 500.485 181.997L498.208 184.34L496.866 184.373ZM496.866 185V184.373L497.746 184.076H501.992V185H496.866ZM502.817 182.371L505.6 177.366H506.766L503.928 182.371H502.817ZM502.817 183.009V182.371L503.257 182.085H508.669V183.009H502.817ZM506.546 185V179.951H507.569V185H506.546Z" fill="white"/>
<path d="M464.545 207.16C463.777 207.16 463.083 206.989 462.465 206.648C461.857 206.296 461.371 205.827 461.009 205.24C460.657 204.643 460.481 203.981 460.481 203.256C460.481 202.264 460.822 201.267 461.505 200.264L464.625 195.752H467.121L463.713 200.52L462.913 200.744C463.03 200.499 463.169 200.285 463.329 200.104C463.499 199.923 463.718 199.784 463.985 199.688C464.251 199.592 464.587 199.544 464.993 199.544C465.665 199.544 466.273 199.704 466.817 200.024C467.361 200.333 467.798 200.765 468.129 201.32C468.459 201.864 468.625 202.493 468.625 203.208C468.625 203.944 468.443 204.611 468.081 205.208C467.718 205.805 467.227 206.28 466.609 206.632C465.99 206.984 465.302 207.16 464.545 207.16ZM464.545 205.208C464.918 205.208 465.249 205.123 465.537 204.952C465.825 204.771 466.054 204.531 466.225 204.232C466.395 203.923 466.481 203.576 466.481 203.192C466.481 202.808 466.395 202.467 466.225 202.168C466.054 201.859 465.825 201.619 465.537 201.448C465.249 201.277 464.918 201.192 464.545 201.192C464.171 201.192 463.835 201.283 463.537 201.464C463.249 201.635 463.019 201.869 462.849 202.168C462.689 202.467 462.609 202.808 462.609 203.192C462.609 203.576 462.689 203.923 462.849 204.232C463.019 204.531 463.249 204.771 463.537 204.952C463.835 205.123 464.171 205.208 464.545 205.208ZM473.094 207.16C472.316 207.16 471.606 207.027 470.966 206.76C470.326 206.483 469.793 206.088 469.366 205.576L470.806 204.152C471.02 204.472 471.324 204.728 471.718 204.92C472.124 205.112 472.566 205.208 473.046 205.208C473.484 205.208 473.862 205.128 474.182 204.968C474.513 204.808 474.769 204.584 474.95 204.296C475.142 203.997 475.238 203.651 475.238 203.256C475.238 202.84 475.142 202.488 474.95 202.2C474.769 201.912 474.524 201.693 474.214 201.544C473.905 201.395 473.558 201.32 473.174 201.32C472.769 201.32 472.401 201.373 472.07 201.48C471.75 201.576 471.441 201.736 471.142 201.96L471.27 200.584C471.473 200.371 471.686 200.2 471.91 200.072C472.134 199.933 472.385 199.832 472.662 199.768C472.95 199.693 473.286 199.656 473.67 199.656C474.492 199.656 475.174 199.827 475.718 200.168C476.273 200.499 476.694 200.947 476.982 201.512C477.27 202.067 477.414 202.68 477.414 203.352C477.414 204.088 477.233 204.744 476.87 205.32C476.508 205.896 476.001 206.349 475.35 206.68C474.71 207 473.958 207.16 473.094 207.16ZM471.142 201.96L470.102 200.936L470.614 195.752H472.582L472.006 201.016L471.142 201.96ZM470.95 197.64L470.614 195.752H476.79V197.64H470.95ZM483.25 207.16C482.365 207.16 481.565 206.92 480.85 206.44C480.135 205.96 479.565 205.283 479.138 204.408C478.722 203.533 478.514 202.515 478.514 201.352C478.514 200.189 478.722 199.176 479.138 198.312C479.554 197.448 480.114 196.776 480.818 196.296C481.533 195.816 482.327 195.576 483.202 195.576C484.098 195.576 484.898 195.816 485.602 196.296C486.317 196.776 486.882 197.453 487.298 198.328C487.714 199.192 487.922 200.211 487.922 201.384C487.922 202.547 487.714 203.565 487.298 204.44C486.882 205.304 486.322 205.976 485.618 206.456C484.914 206.925 484.125 207.16 483.25 207.16ZM483.218 205.192C483.73 205.192 484.173 205.048 484.546 204.76C484.919 204.472 485.207 204.045 485.41 203.48C485.623 202.915 485.73 202.211 485.73 201.368C485.73 200.525 485.623 199.821 485.41 199.256C485.207 198.691 484.914 198.269 484.53 197.992C484.157 197.704 483.714 197.56 483.202 197.56C482.701 197.56 482.263 197.704 481.89 197.992C481.517 198.269 481.223 198.691 481.01 199.256C480.807 199.811 480.706 200.509 480.706 201.352C480.706 202.205 480.807 202.915 481.01 203.48C481.223 204.045 481.517 204.472 481.89 204.76C482.263 205.048 482.706 205.192 483.218 205.192ZM494.378 202.296V200.6H496.986C497.519 200.6 497.93 200.467 498.218 200.2C498.516 199.923 498.666 199.544 498.666 199.064C498.666 198.627 498.516 198.264 498.218 197.976C497.93 197.677 497.519 197.528 496.986 197.528H494.378V195.752H497.178C497.903 195.752 498.538 195.896 499.082 196.184C499.636 196.461 500.063 196.845 500.362 197.336C500.671 197.827 500.826 198.392 500.826 199.032C500.826 199.693 500.671 200.269 500.362 200.76C500.063 201.24 499.636 201.619 499.082 201.896C498.527 202.163 497.882 202.296 497.146 202.296H494.378ZM492.778 207V195.752H494.954V207H492.778ZM498.922 207L495.21 202.136L497.21 201.512L501.562 207H498.922ZM506.046 207.16C505.236 207.16 504.516 206.989 503.886 206.648C503.257 206.296 502.756 205.816 502.382 205.208C502.02 204.6 501.838 203.907 501.838 203.128C501.838 202.36 502.014 201.677 502.366 201.08C502.729 200.472 503.22 199.992 503.838 199.64C504.457 199.277 505.145 199.096 505.902 199.096C506.649 199.096 507.305 199.267 507.87 199.608C508.446 199.939 508.894 200.397 509.214 200.984C509.545 201.56 509.71 202.216 509.71 202.952C509.71 203.091 509.7 203.235 509.678 203.384C509.668 203.523 509.641 203.683 509.598 203.864L503.102 203.88V202.312L508.622 202.296L507.774 202.952C507.753 202.493 507.668 202.109 507.518 201.8C507.38 201.491 507.172 201.256 506.894 201.096C506.628 200.925 506.297 200.84 505.902 200.84C505.486 200.84 505.124 200.936 504.814 201.128C504.505 201.309 504.265 201.571 504.094 201.912C503.934 202.243 503.854 202.637 503.854 203.096C503.854 203.565 503.94 203.976 504.11 204.328C504.292 204.669 504.548 204.936 504.878 205.128C505.209 205.309 505.593 205.4 506.03 205.4C506.425 205.4 506.782 205.336 507.102 205.208C507.422 205.069 507.7 204.867 507.934 204.6L509.166 205.832C508.793 206.269 508.334 206.6 507.79 206.824C507.257 207.048 506.676 207.16 506.046 207.16ZM513.663 207.176C513.225 207.176 512.793 207.117 512.367 207C511.951 206.883 511.567 206.723 511.215 206.52C510.863 206.307 510.559 206.051 510.303 205.752L511.551 204.488C511.817 204.787 512.127 205.011 512.479 205.16C512.831 205.309 513.22 205.384 513.647 205.384C513.988 205.384 514.244 205.336 514.415 205.24C514.596 205.144 514.687 205 514.687 204.808C514.687 204.595 514.591 204.429 514.399 204.312C514.217 204.195 513.977 204.099 513.679 204.024C513.38 203.939 513.065 203.848 512.735 203.752C512.415 203.645 512.105 203.512 511.807 203.352C511.508 203.181 511.263 202.952 511.071 202.664C510.889 202.365 510.799 201.981 510.799 201.512C510.799 201.021 510.916 200.595 511.151 200.232C511.396 199.869 511.743 199.587 512.191 199.384C512.639 199.181 513.167 199.08 513.775 199.08C514.415 199.08 514.991 199.192 515.503 199.416C516.025 199.64 516.457 199.976 516.799 200.424L515.535 201.688C515.3 201.4 515.033 201.192 514.735 201.064C514.447 200.936 514.132 200.872 513.791 200.872C513.481 200.872 513.241 200.92 513.071 201.016C512.911 201.112 512.831 201.245 512.831 201.416C512.831 201.608 512.921 201.757 513.103 201.864C513.295 201.971 513.54 202.067 513.839 202.152C514.137 202.227 514.447 202.317 514.767 202.424C515.097 202.52 515.407 202.659 515.695 202.84C515.993 203.021 516.233 203.261 516.415 203.56C516.607 203.859 516.703 204.243 516.703 204.712C516.703 205.469 516.431 206.072 515.887 206.52C515.343 206.957 514.601 207.176 513.663 207.176ZM522.404 207.16C521.849 207.16 521.348 207.048 520.9 206.824C520.452 206.589 520.095 206.275 519.828 205.88C519.561 205.485 519.417 205.032 519.396 204.52V201.784C519.417 201.272 519.561 200.819 519.828 200.424C520.105 200.019 520.463 199.699 520.9 199.464C521.348 199.229 521.849 199.112 522.404 199.112C523.119 199.112 523.759 199.288 524.324 199.64C524.889 199.992 525.332 200.472 525.652 201.08C525.983 201.688 526.148 202.376 526.148 203.144C526.148 203.901 525.983 204.584 525.652 205.192C525.332 205.8 524.889 206.28 524.324 206.632C523.759 206.984 523.119 207.16 522.404 207.16ZM518.116 210.232V199.272H520.212V201.304L519.86 203.176L520.196 205.048V210.232H518.116ZM522.036 205.224C522.42 205.224 522.761 205.139 523.06 204.968C523.359 204.787 523.588 204.541 523.748 204.232C523.919 203.912 524.004 203.544 524.004 203.128C524.004 202.723 523.919 202.365 523.748 202.056C523.588 201.736 523.359 201.491 523.06 201.32C522.761 201.139 522.42 201.048 522.036 201.048C521.663 201.048 521.327 201.139 521.028 201.32C520.729 201.491 520.495 201.736 520.324 202.056C520.164 202.365 520.084 202.723 520.084 203.128C520.084 203.544 520.164 203.912 520.324 204.232C520.495 204.541 520.724 204.787 521.012 204.968C521.311 205.139 521.652 205.224 522.036 205.224ZM531.154 207.16C530.376 207.16 529.672 206.984 529.042 206.632C528.424 206.269 527.928 205.784 527.554 205.176C527.192 204.557 527.01 203.869 527.01 203.112C527.01 202.355 527.192 201.677 527.554 201.08C527.917 200.472 528.413 199.992 529.042 199.64C529.672 199.277 530.37 199.096 531.138 199.096C531.928 199.096 532.632 199.277 533.25 199.64C533.88 199.992 534.376 200.472 534.738 201.08C535.101 201.677 535.282 202.355 535.282 203.112C535.282 203.869 535.101 204.557 534.738 205.176C534.376 205.784 533.88 206.269 533.25 206.632C532.632 206.984 531.933 207.16 531.154 207.16ZM531.138 205.208C531.533 205.208 531.88 205.123 532.178 204.952C532.488 204.771 532.722 204.525 532.882 204.216C533.053 203.896 533.138 203.533 533.138 203.128C533.138 202.723 533.053 202.365 532.882 202.056C532.712 201.747 532.477 201.507 532.178 201.336C531.88 201.155 531.533 201.064 531.138 201.064C530.754 201.064 530.413 201.155 530.114 201.336C529.816 201.507 529.581 201.747 529.41 202.056C529.24 202.365 529.154 202.723 529.154 203.128C529.154 203.533 529.24 203.896 529.41 204.216C529.581 204.525 529.816 204.771 530.114 204.952C530.413 205.123 530.754 205.208 531.138 205.208ZM541.832 207V202.568C541.832 202.109 541.688 201.736 541.4 201.448C541.112 201.16 540.738 201.016 540.28 201.016C539.981 201.016 539.714 201.08 539.48 201.208C539.245 201.336 539.058 201.517 538.92 201.752C538.792 201.987 538.728 202.259 538.728 202.568L537.912 202.152C537.912 201.544 538.04 201.016 538.296 200.568C538.562 200.109 538.925 199.752 539.384 199.496C539.853 199.24 540.381 199.112 540.968 199.112C541.533 199.112 542.04 199.256 542.488 199.544C542.936 199.821 543.288 200.189 543.544 200.648C543.8 201.096 543.928 201.581 543.928 202.104V207H541.832ZM536.632 207V199.272H538.728V207H536.632ZM548.272 207.176C547.835 207.176 547.403 207.117 546.976 207C546.56 206.883 546.176 206.723 545.824 206.52C545.472 206.307 545.168 206.051 544.912 205.752L546.16 204.488C546.427 204.787 546.736 205.011 547.088 205.16C547.44 205.309 547.829 205.384 548.256 205.384C548.597 205.384 548.853 205.336 549.024 205.24C549.205 205.144 549.296 205 549.296 204.808C549.296 204.595 549.2 204.429 549.008 204.312C548.827 204.195 548.587 204.099 548.288 204.024C547.989 203.939 547.675 203.848 547.344 203.752C547.024 203.645 546.715 203.512 546.416 203.352C546.117 203.181 545.872 202.952 545.68 202.664C545.499 202.365 545.408 201.981 545.408 201.512C545.408 201.021 545.525 200.595 545.76 200.232C546.005 199.869 546.352 199.587 546.8 199.384C547.248 199.181 547.776 199.08 548.384 199.08C549.024 199.08 549.6 199.192 550.112 199.416C550.635 199.64 551.067 199.976 551.408 200.424L550.144 201.688C549.909 201.4 549.643 201.192 549.344 201.064C549.056 200.936 548.741 200.872 548.4 200.872C548.091 200.872 547.851 200.92 547.68 201.016C547.52 201.112 547.44 201.245 547.44 201.416C547.44 201.608 547.531 201.757 547.712 201.864C547.904 201.971 548.149 202.067 548.448 202.152C548.747 202.227 549.056 202.317 549.376 202.424C549.707 202.52 550.016 202.659 550.304 202.84C550.603 203.021 550.843 203.261 551.024 203.56C551.216 203.859 551.312 204.243 551.312 204.712C551.312 205.469 551.04 206.072 550.496 206.52C549.952 206.957 549.211 207.176 548.272 207.176ZM556.421 207.16C555.611 207.16 554.891 206.989 554.261 206.648C553.632 206.296 553.131 205.816 552.757 205.208C552.395 204.6 552.213 203.907 552.213 203.128C552.213 202.36 552.389 201.677 552.741 201.08C553.104 200.472 553.595 199.992 554.213 199.64C554.832 199.277 555.52 199.096 556.277 199.096C557.024 199.096 557.68 199.267 558.245 199.608C558.821 199.939 559.269 200.397 559.589 200.984C559.92 201.56 560.085 202.216 560.085 202.952C560.085 203.091 560.075 203.235 560.053 203.384C560.043 203.523 560.016 203.683 559.973 203.864L553.477 203.88V202.312L558.997 202.296L558.149 202.952C558.128 202.493 558.043 202.109 557.893 201.8C557.755 201.491 557.547 201.256 557.269 201.096C557.003 200.925 556.672 200.84 556.277 200.84C555.861 200.84 555.499 200.936 555.189 201.128C554.88 201.309 554.64 201.571 554.469 201.912C554.309 202.243 554.229 202.637 554.229 203.096C554.229 203.565 554.315 203.976 554.485 204.328C554.667 204.669 554.923 204.936 555.253 205.128C555.584 205.309 555.968 205.4 556.405 205.4C556.8 205.4 557.157 205.336 557.477 205.208C557.797 205.069 558.075 204.867 558.309 204.6L559.541 205.832C559.168 206.269 558.709 206.6 558.165 206.824C557.632 207.048 557.051 207.16 556.421 207.16ZM564.038 207.176C563.6 207.176 563.168 207.117 562.742 207C562.326 206.883 561.942 206.723 561.59 206.52C561.238 206.307 560.934 206.051 560.678 205.752L561.926 204.488C562.192 204.787 562.502 205.011 562.854 205.16C563.206 205.309 563.595 205.384 564.022 205.384C564.363 205.384 564.619 205.336 564.79 205.24C564.971 205.144 565.062 205 565.062 204.808C565.062 204.595 564.966 204.429 564.774 204.312C564.592 204.195 564.352 204.099 564.054 204.024C563.755 203.939 563.44 203.848 563.11 203.752C562.79 203.645 562.48 203.512 562.182 203.352C561.883 203.181 561.638 202.952 561.446 202.664C561.264 202.365 561.174 201.981 561.174 201.512C561.174 201.021 561.291 200.595 561.526 200.232C561.771 199.869 562.118 199.587 562.566 199.384C563.014 199.181 563.542 199.08 564.15 199.08C564.79 199.08 565.366 199.192 565.878 199.416C566.4 199.64 566.832 199.976 567.174 200.424L565.91 201.688C565.675 201.4 565.408 201.192 565.11 201.064C564.822 200.936 564.507 200.872 564.166 200.872C563.856 200.872 563.616 200.92 563.446 201.016C563.286 201.112 563.206 201.245 563.206 201.416C563.206 201.608 563.296 201.757 563.478 201.864C563.67 201.971 563.915 202.067 564.214 202.152C564.512 202.227 564.822 202.317 565.142 202.424C565.472 202.52 565.782 202.659 566.07 202.84C566.368 203.021 566.608 203.261 566.79 203.56C566.982 203.859 567.078 204.243 567.078 204.712C567.078 205.469 566.806 206.072 566.262 206.52C565.718 206.957 564.976 207.176 564.038 207.176Z" fill="white"/>
<path d="M191.123 370.073L194.759 363.533H196.283L192.575 370.073H191.123ZM191.123 370.906V370.073L191.698 369.699H198.77V370.906H191.123ZM195.996 373.508V366.91H197.332V373.508H195.996Z" fill="#1E1E1E"/>
<path d="M195.188 314.361C194.526 314.361 193.942 314.236 193.434 313.987C192.936 313.738 192.548 313.393 192.27 312.952C191.992 312.512 191.853 312.013 191.853 311.458C191.853 311.007 191.939 310.595 192.112 310.221C192.284 309.848 192.538 309.531 192.873 309.273C193.209 309.004 193.602 308.813 194.052 308.698L194.095 309.086C193.712 308.98 193.386 308.813 193.118 308.583C192.849 308.343 192.643 308.065 192.5 307.749C192.365 307.423 192.298 307.078 192.298 306.714C192.298 306.197 192.423 305.742 192.672 305.349C192.921 304.956 193.261 304.649 193.693 304.429C194.133 304.199 194.632 304.084 195.188 304.084C195.753 304.084 196.251 304.199 196.682 304.429C197.114 304.649 197.454 304.956 197.703 305.349C197.952 305.742 198.077 306.197 198.077 306.714C198.077 307.078 198.005 307.423 197.861 307.749C197.727 308.065 197.526 308.343 197.257 308.583C196.999 308.813 196.678 308.98 196.294 309.086L196.323 308.698C196.783 308.813 197.176 309.004 197.502 309.273C197.837 309.531 198.091 309.848 198.263 310.221C198.446 310.595 198.537 311.007 198.537 311.458C198.537 312.013 198.398 312.512 198.12 312.952C197.842 313.393 197.449 313.738 196.941 313.987C196.443 314.236 195.858 314.361 195.188 314.361ZM195.188 313.139C195.59 313.139 195.94 313.063 196.237 312.909C196.543 312.746 196.783 312.526 196.955 312.248C197.138 311.97 197.229 311.649 197.229 311.285C197.229 310.931 197.138 310.614 196.955 310.336C196.783 310.059 196.543 309.843 196.237 309.69C195.94 309.527 195.59 309.445 195.188 309.445C194.795 309.445 194.445 309.527 194.138 309.69C193.832 309.843 193.587 310.059 193.405 310.336C193.233 310.614 193.146 310.931 193.146 311.285C193.146 311.649 193.233 311.97 193.405 312.248C193.587 312.526 193.832 312.746 194.138 312.909C194.445 313.063 194.795 313.139 195.188 313.139ZM195.188 308.396C195.667 308.396 196.06 308.247 196.366 307.95C196.673 307.653 196.826 307.27 196.826 306.8C196.826 306.341 196.673 305.967 196.366 305.679C196.06 305.382 195.667 305.234 195.188 305.234C194.718 305.234 194.33 305.382 194.023 305.679C193.717 305.967 193.563 306.341 193.563 306.8C193.563 307.27 193.717 307.653 194.023 307.95C194.33 308.247 194.718 308.396 195.188 308.396Z" fill="#1E1E1E"/>
<path d="M188.475 254.926V244.951H189.811V254.926H188.475ZM186.433 246.158V244.951H189.668V246.158H186.433ZM191.445 254.107L195.125 250.226C195.499 249.843 195.791 249.512 196.002 249.234C196.213 248.947 196.361 248.683 196.447 248.444C196.543 248.204 196.591 247.955 196.591 247.696C196.591 247.188 196.428 246.791 196.102 246.503C195.777 246.216 195.355 246.072 194.837 246.072C194.33 246.072 193.884 246.197 193.501 246.446C193.117 246.685 192.777 247.059 192.48 247.567L191.532 246.776C191.924 246.125 192.399 245.636 192.955 245.31C193.51 244.975 194.152 244.807 194.881 244.807C195.494 244.807 196.026 244.927 196.476 245.167C196.936 245.406 197.291 245.742 197.54 246.173C197.789 246.604 197.913 247.107 197.913 247.682C197.913 248.094 197.861 248.463 197.755 248.789C197.659 249.115 197.482 249.45 197.223 249.795C196.974 250.13 196.625 250.533 196.174 251.002L193.199 254.064L191.445 254.107ZM191.445 254.926V254.107L192.595 253.719H198.143V254.926H191.445Z" fill="#1E1E1E"/>
<path d="M189.138 195.635V185.66H190.474V195.635H189.138ZM187.097 186.867V185.66H190.331V186.867H187.097ZM195.687 195.779C195.026 195.779 194.432 195.626 193.905 195.319C193.388 195.012 192.976 194.6 192.669 194.083C192.362 193.565 192.209 192.991 192.209 192.358C192.209 191.476 192.516 190.6 193.129 189.728L196.061 185.66H197.628L194.624 189.756L194.135 190.015C194.25 189.814 194.389 189.646 194.552 189.512C194.715 189.368 194.916 189.258 195.156 189.181C195.395 189.105 195.678 189.067 196.004 189.067C196.588 189.067 197.115 189.205 197.585 189.483C198.064 189.761 198.447 190.145 198.735 190.633C199.032 191.112 199.18 191.673 199.18 192.315C199.18 192.947 199.022 193.527 198.706 194.054C198.399 194.581 197.978 195.003 197.441 195.319C196.914 195.626 196.329 195.779 195.687 195.779ZM195.687 194.514C196.09 194.514 196.449 194.418 196.765 194.227C197.091 194.025 197.345 193.762 197.527 193.436C197.719 193.101 197.815 192.727 197.815 192.315C197.815 191.903 197.719 191.534 197.527 191.208C197.345 190.873 197.091 190.609 196.765 190.418C196.449 190.226 196.09 190.13 195.687 190.13C195.285 190.13 194.921 190.226 194.595 190.418C194.279 190.609 194.025 190.873 193.833 191.208C193.651 191.534 193.56 191.903 193.56 192.315C193.56 192.727 193.651 193.101 193.833 193.436C194.025 193.771 194.279 194.035 194.595 194.227C194.921 194.418 195.285 194.514 195.687 194.514Z" fill="#1E1E1E"/>
<line x1="210.003" y1="367.839" x2="223.478" y2="367.839" stroke="#B0B0B0" stroke-width="0.898352"/>
<line x1="210.003" y1="308.548" x2="223.478" y2="308.548" stroke="#B0B0B0" stroke-width="0.898352"/>
<line x1="210.003" y1="249.257" x2="223.478" y2="249.257" stroke="#B0B0B0" stroke-width="0.898352"/>
<line x1="210.003" y1="189.966" x2="223.478" y2="189.966" stroke="#B0B0B0" stroke-width="0.898352"/>
<g filter="url(#filter1_d_129_304)">
<rect x="68" y="151" width="265" height="455.956" rx="7.79412" fill="white" shape-rendering="crispEdges"/>
<path d="M299.486 177.824C298.628 177.824 297.927 178.555 297.927 179.448C297.927 180.341 298.628 181.072 299.486 181.072C300.343 181.072 301.045 180.341 301.045 179.448C301.045 178.555 300.343 177.824 299.486 177.824Z" stroke="#1A202C" stroke-width="1.16912"/>
<path d="M310.398 177.824C309.54 177.824 308.839 178.555 308.839 179.448C308.839 180.341 309.54 181.072 310.398 181.072C311.255 181.072 311.956 180.341 311.956 179.448C311.956 178.555 311.255 177.824 310.398 177.824Z" stroke="#1A202C" stroke-width="1.16912"/>
<path d="M304.942 177.824C304.084 177.824 303.383 178.555 303.383 179.448C303.383 180.341 304.084 181.072 304.942 181.072C305.799 181.072 306.501 180.341 306.501 179.448C306.501 178.555 305.799 177.824 304.942 177.824Z" stroke="#1A202C" stroke-width="1.16912"/>
<path d="M86.8431 184.705L90.1104 175.414H91.9311L95.1984 184.705H93.6271L92.9163 182.622H89.1377L88.4144 184.705H86.8431ZM89.5617 181.313H92.4673L90.8212 176.45H91.2328L89.5617 181.313ZM98.9253 187.449C98.4347 187.449 97.9817 187.37 97.566 187.212C97.1503 187.054 96.7928 186.833 96.4935 186.551C96.1942 186.276 95.9697 185.952 95.8201 185.578L97.117 185.042C97.2334 185.358 97.4454 185.62 97.753 185.827C98.0689 186.035 98.4555 186.139 98.9128 186.139C99.2703 186.139 99.5904 186.069 99.873 185.927C100.156 185.794 100.38 185.595 100.546 185.329C100.713 185.071 100.796 184.759 100.796 184.393V182.872L101.045 183.159C100.812 183.591 100.488 183.919 100.073 184.144C99.6652 184.368 99.2038 184.481 98.6883 184.481C98.0648 184.481 97.5036 184.335 97.0048 184.044C96.506 183.753 96.1111 183.354 95.8201 182.847C95.5374 182.34 95.3961 181.77 95.3961 181.138C95.3961 180.498 95.5374 179.929 95.8201 179.43C96.1111 178.931 96.5018 178.536 96.9923 178.245C97.4828 177.954 98.044 177.809 98.6758 177.809C99.1913 177.809 99.6486 177.921 100.048 178.146C100.455 178.362 100.788 178.678 101.045 179.093L100.858 179.442V177.958H102.193V184.393C102.193 184.975 102.051 185.495 101.769 185.952C101.494 186.418 101.112 186.784 100.621 187.05C100.131 187.316 99.5654 187.449 98.9253 187.449ZM98.8504 183.171C99.2246 183.171 99.5571 183.084 99.8481 182.909C100.139 182.726 100.368 182.485 100.534 182.186C100.709 181.878 100.796 181.533 100.796 181.151C100.796 180.769 100.709 180.424 100.534 180.116C100.359 179.808 100.127 179.567 99.8356 179.393C99.5446 179.21 99.2162 179.118 98.8504 179.118C98.468 179.118 98.1271 179.21 97.8278 179.393C97.5286 179.567 97.2916 179.808 97.117 180.116C96.9507 180.415 96.8676 180.76 96.8676 181.151C96.8676 181.525 96.9507 181.866 97.117 182.174C97.2916 182.481 97.5286 182.726 97.8278 182.909C98.1271 183.084 98.468 183.171 98.8504 183.171ZM106.76 184.855C106.087 184.855 105.488 184.701 104.964 184.393C104.449 184.077 104.046 183.653 103.755 183.121C103.464 182.581 103.318 181.978 103.318 181.313C103.318 180.631 103.464 180.029 103.755 179.505C104.054 178.981 104.453 178.57 104.952 178.27C105.451 177.963 106.016 177.809 106.648 177.809C107.155 177.809 107.608 177.896 108.007 178.071C108.406 178.245 108.743 178.486 109.017 178.794C109.292 179.093 109.5 179.438 109.641 179.829C109.791 180.22 109.865 180.636 109.865 181.076C109.865 181.184 109.861 181.296 109.853 181.413C109.845 181.529 109.828 181.637 109.803 181.737H104.428V180.615H109.005L108.331 181.126C108.415 180.719 108.386 180.357 108.244 180.041C108.111 179.717 107.903 179.463 107.621 179.28C107.346 179.089 107.022 178.994 106.648 178.994C106.274 178.994 105.941 179.089 105.65 179.28C105.359 179.463 105.135 179.729 104.977 180.078C104.819 180.419 104.757 180.835 104.79 181.326C104.748 181.783 104.811 182.182 104.977 182.523C105.151 182.864 105.393 183.13 105.7 183.321C106.016 183.512 106.374 183.608 106.773 183.608C107.18 183.608 107.525 183.516 107.808 183.333C108.099 183.15 108.327 182.913 108.494 182.622L109.641 183.184C109.508 183.5 109.3 183.786 109.017 184.044C108.743 184.294 108.41 184.493 108.02 184.643C107.637 184.784 107.217 184.855 106.76 184.855ZM117.386 184.855C116.729 184.855 116.118 184.734 115.553 184.493C114.996 184.252 114.51 183.919 114.094 183.495C113.687 183.063 113.367 182.556 113.134 181.974C112.901 181.392 112.785 180.752 112.785 180.054C112.785 179.364 112.897 178.728 113.121 178.146C113.354 177.555 113.678 177.048 114.094 176.624C114.51 176.192 114.996 175.859 115.553 175.626C116.11 175.385 116.721 175.265 117.386 175.265C118.043 175.265 118.629 175.377 119.145 175.602C119.668 175.826 120.109 176.121 120.466 176.487C120.824 176.844 121.082 177.235 121.24 177.659L119.918 178.283C119.718 177.784 119.398 177.381 118.958 177.073C118.525 176.757 118.001 176.599 117.386 176.599C116.771 176.599 116.226 176.745 115.753 177.036C115.279 177.327 114.909 177.73 114.643 178.245C114.385 178.761 114.256 179.364 114.256 180.054C114.256 180.744 114.385 181.35 114.643 181.874C114.909 182.39 115.279 182.793 115.753 183.084C116.226 183.367 116.771 183.508 117.386 183.508C118.001 183.508 118.525 183.354 118.958 183.046C119.398 182.739 119.718 182.336 119.918 181.837L121.24 182.46C121.082 182.876 120.824 183.267 120.466 183.633C120.109 183.998 119.668 184.294 119.145 184.518C118.629 184.742 118.043 184.855 117.386 184.855ZM124.265 184.855C123.807 184.855 123.404 184.776 123.055 184.618C122.714 184.452 122.448 184.227 122.257 183.944C122.066 183.653 121.97 183.313 121.97 182.922C121.97 182.556 122.049 182.228 122.207 181.937C122.373 181.646 122.627 181.4 122.968 181.201C123.309 181.001 123.737 180.86 124.252 180.777L126.597 180.39V181.5L124.527 181.862C124.152 181.928 123.878 182.049 123.704 182.223C123.529 182.39 123.442 182.606 123.442 182.872C123.442 183.13 123.537 183.342 123.728 183.508C123.928 183.666 124.182 183.745 124.489 183.745C124.872 183.745 125.204 183.662 125.487 183.495C125.778 183.329 126.002 183.109 126.16 182.834C126.318 182.552 126.397 182.24 126.397 181.899V180.166C126.397 179.833 126.272 179.563 126.023 179.355C125.782 179.139 125.458 179.031 125.05 179.031C124.676 179.031 124.348 179.131 124.065 179.33C123.791 179.521 123.587 179.771 123.454 180.078L122.282 179.492C122.407 179.16 122.61 178.869 122.893 178.619C123.176 178.362 123.504 178.162 123.878 178.021C124.261 177.88 124.664 177.809 125.088 177.809C125.62 177.809 126.09 177.909 126.497 178.108C126.913 178.308 127.233 178.586 127.457 178.944C127.69 179.293 127.806 179.7 127.806 180.166V184.705H126.46V183.483L126.746 183.52C126.588 183.795 126.385 184.032 126.135 184.231C125.894 184.431 125.616 184.585 125.3 184.693C124.992 184.801 124.647 184.855 124.265 184.855ZM132.001 184.78C131.294 184.78 130.746 184.58 130.355 184.181C129.964 183.782 129.769 183.221 129.769 182.498V179.23H128.584V177.958H128.771C129.087 177.958 129.332 177.867 129.507 177.684C129.681 177.501 129.769 177.252 129.769 176.936V176.412H131.178V177.958H132.712V179.23H131.178V182.435C131.178 182.668 131.215 182.868 131.29 183.034C131.365 183.192 131.486 183.317 131.652 183.408C131.818 183.491 132.034 183.533 132.3 183.533C132.367 183.533 132.442 183.529 132.525 183.52C132.608 183.512 132.687 183.504 132.762 183.495V184.705C132.645 184.722 132.516 184.738 132.375 184.755C132.234 184.772 132.109 184.78 132.001 184.78ZM136.933 184.855C136.26 184.855 135.661 184.701 135.137 184.393C134.622 184.077 134.219 183.653 133.928 183.121C133.637 182.581 133.491 181.978 133.491 181.313C133.491 180.631 133.637 180.029 133.928 179.505C134.227 178.981 134.626 178.57 135.125 178.27C135.624 177.963 136.189 177.809 136.821 177.809C137.328 177.809 137.781 177.896 138.18 178.071C138.579 178.245 138.916 178.486 139.19 178.794C139.465 179.093 139.673 179.438 139.814 179.829C139.964 180.22 140.038 180.636 140.038 181.076C140.038 181.184 140.034 181.296 140.026 181.413C140.018 181.529 140.001 181.637 139.976 181.737H134.601V180.615H139.178L138.504 181.126C138.588 180.719 138.559 180.357 138.417 180.041C138.284 179.717 138.076 179.463 137.794 179.28C137.519 179.089 137.195 178.994 136.821 178.994C136.447 178.994 136.114 179.089 135.823 179.28C135.532 179.463 135.308 179.729 135.15 180.078C134.992 180.419 134.93 180.835 134.963 181.326C134.921 181.783 134.984 182.182 135.15 182.523C135.324 182.864 135.566 183.13 135.873 183.321C136.189 183.512 136.547 183.608 136.946 183.608C137.353 183.608 137.698 183.516 137.981 183.333C138.272 183.15 138.5 182.913 138.667 182.622L139.814 183.184C139.681 183.5 139.473 183.786 139.19 184.044C138.916 184.294 138.583 184.493 138.193 184.643C137.81 184.784 137.39 184.855 136.933 184.855ZM144.419 187.449C143.929 187.449 143.475 187.37 143.06 187.212C142.644 187.054 142.287 186.833 141.987 186.551C141.688 186.276 141.464 185.952 141.314 185.578L142.611 185.042C142.727 185.358 142.939 185.62 143.247 185.827C143.563 186.035 143.949 186.139 144.407 186.139C144.764 186.139 145.084 186.069 145.367 185.927C145.649 185.794 145.874 185.595 146.04 185.329C146.206 185.071 146.29 184.759 146.29 184.393V182.872L146.539 183.159C146.306 183.591 145.982 183.919 145.566 184.144C145.159 184.368 144.698 184.481 144.182 184.481C143.559 184.481 142.997 184.335 142.499 184.044C142 183.753 141.605 183.354 141.314 182.847C141.031 182.34 140.89 181.77 140.89 181.138C140.89 180.498 141.031 179.929 141.314 179.43C141.605 178.931 141.996 178.536 142.486 178.245C142.977 177.954 143.538 177.809 144.17 177.809C144.685 177.809 145.142 177.921 145.541 178.146C145.949 178.362 146.281 178.678 146.539 179.093L146.352 179.442V177.958H147.686V184.393C147.686 184.975 147.545 185.495 147.262 185.952C146.988 186.418 146.606 186.784 146.115 187.05C145.625 187.316 145.059 187.449 144.419 187.449ZM144.344 183.171C144.718 183.171 145.051 183.084 145.342 182.909C145.633 182.726 145.861 182.485 146.028 182.186C146.202 181.878 146.29 181.533 146.29 181.151C146.29 180.769 146.202 180.424 146.028 180.116C145.853 179.808 145.62 179.567 145.329 179.393C145.038 179.21 144.71 179.118 144.344 179.118C143.962 179.118 143.621 179.21 143.322 179.393C143.022 179.567 142.785 179.808 142.611 180.116C142.445 180.415 142.361 180.76 142.361 181.151C142.361 181.525 142.445 181.866 142.611 182.174C142.785 182.481 143.022 182.726 143.322 182.909C143.621 183.084 143.962 183.171 144.344 183.171ZM152.341 184.855C151.693 184.855 151.098 184.701 150.558 184.393C150.026 184.086 149.602 183.666 149.286 183.134C148.97 182.602 148.812 181.999 148.812 181.326C148.812 180.644 148.97 180.041 149.286 179.517C149.602 178.985 150.026 178.57 150.558 178.27C151.09 177.963 151.684 177.809 152.341 177.809C153.006 177.809 153.601 177.963 154.125 178.27C154.657 178.57 155.076 178.985 155.384 179.517C155.7 180.041 155.858 180.644 155.858 181.326C155.858 182.007 155.7 182.614 155.384 183.146C155.068 183.678 154.644 184.098 154.112 184.406C153.58 184.705 152.99 184.855 152.341 184.855ZM152.341 183.545C152.74 183.545 153.094 183.45 153.401 183.258C153.709 183.067 153.95 182.805 154.125 182.473C154.307 182.132 154.399 181.75 154.399 181.326C154.399 180.902 154.307 180.523 154.125 180.191C153.95 179.858 153.709 179.596 153.401 179.405C153.094 179.214 152.74 179.118 152.341 179.118C151.951 179.118 151.597 179.214 151.281 179.405C150.974 179.596 150.728 179.858 150.546 180.191C150.371 180.523 150.284 180.902 150.284 181.326C150.284 181.75 150.371 182.132 150.546 182.473C150.728 182.805 150.974 183.067 151.281 183.258C151.597 183.45 151.951 183.545 152.341 183.545ZM156.984 184.705V177.958H158.331V179.318L158.206 179.118C158.356 178.678 158.597 178.362 158.93 178.17C159.262 177.971 159.661 177.871 160.127 177.871H160.538V179.156H159.952C159.487 179.156 159.108 179.301 158.817 179.592C158.535 179.875 158.393 180.282 158.393 180.814V184.705H156.984ZM161.852 187.449C161.685 187.449 161.519 187.432 161.353 187.399C161.195 187.374 161.049 187.332 160.916 187.274V186.064C161.016 186.089 161.137 186.11 161.278 186.127C161.419 186.152 161.557 186.164 161.69 186.164C162.08 186.164 162.367 186.077 162.55 185.902C162.741 185.736 162.912 185.478 163.061 185.129L163.51 184.106L163.485 185.291L160.567 177.958H162.076L164.234 183.583H163.722L165.867 177.958H167.389L164.408 185.441C164.25 185.84 164.051 186.189 163.81 186.488C163.577 186.796 163.298 187.033 162.974 187.199C162.658 187.365 162.284 187.449 161.852 187.449Z" fill="#1A202C"/>
<path d="M280 299.869C282.168 299.869 283.252 299.869 284.116 300.333C284.841 300.723 285.493 301.425 285.829 302.176C286.229 303.071 286.156 304.08 286.009 306.099C285.143 317.977 281.812 329.545 276.229 340.064C275.28 341.852 274.806 342.746 273.991 343.291C273.307 343.749 272.381 343.996 271.56 343.941C270.581 343.874 269.663 343.298 267.827 342.145L264.05 339.773C262.202 338.613 261.279 338.033 260.807 337.29C260.365 336.596 260.179 335.922 260.2 335.099C260.223 334.219 260.763 333.158 261.842 331.034C265.795 323.252 268.232 314.788 269.022 306.096C269.238 303.724 269.345 302.537 269.794 301.78C270.213 301.072 270.729 300.601 271.473 300.247C272.267 299.869 273.358 299.869 275.54 299.869H280Z" fill="#B95CFC"/>
<path d="M264.828 346.583C266.582 347.857 267.459 348.494 267.885 349.377C268.243 350.118 268.359 351.069 268.189 351.875C267.987 352.834 267.334 353.608 266.029 355.155C257.901 364.789 247.73 372.533 236.226 377.806C224.721 383.08 212.215 385.731 199.611 385.6C197.587 385.579 196.575 385.568 195.716 385.095C194.996 384.698 194.35 383.99 194.022 383.235C193.631 382.335 193.721 381.255 193.901 379.095L194.272 374.65C194.453 372.476 194.543 371.389 194.986 370.628C195.4 369.917 195.913 369.441 196.653 369.082C197.445 368.698 198.636 368.689 201.018 368.671C210.715 368.598 220.312 366.476 229.17 362.415C238.029 358.355 245.901 352.47 252.286 345.171C253.854 343.378 254.639 342.481 255.446 342.132C256.202 341.806 256.897 341.727 257.706 341.878C258.571 342.039 259.453 342.68 261.219 343.962L264.828 346.583Z" fill="#5CAFFC"/>
<path d="M188.515 378.461C188.188 380.604 188.025 381.675 187.436 382.459C186.942 383.117 186.149 383.657 185.356 383.875C184.411 384.136 183.424 383.911 181.451 383.461C172.852 381.502 164.607 378.228 157.008 373.754C155.264 372.727 154.392 372.214 153.883 371.376C153.455 370.672 153.249 369.736 153.341 368.919C153.45 367.944 154.066 367.052 155.299 365.269L157.835 361.6C159.076 359.805 159.696 358.907 160.458 358.469C161.172 358.058 161.853 357.902 162.674 357.959C163.552 358.021 164.589 358.607 166.663 359.778C172.107 362.853 177.945 365.171 184.015 366.669C186.327 367.24 187.484 367.525 188.164 368.083C188.801 368.604 189.19 369.186 189.427 369.974C189.681 370.816 189.517 371.894 189.188 374.051L188.515 378.461Z" fill="#A1A9FE"/>
<path d="M151.203 362.239C149.859 363.94 149.186 364.791 148.287 365.181C147.532 365.508 146.576 365.585 145.779 365.382C144.828 365.141 144.082 364.457 142.589 363.09C132.186 353.561 124.27 341.587 119.585 328.211C114.211 312.869 113.31 296.316 116.986 280.481C120.662 264.646 128.764 250.183 140.347 238.778C150.446 228.834 162.828 221.572 176.365 217.601C178.307 217.031 179.278 216.746 180.238 216.948C181.043 217.118 181.867 217.608 182.401 218.234C183.037 218.981 183.265 220.04 183.723 222.159L184.664 226.519C185.125 228.652 185.355 229.718 185.153 230.575C184.964 231.376 184.612 231.98 184.009 232.539C183.363 233.137 182.227 233.493 179.953 234.204C169.549 237.46 160.037 243.151 152.226 250.842C142.93 259.995 136.428 271.602 133.478 284.31C130.528 297.017 131.251 310.302 135.564 322.614C139.187 332.959 145.219 342.259 153.125 349.766C154.853 351.406 155.716 352.226 156.032 353.047C156.328 353.815 156.378 354.513 156.194 355.315C155.998 356.173 155.322 357.028 153.969 358.74L151.203 362.239Z" fill="#522EED"/>
<path d="M189.575 221.123C189.277 218.976 189.129 217.902 189.47 216.983C189.756 216.211 190.361 215.468 191.059 215.032C191.891 214.513 192.901 214.447 194.921 214.315C213.325 213.114 231.634 217.884 247.113 227.912C248.811 229.012 249.661 229.563 250.133 230.422C250.53 231.143 250.696 232.087 250.569 232.9C250.419 233.869 249.765 234.733 248.457 236.463L245.766 240.02C244.45 241.76 243.792 242.63 243.011 243.036C242.281 243.415 241.593 243.542 240.776 243.45C239.901 243.351 238.89 242.721 236.868 241.462C225.018 234.083 211.196 230.482 197.252 231.141C194.872 231.254 193.682 231.31 192.871 230.97C192.112 230.652 191.574 230.205 191.122 229.518C190.638 228.783 190.488 227.702 190.188 225.541L189.575 221.123Z" fill="#FFACC8"/>
<path d="M252.64 239.855C254.062 238.219 254.773 237.4 255.69 237.053C256.459 236.761 257.417 236.728 258.204 236.968C259.143 237.253 259.856 237.97 261.284 239.405C274.291 252.48 282.738 269.41 285.363 287.666C285.651 289.669 285.795 290.671 285.458 291.592C285.176 292.365 284.574 293.111 283.878 293.55C283.049 294.074 281.967 294.15 279.805 294.301L275.355 294.614C273.179 294.767 272.091 294.843 271.272 294.522C270.506 294.221 269.958 293.787 269.49 293.11C268.989 292.386 268.799 291.21 268.418 288.858C266.184 275.078 259.808 262.298 250.141 252.227C248.491 250.508 247.666 249.648 247.389 248.813C247.13 248.032 247.112 247.333 247.333 246.54C247.568 245.693 248.284 244.869 249.715 243.222L252.64 239.855Z" fill="#4120A9"/>
<path d="M174.228 292V280.234H171.534V278.064H176.772V292H174.228ZM178.836 292V290.073L182.614 286.126C183.362 285.341 183.936 284.717 184.335 284.256C184.747 283.782 185.033 283.377 185.196 283.04C185.358 282.703 185.439 282.36 185.439 282.011C185.439 281.425 185.252 280.964 184.878 280.627C184.516 280.29 184.048 280.122 183.475 280.122C182.876 280.122 182.359 280.296 181.922 280.646C181.486 280.982 181.168 281.481 180.968 282.142L178.742 281.45C178.892 280.714 179.197 280.078 179.659 279.542C180.12 278.993 180.681 278.575 181.342 278.289C182.016 277.989 182.726 277.84 183.475 277.84C184.373 277.84 185.158 278.002 185.832 278.326C186.517 278.65 187.047 279.105 187.422 279.692C187.808 280.278 188.001 280.964 188.001 281.749C188.001 282.248 187.908 282.741 187.721 283.227C187.534 283.713 187.253 284.212 186.879 284.723C186.505 285.222 186.019 285.783 185.42 286.407L182.147 289.849H188.189V292H178.836ZM190.502 294.918V293.702C190.914 293.602 191.244 293.409 191.493 293.122C191.755 292.848 191.917 292.474 191.98 292H190.876V289.381H193.345V290.99C193.345 292.087 193.102 292.966 192.616 293.627C192.142 294.288 191.437 294.719 190.502 294.918ZM200.256 292.224C199.52 292.224 198.815 292.087 198.142 291.813C197.481 291.539 196.907 291.152 196.421 290.653C195.947 290.142 195.623 289.537 195.448 288.839L197.656 288.053C197.868 288.689 198.211 289.163 198.684 289.475C199.158 289.774 199.682 289.924 200.256 289.924C200.73 289.924 201.147 289.824 201.509 289.624C201.883 289.412 202.17 289.126 202.369 288.764C202.569 288.39 202.669 287.96 202.669 287.473C202.669 286.987 202.563 286.563 202.351 286.201C202.151 285.84 201.871 285.559 201.509 285.359C201.147 285.147 200.73 285.041 200.256 285.041C199.769 285.041 199.327 285.147 198.928 285.359C198.541 285.571 198.26 285.877 198.086 286.276L196.009 285.808L197.113 278.064H204.708V280.215H198.123L199.077 279.112L198.292 284.948L197.562 284.349C197.911 283.838 198.335 283.464 198.834 283.227C199.345 282.99 199.963 282.872 200.686 282.872C201.609 282.872 202.407 283.071 203.08 283.47C203.766 283.869 204.296 284.412 204.67 285.098C205.044 285.783 205.231 286.575 205.231 287.473C205.231 288.371 205.013 289.182 204.577 289.905C204.14 290.628 203.548 291.196 202.8 291.607C202.051 292.019 201.203 292.224 200.256 292.224ZM212.718 292V288.932H206.321V286.8L212.569 278.064H215.225V286.8H217.264V288.932H215.225V292H212.718ZM208.191 287.716L207.742 286.8H212.718V280.066L213.373 280.271L208.191 287.716ZM223.947 292.224C222.837 292.224 221.865 291.925 221.029 291.327C220.194 290.728 219.539 289.886 219.065 288.801C218.604 287.716 218.373 286.457 218.373 285.023C218.373 283.576 218.604 282.317 219.065 281.244C219.526 280.172 220.175 279.336 221.01 278.738C221.846 278.139 222.819 277.84 223.929 277.84C225.063 277.84 226.042 278.139 226.865 278.738C227.701 279.336 228.356 280.178 228.83 281.263C229.303 282.335 229.54 283.589 229.54 285.023C229.54 286.457 229.303 287.716 228.83 288.801C228.368 289.874 227.72 290.716 226.884 291.327C226.049 291.925 225.07 292.224 223.947 292.224ZM223.966 289.905C224.602 289.905 225.144 289.712 225.593 289.325C226.042 288.926 226.385 288.365 226.622 287.642C226.872 286.906 226.996 286.033 226.996 285.023C226.996 284.013 226.872 283.146 226.622 282.423C226.385 281.687 226.036 281.126 225.575 280.739C225.126 280.352 224.577 280.159 223.929 280.159C223.305 280.159 222.769 280.352 222.32 280.739C221.871 281.126 221.522 281.687 221.272 282.423C221.035 283.146 220.917 284.013 220.917 285.023C220.917 286.02 221.035 286.887 221.272 287.623C221.522 288.346 221.871 288.907 222.32 289.306C222.781 289.705 223.33 289.905 223.966 289.905ZM149.921 316V302.064H155.121C156.069 302.064 156.904 302.239 157.628 302.588C158.363 302.925 158.937 303.423 159.349 304.084C159.76 304.733 159.966 305.525 159.966 306.46C159.966 307.383 159.754 308.175 159.33 308.836C158.918 309.484 158.351 309.983 157.628 310.332C156.904 310.681 156.069 310.856 155.121 310.856H152.465V316H149.921ZM152.465 308.611H155.158C155.62 308.611 156.019 308.524 156.356 308.349C156.692 308.162 156.954 307.907 157.141 307.582C157.328 307.258 157.422 306.884 157.422 306.46C157.422 306.024 157.328 305.649 157.141 305.338C156.954 305.013 156.692 304.764 156.356 304.589C156.019 304.402 155.62 304.309 155.158 304.309H152.465V308.611ZM163.767 316.224C163.056 316.224 162.439 316.106 161.915 315.869C161.391 315.632 160.986 315.295 160.699 314.859C160.413 314.41 160.269 313.892 160.269 313.306C160.269 312.745 160.394 312.246 160.643 311.81C160.893 311.361 161.279 310.987 161.803 310.688C162.327 310.388 162.988 310.176 163.786 310.052L167.115 309.509V311.38L164.253 311.866C163.767 311.953 163.405 312.109 163.169 312.334C162.932 312.558 162.813 312.851 162.813 313.213C162.813 313.562 162.944 313.843 163.206 314.055C163.48 314.254 163.817 314.354 164.216 314.354C164.727 314.354 165.176 314.248 165.563 314.036C165.962 313.811 166.267 313.506 166.479 313.119C166.704 312.733 166.816 312.309 166.816 311.847V309.228C166.816 308.792 166.642 308.43 166.292 308.144C165.956 307.844 165.507 307.695 164.946 307.695C164.422 307.695 163.954 307.838 163.543 308.125C163.144 308.399 162.851 308.767 162.663 309.228L160.662 308.256C160.861 307.72 161.173 307.258 161.597 306.872C162.034 306.472 162.545 306.161 163.131 305.936C163.717 305.712 164.353 305.6 165.039 305.6C165.875 305.6 166.61 305.755 167.246 306.067C167.882 306.366 168.375 306.79 168.724 307.339C169.086 307.875 169.267 308.505 169.267 309.228V316H166.947V314.26L167.471 314.223C167.209 314.659 166.897 315.027 166.536 315.327C166.174 315.613 165.762 315.838 165.301 316C164.84 316.15 164.328 316.224 163.767 316.224ZM170.97 316V305.824H173.271V308.087L173.084 307.751C173.321 306.99 173.689 306.46 174.188 306.161C174.699 305.861 175.31 305.712 176.021 305.712H176.62V307.882H175.74C175.042 307.882 174.481 308.1 174.057 308.536C173.633 308.96 173.421 309.559 173.421 310.332V316H170.97ZM182.319 316.112C181.171 316.112 180.28 315.8 179.644 315.177C179.02 314.541 178.708 313.649 178.708 312.502V308.013H176.95V305.824H177.137C177.636 305.824 178.023 305.693 178.297 305.431C178.571 305.169 178.708 304.789 178.708 304.29V303.504H181.159V305.824H183.497V308.013H181.159V312.371C181.159 312.708 181.215 312.995 181.327 313.232C181.452 313.468 181.639 313.649 181.888 313.774C182.15 313.899 182.481 313.961 182.88 313.961C182.967 313.961 183.067 313.955 183.179 313.942C183.304 313.93 183.422 313.917 183.535 313.905V316C183.36 316.025 183.16 316.05 182.936 316.075C182.712 316.1 182.506 316.112 182.319 316.112ZM184.846 316V305.824H187.296V316H184.846ZM184.846 304.683V302.064H187.296V304.683H184.846ZM193.898 316.224C192.888 316.224 191.978 315.994 191.167 315.532C190.369 315.058 189.739 314.422 189.278 313.624C188.817 312.814 188.586 311.903 188.586 310.893C188.586 309.883 188.817 308.979 189.278 308.181C189.739 307.383 190.369 306.753 191.167 306.292C191.978 305.83 192.888 305.6 193.898 305.6C194.622 305.6 195.295 305.73 195.919 305.992C196.542 306.242 197.078 306.591 197.527 307.04C197.989 307.476 198.319 308 198.519 308.611L196.368 309.546C196.18 309.035 195.862 308.624 195.414 308.312C194.977 308 194.472 307.844 193.898 307.844C193.362 307.844 192.882 307.975 192.458 308.237C192.046 308.499 191.722 308.861 191.485 309.322C191.248 309.783 191.13 310.313 191.13 310.912C191.13 311.511 191.248 312.041 191.485 312.502C191.722 312.963 192.046 313.325 192.458 313.587C192.882 313.849 193.362 313.98 193.898 313.98C194.484 313.98 194.996 313.824 195.432 313.512C195.869 313.2 196.18 312.783 196.368 312.259L198.519 313.232C198.319 313.805 197.995 314.323 197.546 314.784C197.097 315.233 196.561 315.588 195.937 315.85C195.314 316.1 194.634 316.224 193.898 316.224ZM199.817 316V305.824H202.267V316H199.817ZM199.817 304.683V302.064H202.267V304.683H199.817ZM203.969 319.741V305.824H206.27V307.844L206.045 307.339C206.394 306.79 206.868 306.366 207.467 306.067C208.065 305.755 208.757 305.6 209.543 305.6C210.503 305.6 211.37 305.836 212.143 306.31C212.916 306.784 213.527 307.42 213.976 308.218C214.438 309.016 214.668 309.914 214.668 310.912C214.668 311.897 214.444 312.795 213.995 313.606C213.546 314.416 212.935 315.058 212.162 315.532C211.389 315.994 210.51 316.224 209.524 316.224C208.789 316.224 208.109 316.081 207.485 315.794C206.874 315.495 206.388 315.071 206.026 314.522L206.419 314.036V319.741H203.969ZM209.244 313.98C209.805 313.98 210.304 313.849 210.74 313.587C211.177 313.325 211.513 312.963 211.75 312.502C212 312.041 212.124 311.511 212.124 310.912C212.124 310.313 212 309.79 211.75 309.341C211.513 308.879 211.177 308.518 210.74 308.256C210.304 307.981 209.805 307.844 209.244 307.844C208.708 307.844 208.221 307.975 207.785 308.237C207.361 308.499 207.024 308.867 206.775 309.341C206.538 309.802 206.419 310.326 206.419 310.912C206.419 311.511 206.538 312.041 206.775 312.502C207.024 312.963 207.361 313.325 207.785 313.587C208.221 313.849 208.708 313.98 209.244 313.98ZM219.062 316.224C218.351 316.224 217.734 316.106 217.21 315.869C216.686 315.632 216.281 315.295 215.994 314.859C215.707 314.41 215.564 313.892 215.564 313.306C215.564 312.745 215.689 312.246 215.938 311.81C216.188 311.361 216.574 310.987 217.098 310.688C217.622 310.388 218.283 310.176 219.081 310.052L222.41 309.509V311.38L219.548 311.866C219.062 311.953 218.7 312.109 218.463 312.334C218.226 312.558 218.108 312.851 218.108 313.213C218.108 313.562 218.239 313.843 218.501 314.055C218.775 314.254 219.112 314.354 219.511 314.354C220.022 314.354 220.471 314.248 220.858 314.036C221.257 313.811 221.562 313.506 221.774 313.119C221.999 312.733 222.111 312.309 222.111 311.847V309.228C222.111 308.792 221.936 308.43 221.587 308.144C221.251 307.844 220.802 307.695 220.24 307.695C219.717 307.695 219.249 307.838 218.838 308.125C218.438 308.399 218.145 308.767 217.958 309.228L215.957 308.256C216.156 307.72 216.468 307.258 216.892 306.872C217.329 306.472 217.84 306.161 218.426 305.936C219.012 305.712 219.648 305.6 220.334 305.6C221.17 305.6 221.905 305.755 222.541 306.067C223.177 306.366 223.67 306.79 224.019 307.339C224.381 307.875 224.562 308.505 224.562 309.228V316H222.242V314.26L222.766 314.223C222.504 314.659 222.192 315.027 221.83 315.327C221.469 315.613 221.057 315.838 220.596 316C220.134 316.15 219.623 316.224 219.062 316.224ZM226.265 316V305.824H228.566V307.826L228.379 307.47C228.616 306.859 229.003 306.398 229.539 306.086C230.087 305.762 230.723 305.6 231.447 305.6C232.195 305.6 232.856 305.762 233.43 306.086C234.016 306.41 234.471 306.865 234.795 307.451C235.119 308.025 235.281 308.692 235.281 309.453V316H232.831V310.033C232.831 309.584 232.744 309.197 232.569 308.873C232.395 308.549 232.151 308.299 231.84 308.125C231.54 307.938 231.185 307.844 230.773 307.844C230.374 307.844 230.019 307.938 229.707 308.125C229.395 308.299 229.152 308.549 228.978 308.873C228.803 309.197 228.716 309.584 228.716 310.033V316H226.265ZM241.431 316.112C240.284 316.112 239.393 315.8 238.757 315.177C238.133 314.541 237.821 313.649 237.821 312.502V308.013H236.063V305.824H236.25C236.749 305.824 237.135 305.693 237.41 305.431C237.684 305.169 237.821 304.789 237.821 304.29V303.504H240.272V305.824H242.61V308.013H240.272V312.371C240.272 312.708 240.328 312.995 240.44 313.232C240.565 313.468 240.752 313.649 241.001 313.774C241.263 313.899 241.594 313.961 241.993 313.961C242.08 313.961 242.18 313.955 242.292 313.942C242.417 313.93 242.535 313.917 242.647 313.905V316C242.473 316.025 242.273 316.05 242.049 316.075C241.824 316.1 241.619 316.112 241.431 316.112ZM247.83 316.224C246.746 316.224 245.798 315.969 244.987 315.458C244.189 314.934 243.64 314.229 243.341 313.344L245.174 312.465C245.436 313.038 245.798 313.487 246.259 313.811C246.733 314.136 247.257 314.298 247.83 314.298C248.279 314.298 248.635 314.198 248.897 313.998C249.159 313.799 249.29 313.537 249.29 313.213C249.29 313.013 249.233 312.851 249.121 312.726C249.021 312.589 248.878 312.477 248.691 312.39C248.516 312.29 248.323 312.209 248.111 312.147L246.446 311.679C245.586 311.43 244.931 311.049 244.482 310.538C244.046 310.027 243.827 309.422 243.827 308.723C243.827 308.1 243.983 307.557 244.295 307.096C244.619 306.622 245.062 306.254 245.623 305.992C246.197 305.73 246.852 305.6 247.587 305.6C248.548 305.6 249.396 305.83 250.131 306.292C250.867 306.753 251.391 307.402 251.703 308.237L249.832 309.116C249.657 308.655 249.364 308.287 248.953 308.013C248.541 307.738 248.08 307.601 247.569 307.601C247.157 307.601 246.833 307.695 246.596 307.882C246.359 308.069 246.24 308.312 246.24 308.611C246.24 308.798 246.29 308.96 246.39 309.098C246.49 309.235 246.627 309.347 246.802 309.434C246.989 309.522 247.201 309.603 247.438 309.677L249.065 310.164C249.901 310.413 250.543 310.787 250.992 311.286C251.453 311.785 251.684 312.396 251.684 313.119C251.684 313.73 251.522 314.273 251.198 314.747C250.873 315.208 250.424 315.57 249.851 315.832C249.277 316.094 248.604 316.224 247.83 316.224Z" fill="#1A202C"/>
</g>
</g>
<defs>
<filter id="filter0_d_129_304" x="415.048" y="158.337" width="195.905" height="142.407" filterUnits="userSpaceOnUse" color-interpolation-filters="sRGB">
<feFlood flood-opacity="0" result="BackgroundImageFix"/>
<feColorMatrix in="SourceAlpha" type="matrix" values="0 0 0 0 0 0 0 0 0 0 0 0 0 0 0 0 0 0 127 0" result="hardAlpha"/>
<feOffset dy="29.2899"/>
<feGaussianBlur stdDeviation="15.9763"/>
<feComposite in2="hardAlpha" operator="out"/>
<feColorMatrix type="matrix" values="0 0 0 0 0 0 0 0 0 0 0 0 0 0 0 0 0 0 0.25 0"/>
<feBlend mode="normal" in2="BackgroundImageFix" result="effect1_dropShadow_129_304"/>
<feBlend mode="normal" in="SourceGraphic" in2="effect1_dropShadow_129_304" result="shape"/>
</filter>
<filter id="filter1_d_129_304" x="8" y="91" width="425" height="615.956" filterUnits="userSpaceOnUse" color-interpolation-filters="sRGB">
<feFlood flood-opacity="0" result="BackgroundImageFix"/>
<feColorMatrix in="SourceAlpha" type="matrix" values="0 0 0 0 0 0 0 0 0 0 0 0 0 0 0 0 0 0 127 0" result="hardAlpha"/>
<feOffset dx="20" dy="20"/>
<feGaussianBlur stdDeviation="40"/>
<feComposite in2="hardAlpha" operator="out"/>
<feColorMatrix type="matrix" values="0 0 0 0 0 0 0 0 0 0 0 0 0 0 0 0 0 0 0.15 0"/>
<feBlend mode="normal" in2="BackgroundImageFix" result="effect1_dropShadow_129_304"/>
<feBlend mode="normal" in="SourceGraphic" in2="effect1_dropShadow_129_304" result="shape"/>
</filter>
<linearGradient id="paint0_linear_129_304" x1="273.657" y1="140.377" x2="272.353" y2="465.061" gradientUnits="userSpaceOnUse">
<stop stop-color="#4F28FF"/>
<stop offset="1" stop-color="white"/>
</linearGradient>
<linearGradient id="paint1_linear_129_304" x1="352.456" y1="203.891" x2="351.662" y2="457.22" gradientUnits="userSpaceOnUse">
<stop stop-color="#4F28FF"/>
<stop offset="1" stop-color="white"/>
</linearGradient>
<linearGradient id="paint2_linear_129_304" x1="431.254" y1="288.335" x2="430.943" y2="446.794" gradientUnits="userSpaceOnUse">
<stop stop-color="#4F28FF"/>
<stop offset="1" stop-color="white"/>
</linearGradient>
<linearGradient id="paint3_linear_129_304" x1="510.052" y1="247.91" x2="509.538" y2="451.785" gradientUnits="userSpaceOnUse">
<stop stop-color="#4F28FF"/>
<stop offset="1" stop-color="white"/>
</linearGradient>
<linearGradient id="paint4_linear_129_304" x1="588.85" y1="349.423" x2="588.751" y2="439.25" gradientUnits="userSpaceOnUse">
<stop stop-color="#4F28FF"/>
<stop offset="1" stop-color="white"/>
</linearGradient>
<linearGradient id="paint5_linear_129_304" x1="667.649" y1="366.492" x2="667.587" y2="437.143" gradientUnits="userSpaceOnUse">
<stop stop-color="#4F28FF"/>
<stop offset="1" stop-color="white"/>
</linearGradient>
<clipPath id="clip0_129_304">
<path d="M0 50C0 22.3858 22.3858 0 50 0H708V482H0V50Z" fill="white"/>
</clipPath>
</defs>
</svg>
