<svg width="486" height="486" viewBox="0 0 486 486" fill="none" xmlns="http://www.w3.org/2000/svg">
<path d="M123.157 405.307C64.9313 366.281 12.7219 279.282 67.7292 230.312C118.73 184.91 145.271 235.204 204.313 206.269C263.355 177.335 234.221 93.6238 301.6 73.1855C340.708 61.3226 388.424 80.4253 413.662 124.096C438.9 167.767 441.659 236.005 390.853 322.414C342.86 404.038 284.393 430.428 233.695 433.58C182.998 436.731 140.07 416.642 123.157 405.307Z" stroke="#3396F3" stroke-opacity="0.6" stroke-width="2.10293" stroke-miterlimit="10"/>
<path d="M383.886 322.367C339.987 397.291 286.399 421.856 239.738 424.996C193.38 428.047 153.982 409.928 138.033 399.484C83.8707 363.777 35.1873 283.578 84.4461 237.374C129.929 194.713 154.532 238.774 208.664 211.778C210.203 211.005 211.679 210.193 213.096 209.346C251.502 186.397 246.546 136.686 272.351 107.954C279.356 100.154 288.592 93.8597 301.518 90.0971C338.699 79.2743 382.75 97.2949 405.809 137.807C428.933 178.544 430.815 242.104 383.886 322.367Z" stroke="#3396F3" stroke-opacity="0.6" stroke-width="2.10293" stroke-miterlimit="10"/>
<path d="M376.919 322.323C337.113 390.548 288.406 413.286 245.78 416.416C203.763 419.366 167.861 403.264 152.91 393.666C102.694 361.43 57.6504 287.892 101.163 244.441C141.127 204.532 163.888 242.505 213.016 217.291C214.432 216.564 215.787 215.795 217.095 214.999C252.422 193.53 249.606 148.654 274.146 122.981C280.847 115.971 289.515 110.317 301.436 107.011C336.696 97.2351 377.076 114.167 397.956 151.521C418.965 189.324 419.971 248.204 376.919 322.323Z" stroke="#3396F3" stroke-opacity="0.6" stroke-width="2.10293" stroke-miterlimit="10"/>
<path d="M369.951 322.273C334.239 383.799 290.421 404.81 251.822 407.83C214.154 410.777 181.759 396.569 167.785 387.842C121.587 358.99 80.1108 292.22 117.879 251.502C152.326 214.364 173.191 246.14 217.366 222.798C218.658 222.115 219.895 221.391 221.092 220.646C253.341 200.657 252.675 160.617 275.94 138.002C282.339 131.782 290.44 126.773 301.353 123.919C334.7 115.2 371.399 131.032 390.102 165.229C408.996 200.097 409.127 254.299 369.951 322.273Z" stroke="#3396F3" stroke-opacity="0.6" stroke-width="2.10293" stroke-miterlimit="10"/>
<path d="M362.983 322.227C331.488 377.114 292.43 396.267 257.864 399.248C224.54 402.121 195.66 389.876 182.66 382.022C140.491 356.543 102.572 296.576 134.595 258.566C163.528 224.223 182.49 249.767 221.716 228.308C222.884 227.669 224.002 226.99 225.089 226.297C254.26 207.788 255.757 172.587 277.733 153.028C283.834 147.598 291.368 143.241 301.269 140.832C332.713 133.181 365.81 147.863 382.247 178.94C399.117 210.835 398.422 260.466 362.983 322.227Z" stroke="#3396F3" stroke-opacity="0.6" stroke-width="2.10293" stroke-miterlimit="10"/>
<path d="M356.016 322.185C328.635 370.382 294.442 387.726 263.907 390.67C234.927 393.465 209.565 383.184 197.537 376.206C159.41 354.087 125.041 300.97 151.312 265.635C174.743 234.118 191.784 253.382 226.068 233.823C227.112 233.227 228.111 232.594 229.087 231.953C255.18 214.923 258.858 184.567 279.528 168.058C285.335 163.419 292.302 159.722 301.187 157.749C330.738 151.184 360.149 164.732 374.394 192.656C389.165 221.612 387.605 266.581 356.016 322.185Z" stroke="#3396F3" stroke-opacity="0.6" stroke-width="2.10293" stroke-miterlimit="10"/>
<path d="M349.049 322.135C325.773 363.639 296.453 379.17 269.949 382.085C245.313 384.794 223.474 376.479 212.413 370.383C178.344 351.605 147.53 305.403 168.028 272.696C185.982 244.049 201.068 256.97 230.419 239.331C231.338 238.778 232.22 238.191 233.085 237.601C256.099 222.05 261.981 196.551 281.322 183.08C286.842 179.235 293.239 176.207 301.104 174.658C328.776 169.207 354.482 181.597 366.54 206.365C379.207 232.384 376.781 272.684 349.049 322.135Z" stroke="#3396F3" stroke-opacity="0.6" stroke-width="2.10293" stroke-miterlimit="10"/>
<path d="M342.081 322.088C322.901 356.892 298.465 370.608 275.992 373.502C255.7 376.116 237.39 369.77 227.289 364.562C197.3 349.099 168.324 309.126 184.745 279.76C198.76 254.696 210.337 260.532 234.77 244.84C235.565 244.329 236.328 243.789 237.084 243.251C257.02 229.18 265.131 208.557 283.117 198.104C288.356 195.059 294.182 192.707 301.022 191.569C326.828 187.273 348.808 198.469 358.686 220.076C369.241 243.163 365.946 278.786 342.081 322.088Z" stroke="#3396F3" stroke-opacity="0.6" stroke-width="2.10293" stroke-miterlimit="10"/>
<path d="M335.114 322.045C320.011 350.141 300.476 362.032 282.035 364.923C266.086 367.423 251.314 363.052 242.166 358.745C216.281 346.558 192.717 314.465 201.462 286.828C208.657 264.087 219.581 264.059 239.121 250.354C239.791 249.884 240.436 249.392 241.082 248.906C257.94 236.314 268.308 220.604 284.911 213.133C289.879 210.898 295.128 209.231 300.939 208.484C324.894 205.409 343.121 215.35 350.833 233.791C359.264 253.951 355.093 284.881 335.114 322.045Z" stroke="#3396F3" stroke-opacity="0.6" stroke-width="2.10293" stroke-miterlimit="10"/>
<path d="M328.146 321.995C317.092 343.369 302.481 353.415 288.076 356.337C276.466 358.693 265.248 356.305 257.041 352.921C235.29 343.952 215.58 319.056 218.178 293.888C220.214 274.155 228.776 267.525 243.471 255.861C244.014 255.43 244.544 254.987 245.079 254.553C258.858 243.441 271.505 232.703 286.704 228.155C291.406 226.748 296.074 225.77 300.855 225.393C322.969 223.648 337.413 232.23 342.978 247.498C349.262 264.74 344.201 290.952 328.146 321.995Z" stroke="#3396F3" stroke-opacity="0.6" stroke-width="2.10293" stroke-miterlimit="10"/>
<path d="M234.894 300.954C231.881 283.426 238.376 269.839 249.077 260.206C259.778 250.573 274.686 244.894 288.499 243.182C316.841 239.668 331.03 246.881 335.124 261.211C339.218 275.542 333.217 296.991 321.179 321.951C309.141 346.91 289.51 352.948 271.918 347.102C254.326 341.257 238.773 323.528 234.894 300.954Z" stroke="#3396F3" stroke-opacity="0.6" stroke-width="2.10293" stroke-miterlimit="10"/>
</svg>
