<svg width="122" height="16" viewBox="0 0 122 16" fill="none" xmlns="http://www.w3.org/2000/svg">
<path d="M0.990399 7.31914C2.20842 5.33102 3.76502 4.54979 4.83492 4.19145C5.17133 4.08499 5.25725 4.53498 5.49516 4.48373C5.95737 4.38771 6.17536 4.02023 6.62135 3.99804C6.76441 3.99604 6.95139 4.65965 7.09133 4.64577C7.8612 4.56426 8.3642 4.13125 9.01608 3.9954C12.2586 3.33819 14.9683 2.85948 17.8275 2.51135C18.7506 2.4038 19.9845 2.77453 20.8578 2.34403C20.9605 2.29294 20.7897 1.72483 20.8016 1.67324C20.9967 0.881618 21.1001 2.07264 21.3414 2.19024C22.2918 2.65542 23.2258 2.56077 23.9934 2.21854C24.3245 2.07074 23.8091 0.962065 24.2542 1.56209C24.2848 1.60258 24.2852 2.23499 24.3899 2.2875C24.6316 2.40454 25.0052 2.24011 25.1789 2.26702C25.509 2.32258 25.5608 2.30949 25.8655 2.27765C26.283 2.23972 26.7925 2.49152 27.2216 2.29973C27.3127 2.25698 27.114 1.63361 27.2538 1.5078C27.3978 1.38157 27.7966 1.39252 27.9458 1.52891C28.0951 1.66523 28.0915 2.17295 28.1272 2.28543C28.4207 3.23548 28.7396 1.84434 28.7982 1.80512C29.818 1.13147 30.8222 1.81847 31.8186 1.74153C32.0436 1.72375 32.2731 1.68461 32.5049 1.63796C33.0525 1.52622 33.6093 1.37227 34.1327 1.36861C35.0017 1.36585 35.7656 1.68107 36.5977 1.59239C36.6862 1.58379 36.5563 0.833127 36.6649 0.82111C37.8253 0.69419 38.9777 0.752527 40.1295 1.24955C40.2445 1.30008 40.1043 1.96418 40.2192 2.05431C40.9262 2.59071 42.0207 3.89641 42.4393 1.01301C42.9135 1.1264 43.4951 1.24621 43.9086 1.83153C44.1768 2.20831 43.9061 2.92752 44.2423 2.62287C44.3182 2.55505 44.2269 1.92191 44.3406 1.86802C44.8193 1.64174 45.3423 1.85462 45.8148 1.53603C45.9115 1.46976 45.8952 0.902992 45.9242 0.801479C46.1675 -0.020524 46.5238 1.35207 46.6042 1.45297C47.2233 2.20553 47.6828 1.92505 48.2691 1.95816C48.405 1.9662 48.2639 1.20145 48.3956 1.18189C49.0818 1.09076 49.7798 1.17681 50.4339 1.53568C50.5793 1.61734 50.4224 2.26068 50.4907 2.33285C50.7916 2.64323 50.9024 1.4222 51.1919 1.69669C51.2526 1.75298 51.1984 2.30625 51.2077 2.36754C51.3528 3.32957 51.5549 1.98056 51.6021 1.95228C52.1989 1.56431 52.52 2.99206 53.0908 2.81354C53.1588 2.79075 53.0348 2.08343 53.2243 2.06228C54.4893 1.91741 55.8135 2.16698 57.0349 2.78405C57.224 2.87901 57.0625 3.39962 57.0717 3.46511C57.2232 4.48871 57.4126 3.13495 57.4779 3.08662C57.9909 2.74064 58.4022 3.90232 58.8164 2.29891C60.893 2.95928 63.0295 2.15354 65.0405 3.7049C65.0662 3.72299 64.9863 4.39018 65.0377 4.42338C65.6548 4.83004 65.5829 3.78359 66.0642 2.53123C66.1853 2.21676 66.4338 3.76867 66.457 3.88265C66.5411 4.30265 66.3857 5.29355 66.4166 5.37559C66.6748 6.02051 66.785 2.72425 67.1736 2.74164C67.1855 2.74771 67.1056 3.3516 67.1354 3.41344C67.228 3.60752 67.3393 3.37132 67.4283 3.58471C67.6317 4.07834 67.6373 5.68283 68.0273 4.76745C68.0768 4.64858 68.0972 2.77689 68.4392 2.88127C68.5755 2.9245 69.1885 2.92065 69.3542 3.0495C69.5194 3.17823 69.3748 3.77508 69.3858 3.80171C69.8101 4.61891 69.6206 4.941 69.7987 6.13036C69.9774 7.31524 70.0388 4.51107 70.1468 4.20261C70.2549 3.89505 70.5638 4.56707 70.637 4.79912C70.7101 5.03129 70.5896 5.4094 70.6578 5.54196C71.1116 6.40832 70.9339 4.16086 71.1147 3.72327C71.5407 2.68697 71.7459 4.77715 72.0863 4.99541C72.1782 5.05434 72.1212 4.57791 72.2069 4.53717C72.5459 4.38203 72.7193 5.03862 73.1217 4.45947C73.1877 4.36512 73.5427 3.1281 73.7035 4.05266C73.7263 4.18596 73.6263 4.70065 73.7633 4.8222C73.9678 5.0046 74.3448 5.13249 74.5788 4.96795C74.7515 4.8462 74.5912 3.98569 74.7924 4.25867C74.8818 4.38054 74.6891 4.87323 74.8589 5.06053C75.0277 5.24778 75.4782 5.24222 75.6492 5.23099C75.8203 5.21942 75.7499 4.56879 75.7652 4.52568C75.8574 4.27885 76.1945 3.97807 76.2233 3.97981C77.6792 3.95072 78.99 5.08192 80.418 4.75444C80.5298 4.72965 80.4718 4.04506 80.4891 4.03424C80.8757 3.75698 80.5337 5.56558 80.7867 6.17935C80.7795 4.79275 80.931 5.0473 81.2026 4.90106C81.3335 4.82945 81.2744 4.29138 81.2874 4.2367C81.4956 3.42574 81.6069 4.48108 81.6371 4.69712C81.7483 5.49184 81.9049 4.5585 81.9812 5.08964C82.0578 5.61682 81.8436 6.3922 82.1023 6.38705C82.1837 5.8923 82.0166 4.59239 82.2156 4.38587C82.9645 3.60533 84.3196 4.64071 84.9125 4.75084C85.5023 4.86147 85.6932 4.77075 86.0368 4.95178C86.6581 5.27846 86.4335 4.31554 86.8189 3.87602C87.2047 3.43616 87.0161 5.8029 87.0714 6.3118C87.1262 6.82043 87.1864 6.29688 87.2548 6.57646C87.3231 6.85596 87.1753 7.202 87.3362 7.30688C87.4976 7.41176 87.9351 6.50586 87.9894 5.97353C88.1052 4.84588 87.9046 3.66379 88.3268 4.07759C88.3512 4.10213 88.2755 4.72491 88.3687 4.78734C89.1099 5.26276 89.8749 5.28486 90.6216 5.69719C90.7242 5.75486 90.6439 6.44857 90.7039 6.48996C91.3299 6.92262 91.0899 5.75886 91.4012 4.456C91.3585 6.18292 91.5658 7.23555 92.0372 7.23542C92.3202 7.23578 92.2546 6.48324 92.424 5.94778C92.4746 5.78638 92.687 6.29878 92.7141 5.94345C92.8028 4.78189 92.5826 3.49036 93.074 3.99363C93.0956 4.01758 93.0465 4.65351 93.1202 4.68987C93.5974 4.92769 93.6172 3.71453 94.1152 3.55117C94.5066 3.42302 95.2381 4.13503 95.6951 4.2355C95.7556 5.85306 96.0533 5.79944 96.2143 4.95653C96.2479 4.78891 96.276 4.59014 96.2957 4.36716C96.6029 4.40796 96.9228 4.3176 97.216 4.48925C97.3168 4.54773 97.2783 5.11189 97.2934 5.17196C97.5264 6.1145 97.5928 4.80846 97.6531 4.7546C98.3045 4.22803 98.9525 5.18551 99.5421 4.19262C99.5651 4.15677 99.5304 2.80906 99.7615 3.7834C99.7764 3.85061 99.5811 4.47377 99.9025 4.50606C100.224 4.53846 100.846 5.23222 101.231 4.58823C101.33 4.4329 101.549 3.32677 101.803 4.17021C101.838 4.28477 101.825 4.6724 101.877 4.88524C102.043 5.56333 102.048 4.1991 102.258 5.34748C102.471 6.49566 102.819 7.34626 103.232 6.52573C103.244 6.50182 103.294 5.41811 103.432 5.42813C103.654 5.44497 103.964 5.65406 104.191 5.63502C104.304 5.62531 104.196 4.95956 104.215 4.94628C104.946 4.53118 105.484 5.10039 106.288 5.31329C106.427 5.35417 106.795 4.4163 107.118 5.12037C107.474 5.89086 107.361 9.19688 108.023 8.36823C108.309 8.03504 108.355 3.84671 109.032 5.96696C109.968 5.36096 111.004 6.38691 111.926 5.51934C111.969 5.48068 111.974 4.30776 112.082 4.31163C112.242 4.31966 112.389 4.85087 112.504 4.87339C112.979 4.98183 113.343 4.46312 113.796 4.46624C113.966 4.46613 113.99 5.03294 114.203 5.02993C114.419 5.02506 114.411 4.27391 114.749 4.57452C115.005 4.80366 115.512 6.24847 115.856 6.35301C115.543 4.89029 115.737 4.88048 115.974 4.41377C116.018 4.32367 115.823 3.83613 115.836 3.76761C115.885 3.47856 116.102 3.86711 116.137 3.55466C116.145 3.47965 116.01 2.98718 116.008 2.89836C115.975 2.12753 116.586 3.14194 116.705 3.31392C117.134 3.97486 117.026 3.31038 117.274 3.54184C117.527 3.77058 117.414 4.20566 117.66 4.31223C118.175 4.53049 118.653 4.25575 119.045 4.11681C119.204 4.0574 118.834 3.47315 118.85 3.45003C119.09 3.16256 119.7 3.68604 119.319 2.36949C120.966 5.47952 119.363 1.97826 120.092 2.41955C120.15 2.45536 120.883 3.94601 120.847 4.23043C120.807 4.51571 120.399 4.1305 120.358 4.56467C120.35 4.66601 120.715 6.20531 120.715 6.30804C120.711 7.11296 119.693 4.84895 119.626 4.7295C118.89 3.44527 119.213 5.12508 119.165 5.26907C118.956 5.92542 118.476 5.73288 118.245 6.21401C118.091 6.5257 118.576 8.07691 118.354 8.09644C117.599 8.16134 116.811 6.02563 116.672 8.08603C116.635 8.52529 117.172 10.2269 116.359 8.97822C116.301 8.90128 115.685 7.72642 115.641 8.55782C115.634 8.66292 115.734 9.17092 115.707 9.22046C115.517 9.54343 115.298 9.16408 115.078 9.40219C114.851 9.64147 114.61 9.9778 114.293 9.84665C114.098 9.76913 113.767 8.84102 113.656 8.61759C113.349 7.97266 113.249 9.10904 113.02 8.30696C112.791 7.50069 112.891 6.22267 112.494 5.73108C112.637 7.06842 112.767 8.44312 112.901 9.78932C112.107 9.83328 111.304 9.47174 110.558 9.59381C110.465 9.61029 110.621 10.3229 110.522 10.3592C110.091 10.5099 109.701 10.0228 109.268 10.26C108.928 10.4466 108.637 11.234 108.282 11.4506C107.948 9.93036 107.497 10.4826 107.096 10.3659C106.958 10.3256 106.942 9.91477 106.838 9.78662C106.468 9.31182 106.707 10.66 106.625 10.8792C106.268 11.8151 106.054 8.74401 105.563 8.84773C105.539 8.85207 105.322 10.5075 105.284 10.6119C105.047 11.2921 105.208 10.044 105.03 9.93231C104.708 9.72782 104.44 9.34966 104.117 9.84785C104.019 9.99548 103.818 11.0301 103.567 10.2508C103.534 10.1487 103.521 9.60628 103.498 9.5757C103.069 9.06737 103.131 10.7706 102.94 11.3581C102.747 11.9455 102.339 10.7879 102.25 10.4527C102.019 9.58588 102.375 10.0712 102.381 9.98478C102.448 8.95581 102.203 9.14454 102.001 9.06779C101.891 7.40017 101.617 7.51393 101.79 8.99496C101.81 9.1567 101.957 8.99348 102.001 9.06779C101.912 10.7136 101.595 10.9393 101.207 9.42411C101.019 8.71423 101.126 7.87094 100.672 8.19931C100.464 8.34764 100.602 9.49296 100.425 9.81538C100.008 10.5517 99.4217 9.50476 98.9798 9.69461C98.8202 9.7635 99.0078 10.3853 98.8995 10.454C98.616 10.6383 98.3099 10.1794 98.0442 10.434C98.0192 10.4579 98.1133 11.1136 98.0242 11.1261C97.5113 11.208 97.023 11.0003 96.4859 10.9058C96.3169 10.8759 96.1444 10.857 95.9658 10.8618C95.6071 10.872 94.9781 11.2603 94.602 11.2001C93.9504 11.1002 93.1342 10.1647 92.5921 10.4108C92.2379 10.5685 92.3313 11.2258 92.1877 11.6785C91.909 12.556 91.3511 11.0064 91.2775 10.766C91.2753 10.7581 91.5798 10.5969 91.4095 10.2616C91.3012 9.55814 91.281 10.7629 91.2775 10.766C91.2282 10.6111 90.6118 10.4715 90.4916 10.5991C90.4263 10.6689 90.4723 11.2931 90.4379 11.3177C89.6218 11.8883 88.7947 12.0541 87.9577 11.7647C87.943 11.7521 87.9629 11.0532 87.9284 11.0323C87.4465 10.723 87.1397 11.5779 86.7397 12.0849C86.3402 12.5915 86.0221 12.4201 85.7938 11.2192C85.4934 11.3687 85.0677 10.8351 84.8244 10.511C84.5813 10.1869 84.5334 11.5468 84.5113 11.5735C83.8227 12.4271 83.4384 11.6434 82.7384 11.5111C82.4054 11.4459 81.7393 11.6312 81.3747 11.7723C81.0864 11.8863 80.9213 11.5638 80.6537 11.7617C80.6175 11.7882 80.6398 12.3945 80.6284 12.4176C80.3175 13.1354 80.493 11.6582 80.4385 11.3925C80.2412 10.4259 80.1193 9.91074 79.7338 10.3536C79.6452 10.455 79.338 12.5799 79.1759 12.7003C78.9658 12.8529 79.0641 12.0911 78.8439 12.2702C78.8251 12.2849 78.8159 12.7563 78.6835 12.7318C78.0686 12.6243 77.4059 12.3298 76.7647 12.3561C76.6772 12.3579 76.7649 13.109 76.6379 13.1239C76.0416 13.193 75.3935 13.1427 74.8295 12.7717C74.6909 12.678 74.7991 12.1581 74.7741 12.0016C74.6202 11.0546 74.3019 12.4104 74.2565 12.4347C73.1776 13.051 72.4208 11.7824 71.3272 12.3253C71.2679 12.3574 70.7558 13.802 70.6099 12.5378C70.5998 12.4536 70.4582 11.1606 70.2448 12.031C70.2315 12.0855 70.3257 12.7522 70.1135 12.6753C69.9014 12.5985 69.5354 13.0246 69.2732 12.2848C69.1899 12.0517 69.0287 10.7606 68.7027 11.7691C68.6815 11.8395 68.1441 14.1289 68.0643 12.5285C68.0516 12.2651 68.1558 10.5804 67.7836 11.4293C67.7124 11.5939 67.81 11.9754 67.6319 12.2024C67.3587 12.5523 67.0417 12.0848 66.6912 12.8209C66.63 12.9512 66.3413 14.0844 66.1952 13.2069C66.1724 13.0695 66.255 12.5094 66.159 12.4416C65.7029 12.117 65.1933 12.4698 64.7365 12.0574C64.5739 11.9123 64.7045 11.0067 64.5401 10.7543C64.3757 10.5021 64.0326 10.2504 63.8285 10.6572C63.6243 11.0642 63.7546 12.524 63.4735 12.6266C62.253 13.0723 61.1105 12.1638 59.9236 11.9823C59.7478 11.9552 59.8694 12.4811 59.6087 12.4785C58.6496 12.4712 56.9755 12.881 56.1963 11.7418C55.5701 10.8291 56.4373 10.1937 55.9443 9.81182C55.706 9.62953 55.368 11.3043 55.3069 11.3549C54.7094 11.8694 54.338 11.1055 53.8098 11.3135C53.7009 11.3567 53.778 12.0445 53.6857 12.0738C53.3703 12.1797 53.0569 11.8617 52.7595 11.9061C52.6258 11.9276 52.6297 12.4506 52.5087 12.4057C52.2186 12.3041 51.968 12.0749 51.7007 11.5752C51.6763 11.5297 51.8753 10.8865 51.6595 10.8545C51.3096 10.8045 50.8955 10.3067 50.4721 10.7918C50.347 10.9379 50.3035 12.1312 50.0733 11.2986C50.0251 11.1248 50.1391 9.69372 49.8008 10.9226C49.7431 11.1267 49.1933 12.7817 48.9812 11.6981C48.9257 11.4129 48.792 10.2352 48.6426 10.4155C48.6223 10.4444 48.6826 11.0877 48.5617 11.147C48.1364 11.3446 47.7006 11.265 47.2695 11.456C47.1545 11.5083 47.3084 12.1757 47.1379 12.2325C46.6671 12.3894 46.0856 12.2088 45.6355 11.9934C45.4694 11.9128 45.5942 11.365 45.5831 11.305C45.4024 10.3286 45.2654 11.6403 45.1997 11.7159C44.7859 12.1684 44.4845 11.5475 44.1097 11.7069C44.0064 11.7493 44.073 12.3763 44.052 12.432C43.8354 12.9755 44.0037 11.8523 43.8708 11.7271C43.4997 11.3726 43.077 11.4202 42.6957 11.499C42.5559 11.5289 42.7105 12.2556 42.5855 12.2741C41.8484 12.3972 41.0832 12.3302 40.3635 11.9371C40.2282 11.8618 40.307 11.3017 40.2776 11.1743C40.0726 10.2827 39.8051 11.5052 39.7402 11.6223C39.4489 12.1567 39.3261 11.6642 39.0652 11.7612C37.8037 12.243 36.2258 11.9681 35.0324 11.8279C34.3736 11.7513 33.7682 11.629 33.1913 11.5326C32.3676 11.404 31.609 11.3198 30.7502 11.4772C30.6571 11.4938 30.8188 12.2261 30.7399 12.2499C29.7251 12.5225 28.6684 12.3417 27.6667 12.6805C27.5854 12.7069 27.7906 13.3923 27.6641 13.4581C27.4114 13.5972 27.0447 13.6056 26.741 13.4191C26.5915 13.3296 26.6927 12.7054 26.5432 12.6278C26.196 12.4455 25.8473 12.4437 25.5322 12.6042C25.4001 12.6738 25.7144 13.3566 25.5358 13.3913C24.3284 13.6426 23.1844 13.9636 21.7999 13.288C21.7059 13.2415 21.3415 11.8193 21.2214 12.131C21.2903 12.5322 21.3876 13.0008 21.4698 13.4279C19.797 14.0128 18.0304 13.9323 16.4304 14.3703C16.3644 14.3886 16.717 15.0904 16.5927 15.129C15.8666 15.3568 15.3135 15.79 14.375 15.3527C14.284 15.3099 13.7696 14.0426 13.6544 14.3197C13.6308 14.3708 13.4312 14.6628 13.486 14.9663C13.4963 15.011 13.8179 15.5641 13.743 15.6207C13.3129 15.9345 12.8405 16.0393 12.3908 15.8818C12.3172 15.8555 11.9629 15.2739 11.9035 15.2529C11.45 15.1208 11.7459 15.651 11.5678 14.8387C11.4158 14.2786 10.3074 13.8226 9.26623 13.3266C9.11662 13.2714 9.12283 13.1283 8.45396 13.0366C6.76716 12.8749 4.98399 12.3148 3.18887 12.1179C2.7585 12.0645 3.11839 13.6583 2.21201 12.6807C2.12598 12.599 2.00157 11.3807 1.80061 11.0476C1.64989 10.7914 0.88018 10.9545 0.748188 10.4458C0.634984 9.91054 1.30896 9.76919 1.29031 9.10022C1.25663 8.4861 0.468409 8.23303 0.990399 7.31914ZM83.7337 9.06048C83.516 8.40427 83.4496 10.7963 83.7037 10.2272C83.716 10.1968 83.745 9.09268 83.7337 9.06048ZM111.153 7.67026C110.757 6.64685 110.676 8.21115 110.969 9.00372C111.265 9.79494 111.276 7.98021 111.153 7.67026ZM114.214 6.52693C113.739 5.75867 114.171 9.12471 114.475 8.38394C114.493 8.34189 114.242 6.57137 114.214 6.52693ZM9.10816 13.0157C9.08344 12.9949 8.99854 13.0473 9.02335 13.0676C9.59696 13.5659 9.71405 13.5221 9.10816 13.0157ZM117.15 5.00403C116.91 4.59888 116.752 5.1967 117.046 5.7056C117.29 6.11344 117.458 5.50626 117.15 5.00403ZM72.0467 6.16274C72.0446 6.12697 71.9159 6.08942 71.91 6.2909C71.8915 6.93985 72.0804 6.76442 72.0467 6.16274ZM121.975 2.95985C121.232 3.16047 119.653 0.801254 120.53 0.746776C120.691 0.735826 120.608 1.6944 120.887 1.84429C121.405 2.11289 120.865 0.424584 121.594 1.12802C121.725 1.25824 122.017 2.95551 121.976 2.96395C121.976 2.96259 121.975 2.96122 121.975 2.95985ZM83.6416 6.18501C83.6375 6.15332 83.4578 6.12086 83.453 6.15215C83.3446 6.91037 83.7076 6.97624 83.6416 6.18501ZM64.5265 4.33502C64.5197 4.26719 64.1049 4.18389 64.0883 4.24527C63.8099 5.4754 64.6486 5.64751 64.5265 4.33502ZM95.7044 4.28691C95.8333 3.67169 96.0025 3.48326 96.1667 3.91401C96.2102 4.02356 96.2532 4.17324 96.2947 4.36623C96.2587 4.35883 96.2226 4.3528 96.1865 4.34767C96.026 4.32359 95.8657 4.31872 95.7044 4.28691Z" fill="#007CF0"/>
</svg>
