<svg width="56" height="37" viewBox="0 0 56 37" fill="none" xmlns="http://www.w3.org/2000/svg">
<g clip-path="url(#clip0_484_4292)">
<path d="M44 0.5C47.1794 0.510545 50.2255 1.77821 52.4736 4.02637C54.7218 6.27452 55.9895 9.32065 56 12.5C56 15.4 55.388 18.1 53.84 20.324C52.744 21.912 50.856 22.844 49.056 23.844C49.036 27.004 49.076 27.78 51.572 31.936C53.2 34.648 50.064 37.708 47.392 36.016C41.72 32.408 37.856 29.18 35.368 25.376C32.88 21.58 32 17.332 32 12.5C32.0053 9.31903 33.2713 6.26985 35.5206 4.02056C37.7698 1.77127 40.819 0.505288 44 0.5ZM12 0.5C15.1794 0.510545 18.2255 1.77821 20.4736 4.02637C22.7218 6.27452 23.9895 9.32065 24 12.5C24 15.4 23.388 18.1 21.84 20.324C20.744 21.912 18.856 22.844 17.056 23.844C17.036 27.004 17.072 27.78 19.572 31.936C21.2 34.648 18.064 37.708 15.392 36.016C9.72 32.408 5.856 29.18 3.368 25.376C0.880001 21.58 0 17.332 0 12.5C0.00528717 9.31903 1.27127 6.26985 3.52056 4.02056C5.76985 1.77127 8.81903 0.505288 12 0.5Z" fill="#F5A623"/>
</g>
<defs>
<clipPath id="clip0_484_4292">
<rect width="56" height="36.0018" fill="white" transform="matrix(-1 0 0 1 56 0.5)"/>
</clipPath>
</defs>
</svg>
